<?xml version="1.0" standalone="no"?>
<!DOCTYPE svg PUBLIC "-//W3C//DTD SVG 1.1//EN" "http://www.w3.org/Graphics/SVG/1.1/DTD/svg11.dtd" >
<svg xmlns="http://www.w3.org/2000/svg" xmlns:xlink="http://www.w3.org/1999/xlink" version="1.1">
<metadata></metadata>
<defs>
<font id="axure_handwritingbold" horiz-adv-x="1138" >
<font-face units-per-em="2048" ascent="1487" descent="-561" />
<missing-glyph horiz-adv-x="569" />
<glyph unicode="&#xfb01;" horiz-adv-x="1251" d="M55 1028v8l2 23l21 10q33 16 72 16q8 0 20 -1t18 -1q16 -4 21 -4q12 0 22 8l17 9l16 -4q0 8 1 22t3 23q4 72 19 123l6 30q-6 37 12 70q6 16 6 20l2 39h23q2 41 32.5 80t69.5 60l6 4l7 2h12q18 0 29 -9q27 8 65 9q115 0 193 -78q41 -41 55 -92v10l2 16l10 11q0 20 12 49 q0 4 3.5 11t3.5 9l4 29l28 6q6 0 20.5 3t20.5 3q8 2 17.5 4t11.5 2l12 4l11 -2q2 0 8 -2l6 -2q6 8 14 8q6 0 18.5 -7t20.5 -15l10 -6q14 -8 23 -13q2 0 5 -2t8 -5t13 -7q23 -18 27 -26l-12 -31v-2q0 -20 -6 -31q0 -2 -2 -4q8 -33 -11 -82q0 -4 -2 -11t-3 -11.5t-1 -6.5 q4 -33 -4 -39l-33 -8q-10 -2 -34 -18q-47 -33 -78 -33q-20 0 -37 8l-23 8l-2 25q-2 8 -18 33q-27 41 -37 67q0 -4 -2 -12q-4 -31 -10 -33h-33q-139 20 -180 74h-6q-20 0 -33 -16q-53 -57 -39 -172q0 -27 -10 -43q2 -6 2 -21q27 -16 35 -24q2 0 8 1t10 1q49 0 111 -25l26 -8 q0 -8 2 -10l15 -5l4 -18q10 -29 -6 -53q-6 -10 -19 -21q0 -16 -14 -30l-13 -17h-18h-10q-10 0 -17 -6l-6 -18h-26q-29 0 -41 -2q-4 0 -15.5 -1t-17.5 -1q-4 0 -12.5 1t-12.5 1q0 -37 4 -111q8 -156 -8 -221q27 -106 10 -314q-2 -12 -2 -38.5t-2 -40.5q25 -45 18 -101.5 t-48 -91.5q-6 -10 -19 -10l-30 6l-3 2q-2 0 -9 -1t-11 -1q-18 0 -29 4q-25 6 -30 12l-2 27q2 8 -9 18q-12 8 -22 11l-27 6l-6 24q-18 100 4 199q-29 49 -8 123q-14 -2 -27 14l13 41q14 33 14 103q0 31 2 45l-20 22l14 43v10q-4 31 6 54q-14 55 0 137h-12q-27 0 -41 12 q-23 -6 -39 -6q-55 0 -72 41q-6 6 -6 21q-4 0 -14 12q-8 14 -9 26q-14 27 -8 72zM756 295q-4 207 10 270q-8 33 0 70h-6q-6 43 6 123q12 68 8 114l-4 41l16 2q0 12 2 19v8q-23 55 15 107q12 27 43 26q12 0 24 -6h11h8q14 -2 26 -8q0 -6 3.5 -11.5t7.5 -7.5l2 -2q16 -8 35 -8 l16 -2l12 -12q8 0 21 -4q29 -12 30 -17l-4 -32q0 -2 -3 -9.5t-3 -11.5q-6 -18 -2 -33l2 -34q-14 -2 -20 -17q0 -2 -2 -9t-9 -11q0 -8 5 -15l14 -10l-4 -22q-2 -4 -12 -88h4v-41q0 -23 -7 -41l-2 -5v-6q-2 -20 23 -37q-8 0 -13 -7t-5 -15v-6q0 -31 -11 -47q10 -25 11 -82 q12 -4 12 -15l-8 -45q-4 -23 -4 -59q0 -41 -7 -66l15 -12l4 -10v-8q2 -25 6 -45q8 -96 10 -144v-32l-10 -2q0 -25 -18 -43q-4 -4 -16.5 -9.5t-13.5 -7.5t1 -14l-49 -8q-2 0 -9.5 -1t-11.5 -1q-98 0 -129 112q-16 59 -16 182q-2 18 -2 53.5t-2 51.5z" />
<glyph unicode="&#xfb02;" horiz-adv-x="1251" d="M59 1028v8l2 23l21 10q33 16 72 16q8 0 20 -1t19 -1q16 -4 20 -4q12 0 23 8l16 9l16 -4q0 8 1 22t3 23q4 72 19 123l6 30q-6 37 12 70q6 16 6 20l2 39h23q2 41 32.5 80t69.5 60l7 4l6 2h12q18 0 29 -9q27 8 65 9q109 0 193 -78q33 -31 48 -71t12 -60.5t-1 -30.5 q0 -31 -6 -33h-37q-139 20 -180 74h-6q-20 0 -33 -16q-53 -57 -39 -172q0 -27 -10 -43q2 -6 2 -21q25 -16 35 -24q2 0 8 1t10 1q49 0 111 -25l26 -8q0 -8 2 -10l15 -5l4 -18q10 -29 -6 -53q-6 -10 -19 -21q0 -16 -14 -30l-12 -17h-19h-10q-10 0 -17 -6l-6 -18h-26 q-29 0 -41 -2q-4 0 -15.5 -1t-17.5 -1q-4 0 -12 1t-13 1q0 -37 5 -111q8 -156 -9 -221q27 -106 11 -314q-2 -12 -2 -38.5t-3 -40.5q25 -45 18 -101.5t-48 -91.5q-6 -10 -19 -10l-30 6l-2 2q-2 0 -9.5 -1t-11.5 -1q-18 0 -29 4q-25 6 -30 12l-2 27q2 8 -9 18q-12 8 -22 11 l-27 6l-6 24q-18 100 4 199q-29 49 -8 123q-14 -2 -27 14l13 41q14 33 14 103q0 31 2 45l-20 22l14 43v10q-4 31 6 54q-14 55 0 137h-12q-25 0 -41 12q-23 -6 -39 -6q-55 0 -72 41q-6 6 -6 21q-4 0 -14 12q-8 14 -8 26q-14 27 -9 72zM743 59l15 19q14 23 16 31q0 6 -4 10 t-8 6l-2 2l6 27q49 213 53 594q0 8 -4 28q-10 61 10 96q-14 43 -14 80q0 23 6 47q-8 4 -10 19l6 33q14 45 21 69q-12 -6 -15 6l4 41v23q-4 100 25 143q-20 70 -4 133l-2 4l10 41q2 0 2 2q6 27 12 37q18 39 56 39q6 0 18 -4l12 -2l2 -4q23 -6 37 -18q23 -4 39 -31l6 -12v-7 l13 -2l10 -26q12 -41 0 -84q-4 -10 -2 -21l6 -18l-10 -19q6 -10 12 -26l2 -25l-12 -18q2 -6 2 -23q8 0 8 -6l-6 -37q-6 -35 2 -92q2 -23 6 -59v-19l-12 -14l-2 -2q0 -2 4 -12.5t4 -14.5q25 -63 14 -104l-6 -25l-10 -2q-2 -2 -4 -7t-2 -7q20 -39 16 -82q-4 -37 -20 -57 q2 -12 3 -33t4 -54.5t5 -62.5q8 -119 10 -139l2 -8l-2 -9q-12 -47 -8 -88q0 -61 -6 -127l-4 -38l-21 2q0 -2 -1 -6.5t-2 -7.5l-2 -6t-1 -5l6 -4l2 -10q14 -37 -8 -97.5t-70 -89.5q-27 -18 -41 -18q-6 0 -10 5t-6 9l-2 6q-2 -2 -4 -2l-16 -8l-17 6q-41 14 -53 41q-6 12 -6 27 q-33 10 -47 45z" />
<glyph horiz-adv-x="0" />
<glyph unicode="&#xd;" horiz-adv-x="681" />
<glyph unicode=" "  horiz-adv-x="569" />
<glyph unicode="&#x09;" horiz-adv-x="569" />
<glyph unicode="&#xa0;" horiz-adv-x="569" />
<glyph unicode="!" horiz-adv-x="681" d="M133 1271.5q2 12.5 6 18.5l6 4q0 6 7 13q-18 33 -19 51q0 25 14 43q-8 23 0 47l3 2l2 4q6 23 18 35l14 18l25 -8l18 -6q14 14 23 14l22 -24q12 -12 19 -17h35h8h6q35 0 53 -8l15 -6l6 -14q51 -125 58 -261.5t-11 -234.5q-10 -160 -8 -201v-59q-4 -96 16 -129l14 -25 l-18 -18q-8 -12 -10 -37q0 -2 -1 -7t-1 -9l-2 -17l-15 -10q-8 -6 -51 -24l-10 -27q-2 0 -5 -1t-8 -1q-20 4 -28 8l-19 23l-2 2q-2 4 -4 4q-2 2 -8 2h-8l-21 2l-10 18q0 2 -4 10q-23 37 -33 43l-20 13l4 24q14 90 2 246q-4 96 -2 129q-6 37 -6 68q-25 34 -23 69 q-18 -16 -18 6l4 43q10 29 0 54q-10 27 -25 45q2 4 6.5 6t8.5 2h2q-6 16 -6 27q0 12 2 18q0 2 -2 3t-6.5 3t-10.5 -4q-4 18 -2 30.5zM199 209l16 12q0 2 4 6q4 0 4 9q0 20 4 40q2 4 2 7l9 32q8 2 21 -3t15 -5q16 0 25 10l2 5q12 6 31.5 7t32.5 -1l14 -2q84 -20 133 -119 l4 -8v-9q2 -127 -84 -208l-8 -9l-10 -2q-14 -4 -37 -4q-94 0 -137 84q-23 45 -39 137z" />
<glyph unicode="&#x22;" horiz-adv-x="970" d="M115 1520l43 4q10 2 35 2q80 0 154.5 -31t98.5 -88l3 -4v-6q8 -72 -7 -203q-12 -137 2 -193l2 -8l-2 -8q-6 -37 -47 -53h-2q-2 -33 -10 -39l-49 2q-76 20 -131 76q-43 49 -64 119q-23 70 -22 270q4 66 0 123zM520 1479l43 4q6 0 16.5 1t14.5 1q82 0 237 -55l19 -9l6 -16 q8 -25 4 -70q-2 -4 -2 -14q29 -4 35 -12l-21 -45q-29 -35 -77 -287q-2 -18 -17 -33l6 -20l-16 -17q-18 -20 -49 -20q-16 0 -41 10l-12 -4l-56 45q-68 61 -86 162q-10 66 -2 176q4 109 0 162z" />
<glyph unicode="#" d="M-13 540.5q1 12.5 3 18.5t7 18.5t5 14.5q10 6 10 18l2 23l17 8q39 23 75 23q6 0 16.5 -1t12.5 -1q8 -2 17 -3q12 0 26 17l17 20l24 -10q18 -8 39 -8q14 0 21 6q14 23 8 76q-29 -6 -49 -6q-66 0 -103 48t-39 136v16l15 11q0 4 2 8l6 20l20 6q53 12 84 15q55 10 78 16 q23 90 39 285q8 96 18 180l2 21l17 10q39 20 72 20q59 0 96 -59q29 -39 35 -119l2 -12l-7 -8q-4 -10 -10 -58q-4 -41 0 -53q10 -18 15 -33l-17 -24q-31 -23 -35 -129q10 0 72 10q49 8 74 10h2q-10 18 -2 37v2l2 4q4 14 4 133q0 197 43 242q23 27 57 27h13q37 -8 73 -58 q14 -23 29 -31l16 -10v-24q-4 -39 -4 -123q0 -23 -1 -66t-3 -63l29 -13q12 -6 22.5 -6t30.5 8q33 8 51 9q41 0 76 -27l18 -12l-4 -27v-2q2 -2 7 -2q14 -6 33.5 -23.5t27.5 -41.5q-6 -4 -12 -11.5t-17.5 -26t0.5 -28.5q-8 -10 -17 -17.5t-13 -7.5l-5 -2q-41 -23 -139 -34 q-43 -4 -86 -13q-4 -37 -6 -76q0 -4 -2 -21t-4 -24q25 12 45 13h6q20 10 41 10q25 0 50.5 -16.5t36.5 -27.5t38 -42q25 -31 31 -35l10 -8l2 -14q2 -23 -12 -48v-8q-2 -27 -35 -49q-4 0 -8 -4l4 -27l-29 -8q-18 -8 -45 -8q-16 0 -74 10q-41 8 -53 8q-4 0 -8 -2h-6 q-20 -39 -31 -159q-8 -74 -8 -176q0 -27 2 -39v-61.5t-13.5 -60.5t-39.5 -54l-6 -9h-11q-4 -2 -14 -2q-18 0 -51 17q-8 4 -15 4q-2 -2 -4 -5t-10 -8.5t-14 3.5l-23 28q-55 104 -35 314q10 94 9 176l-5 4h-2q-8 0 -24.5 -1t-24.5 -3q-49 -4 -67 -13q-4 -27 -4 -84 q-2 -92 -7.5 -140t-28 -110.5t-65.5 -87.5l-18 -10q-10 -2 -15 6v17l-10 4q-8 -18 -20 0l-2 2l-15 -4l-18 10q-31 25 -44 67t-12 86t3 95q4 88 2 108h-6q-12 0 -15 -2l-12 -14l-16 -2q-12 -2 -41 -2q-57 0 -92 27.5t-66 83.5q-6 12 -9 24t-2 24.5zM483 674q113 4 176 24 q0 4 3.5 17.5t5.5 27t2 27.5q4 29 4 66h-10q-51 0 -125 -21q-6 -2 -31 -8q-12 -35 -19 -76q0 -8 -3 -28.5t-3 -28.5z" />
<glyph unicode="$" d="M14 401l2 25l23 10q10 4 43 8q10 0 22 5l-8 36l39 9q4 0 10.5 1t8.5 1q18 0 55 -23l24 16l23 -28q68 -78 29 -137q20 -37 34 -48q33 -2 80 -36q8 -8 21 -17q25 10 51 10q6 0 10 -2q18 45 2 168q-12 104 -4 154q-16 37 -16 98v19q-12 8 -76 26q-109 27 -135 72 q-86 41 -123 152q-27 104 2 204l6 19q-2 8 2 20q6 20 41 56q16 12 19 18q-2 31 14 47q29 31 109 55q72 27 73 41l6 41l31 -6q0 31 10 62q8 47 7 55l-9 35l31 10q41 18 84 18q47 0 78 -18l12 -6l6 -10q16 -35 25 -88q8 -41 14 -50.5t21 -9.5q12 0 20 2l12 2l15 -6 q74 -41 213 -151q12 -12 30 -25l15 -12v-17q0 -8 4 -14q12 -37 10 -59l-2 -15l-10 -10q-41 -41 -84 -41q-51 0 -121 70q-68 63 -108 63q-16 0 -33 -6q-6 -78 30 -209q25 -100 27 -131q23 -6 66 -31q31 -20 55 -20h47l-4 -27q20 -10 31 -16q14 -14 14 -17q135 -51 184 -274 l6 -23l-16 -14q-2 -2 -8 -20q-10 -43 -31 -58q-6 -94 -90 -182q-70 -70 -184 -121q-10 -16 -2 -82q14 -119 -31 -162l-6 -6l-10 -4q-19 -6 -39 -6q-14 0 -45 10q-25 6 -27 6t-7 -1t-7 -1l-37 -8l-8 35q-4 14 -29 47q-37 55 -41 82h-12q-70 0 -176 49q-84 33 -101 35l-10 2 l-8 4q-80 63 -135 158q-59 106 -54 192zM350 1006q10 -31 43 -59.5t66 -41.5q0 117 -25 230q-14 -6 -45 -45q0 -2 -16 -23l-4 -4h-2q-29 -27 -17 -57zM731 592q0 -2 1 -5t1 -5l4 -13l-4 -10q-6 -14 4 -57q14 -61 13 -103q4 -8 8 -20q2 -10 2 -31v-16q-2 4 25.5 19.5 t54.5 23.5q2 6 14 37q29 68 12 102q-16 6 -61 37q-55 37 -74 41z" />
<glyph unicode="%" horiz-adv-x="1820" d="M63 905q-4 10 0.5 22.5t10.5 18.5l4 8q8 12 8 54q-4 43 4 69l4 15l6 4q-6 23 21 28q2 6 10 25q0 2 1 5t3 7l4 8l4 17l15 8q14 6 14 33q0 23 8 47q6 18 10 22l25 2l2 5q0 2 4 5t12 3q-2 20 -22 28q2 8 12 14.5t19 8.5l8 2l125 25q29 18 37 30l14 17l20 -2q18 -2 37 -21 q6 0 15 -4v2q23 6 32 23q6 0 11.5 -3.5t7.5 -7.5l2 -4q33 20 47 -24q45 -2 92 -37q8 -2 35 -17q23 14 68 15h16h18h11q8 14 -4 30q14 8 29.5 9.5t23.5 -2.5l8 -2q27 -10 45 -11q29 0 90 29q61 31 103 31h10q8 23 35 22h6v2q8 4 35 11l16 6q6 4 16 16q41 47 84 47h4 q23 0 47 -24l5 -4q2 -2 4 -3h4l18 3l15 -13q8 -14 12 -28q10 -2 20 6l13 -47q4 -66 -21 -91l-6 -6q0 -4 -2 -6q-2 -16 -18 -37l-7 -12q0 -2 -1 -5t-3 -14.5t2 -23.5q-51 2 -84 -57q-31 -45 -49 -58v-34l-22 -11q-31 -12 -76 -86q-35 -68 -76 -100q-4 -8 -15.5 -31.5 t-17.5 -38.5q-100 -211 -133 -340q-4 -16 -13 -46.5t-13 -45.5q-37 -127 -45 -180q6 -6 47 -6h22q27 4 37 0q-4 -29 16.5 -65t16.5 -50q-4 -10 -2 -16q2 -4 6 -5t6 -3q6 -6 7 -14.5t-1 -14.5l-2 -4l-31 -17q-35 -18 -65 -49q-59 -55 -133 -55h-19l-12 14h-2h-2 q-14 -8 -27.5 -2t-23.5 0q-12 8 -22.5 33t-20.5 25q-8 0 -15 -7l-18 41q-33 106 -6 312q4 29 8 86l2 8l2 4q20 45 39 133q43 174 86 223q-4 23 0 37l4 10l8 9q10 10 19 12q12 33 24 47q16 29 33 37q-2 57 74 145q10 10 37 49q-8 -2 -25.5 -5t-23.5 -5q-68 -23 -105 -22 q-10 0 -16 2q0 -8 -4 -25q0 -2 -2 -5t-5 -5q0 -6 -1 -14.5t-1 -10.5q-2 -6 -2 -16l11 -12l-2 -17q-4 -35 -41 -153q0 -2 -1 -7.5t-3 -7.5l-5 -12l-12 -6q-29 -23 -53 -23q-8 0 -12 2q-53 -70 -127 -112q-96 -59 -199 -60q-143 0 -236 127l-14 25q2 0 3 2l3 6t2 8 q0 8 -3 15.5t-7 15.5t-6 14l-8 7q2 43 8 59q0 2 -1 4t-5 6t-13 2zM320.5 957.5q3.5 -15.5 13.5 -31.5q12 -10 17 -20.5t3 -14.5l-2 -4q4 0 14.5 -3t12.5 -3t5 -2t5 -2q18 12 72 36q68 29 80 43q20 35 23 83t-13 83q-16 29 -55 35q-18 -31 -52 -54.5t-69 -23.5h-2 q-4 -4 -8 -16q-18 -27 -25.5 -40t-15 -31.5t-4 -34zM995 362l9 21q16 53 43 125l6 27l12 6l-4 16l22 12q8 4 33 15q16 8 20.5 11t8.5 17l6 17l18 6q10 4 52 29q39 31 73 30q31 0 56 -16q27 8 39 16l20 11q18 -10 18 -13l31 2l2 -14h8l39 -10l-4 -15q2 0 6 -4h2 q98 -4 150 -119q2 0 2 -1t2 -1h2q29 0 39 -28q-4 -4 -4 -10.5t2 -8.5l2 -4q0 -2 4 -7t7 -10t3 -7l-8 -13l10 -8l-4 -8l-8 -10v-2v-15q27 -41 4 -77l-2 -7q-18 -25 6 -26q-2 -10 -10 -20.5t-16 -14.5l-6 -6q-4 -4 -11 -23q-2 -8 -10 -32l-20 -17q-2 -10 2 -14 q6 -6 -1.5 -13.5t-15.5 -11.5l-10 -4q-25 -16 -6 -33q-2 -6 -9.5 -11t-11.5 -7h-6q-12 -8 -24 -33q-16 -29 -27 -41l-10 -14q0 -18 -13 -31q-14 -18 -47 -22q-2 0 -3 -1t-3 -6.5t4 -13.5h-41h-4q0 -27 -10 -31q-6 -2 -18.5 1.5t-22.5 7.5l-10 6h-2q-12 0 -25 -6 q-4 0 -18.5 -3.5t-20.5 -3.5q-23 0 -37 11h-8q-10 0 -16 2l-17 4q-27 8 -34 -14l-33 40l-35 37q-6 8 -22 33q-6 18 -11 19l-12 2l-8 8q-8 12 -8 20q4 12 4 16.5t-13.5 15.5t-11.5 32q-20 4 -20 20l8 27l2 10v10q-18 35 -4 105q12 41 -2 55zM1231 266q-8 -55 43 -116 q6 -2 18 -3q35 0 53.5 17.5t38.5 75.5l7 16l16 8q33 10 49 82q10 68 -8 105h-4h-10h-11q-4 0 -24 4q-12 -8 -31 -9q-8 0 -33 7l-4 -4q0 -4 2 -13l8 -24l-22 -19q-78 -57 -88 -127z" />
<glyph unicode="&#x26;" horiz-adv-x="1478" d="M131 352q2 66 37 166l2 2q6 18 23 25q14 94 59 168l10 20l27 -2h6h4q0 2 4 11.5t6 13.5q14 51 45 71q0 4 1 8.5t1 6.5q8 25 31 37q4 16 27 51q-45 55 -64 127q-16 76 4 160l2 26l17 10q6 39 51 70l25 35q16 27 49 43q12 6 19 18.5t11 23.5t7 15q6 2 13 1t11 -4t10 -5 l4 -4q12 8 19 10q25 14 31 21v2l6 6t8 6t10 4t12 0q4 -6 10.5 -8t10.5 -2h4q23 0 35 -10q12 4 31 4q12 0 18 -2l6 -2l6 -2q72 -39 133 -66q2 -2 11.5 -6t13.5 -8l14 -4l4 -17q2 -6 10.5 -22.5t12.5 -24.5q47 -92 39 -137l-2 -14l-10 -9q-49 -49 -136 -155q-78 -94 -127 -144 q4 -20 9 -24q25 -6 34 -37q0 -6 2 -10q35 -31 84 -107q63 -92 123 -141q4 4 17 33q10 27 22 47q6 10 41 41q18 10 25 20q2 2 5 9.5t7 18.5t6 15q10 39 27 57q4 10 18 17v8q0 31 8 49q10 14 -8 17l27 45q20 18 41 18q23 0 43 -20q4 0 10 1t8 1q57 0 72 -62l2 -10 q18 -8 18 -16q18 -8 31 8l15 -45q2 -8 2 -23q8 -33 -7 -65q-14 -29 -10 -39q-10 -2 -16 0t-10 6l-5 4q-6 -14 -6 -33.5t2 -32.5l4 -12q-2 -4 -8 -5t-10 -1l-4 2q-2 -39 -31 -80q-16 -25 -16 -35q-4 -14 4 -32q-4 -6 -10 -8.5t-11 -2.5l-4 2q-2 -2 -2 -8q-8 -29 -14 -43 q-4 -2 -8 0t-4 4l-2 4q-20 -35 -52 -39q-4 -29 -10 -45q-12 -18 -14 -20h2q14 -4 37 4l10 -31q6 -20 18.5 -36.5t21.5 -22.5t34 -25q33 -20 47 -34l16 -13l-2 -18q0 -33 -22 -55q-8 -12 -9.5 -21.5t0.5 -15.5t2 -9l-36 -10h-4q-96 0 -199 103q-51 47 -66 47q-6 0 -26 -29 l-8 -16q0 -2 -2.5 -3t-9.5 -3.5t-15 2.5q-33 -35 -115 -82q-16 -8 -22 -13q-115 -74 -195 -65q-18 -4 -12 -21q-12 6 -31 5.5t-27 9.5q-10 -25 -20 -27q-4 0 -12 5t-15 11l-4 5q-31 29 -60.5 29.5t-31.5 2.5q-6 6 -12 11.5t-10 8.5t-11.5 4t-10.5 1t-14.5 1t-15.5 1 q0 6 -3 11t-7 7l-4 4q-25 -14 -37 7l-8 22q-12 -4 -19.5 3t-17.5 27.5t-18 31.5q-18 18 -27 34l-27 37q-63 66 -59 170zM433.5 336q3.5 -55 21.5 -125q29 -27 71 -27q47 0 158 54q25 41 90 79q37 20 53 39l-2 2q-43 16 -75.5 49t-65.5 115q-35 10 -53 62q0 2 -1 2t-1 2 q-20 4 -37 28q-2 6 -14 46v4q-43 -55 -72 -102.5t-52.5 -110t-20 -117.5zM569 1112q0 -29 17 -33q8 8 19 17.5t20 13.5l8 6h6h9h7.5t7.5 1t6 3t6 4t5 6.5t6 8.5t4 10t4 14q2 4 4 11.5t2 11.5q12 27 23 28q2 4 4 17.5t2 17.5v2q-2 2 -2 4q-12 -12 -37 -12h-6q-6 -6 -25.5 -12 t-25.5 -10q-63 -41 -64 -109z" />
<glyph unicode="'" horiz-adv-x="487" d="M92 1477l39 4q4 0 14.5 1t14.5 1q74 0 215 -56l16 -8l6 -16q8 -25 4 -70q-2 -4 -2 -14q25 2 29 -10q2 -6 -2 -17.5t-8 -21.5l-6 -8q-27 -39 -70 -287q-2 -18 -16 -33l6 -20l-15 -17q-18 -20 -45 -20q-20 0 -36 10q0 -2 -2.5 -3t-6.5 -4t-8 3l-45 45q-61 61 -78 162 q-10 66 -2 176q4 109 0 162z" />
<glyph unicode="(" horiz-adv-x="681" d="M70 602q0 6 6 55q8 63 4 84l-4 13l6 12q12 25 16 76l2 16l13 10q6 6 18 27q2 2 7 10t9 13q0 51 33 129q23 63 27 75l2 11l8 8q16 16 33 16q6 8 14 41q14 43 20.5 53.5t32.5 32.5l5 2l6 6q0 27 8 39h2q6 8 27 19q4 31 14 47q4 6 24 18q2 0 7 2q12 16 18 23q66 78 131 78 q12 0 19 -2h16l10 -15q6 -8 29 -24q39 -27 55 -54l10 -18l-10 -19q-8 -14 -14 -29.5t-6 -17.5q-16 -33 -41 -59l-9 -8l-10 -2q-4 -2 -14 -2q-12 0 -19 2q-14 -14 -43 -64q-29 -47 -40 -61q4 -23 -9 -45l-4 -6l-8 -7q-23 -16 -65 -120q-39 -92 -60 -121q-8 -51 -10 -70 q-12 -90 -29 -137q14 -324 103 -512l2 -6v-4q14 -61 65 -174q39 -84 58 -142q18 -10 26 -37q6 -14 10 -47q0 -4 1 -12t1 -12v-27l-22 -16q-4 -4 -12 -17q-37 -59 -88 -59q-23 0 -41 8l-15 4l-6 13q-2 4 -8 12t-10 14q-86 131 -105 221q-61 74 -119 228q-4 8 -12 28 q-39 100 -55 240q-18 150 -10 260z" />
<glyph unicode=")" horiz-adv-x="681" d="M-6 1374l6 19l8 24q16 78 88 90h2h19q31 0 57.5 -13t38.5 -25.5t35 -36.5q12 -16 22 -27q2 -2 27 -43q2 -4 6 -13.5t6 -13.5q2 0 7.5 -2t7.5 -4q25 -12 32 -26l2 -5l4 -8q190 -285 220 -516v-2q4 -55 14 -74l6 -12l-4 -14q-4 -16 2 -31q6 -35 8 -49q0 -25 2 -39 q6 -84 3 -126t-19 -58v-2q-4 -37 -4 -54q-4 -63 -12 -96q-4 -8 -5 -20q-10 -49 -16 -66q-10 -37 -33 -51q-10 -31 -26 -84q-4 -10 -10.5 -32.5t-10.5 -31.5l-12 -26l-31 -6q0 -2 -1 -4t-1 -5q-12 -37 -22 -53q-20 -96 -105 -221q-12 -20 -16 -29l-8 -12l-15 -4 q-19 -6 -39 -6q-84 0 -116 74q-31 72 28 145q14 45 39 102q0 2 8.5 19.5t12.5 27.5l2 5q53 109 63 167v7l2 4q6 12 23 33l10 20q10 25 18 74q2 8 5.5 22.5t5.5 22.5q12 51 12 59q8 43 25 82q18 47 20 107q0 6 -2 18t-2 18q-18 193 -43 306q-43 121 -110.5 219t-121.5 135 q-18 4 -51 39q-41 53 -57 84z" />
<glyph unicode="*" horiz-adv-x="796" d="M27 1069q0 10 8 25v26l39 4h6q51 0 82 19l4 10l16 4q2 0 8.5 1t8.5 1q35 8 45 17q-92 63 -142 81l-6 5l-6 4q-8 8 -27 55q-2 4 -10 29l-18 14v27v4v2l2 45l39 2q160 -27 237 -111q2 6 5.5 14.5t5.5 14.5q23 55 22 98v4v4q0 10 6 19q2 14 10 29q2 6 9 18l10 45h22h5 q23 0 69 -29q6 -4 17.5 -9t18.5 -10t11 -5l25 -4l6 -25q10 -53 -2 -151l18 10l15 -6q4 4 6 4q37 25 53 26l25 2l12 -18q2 -4 27 -21q55 -31 65 -81l8 -25l-22 -14q-39 -27 -158 -80q-59 -27 -63 -29h2l26 -4l4 -27q2 -6 47 -51q4 -4 10.5 -10t11.5 -11t9 -10q39 -47 27 -90 q-16 -41 -101 -65l-20 -2l-14 14q0 2 -2 2h-2l-23 -2l-12 19q-23 41 -53 55q-10 -25 -11 -94v-21v-16l-12 -10q-41 -41 -100 -41q-4 0 -10.5 1t-8.5 1l-26 6v16l-5 10l-24 4l-8 19q-14 45 2 147q0 4 2 14.5t2 16.5q-8 -4 -12 -4q-74 -20 -111 -20q-33 0 -55 16l-11 6l-4 10 q-2 6 -4 14.5t-2 10.5q-2 6 -8 18l-14 19z" />
<glyph unicode="+" horiz-adv-x="1196" d="M35 659l4 17q12 33 47 57.5t61.5 33.5t79.5 26q70 20 86 30l19 11l22 -7q6 -6 27 -6q29 0 57 13v4q-2 2 -2 4q-6 23 -6 51q0 25 21 49q2 27 2 84q0 137 30 199q-4 4 -4 12q-4 27 29 63l8 9l14 16l23 6q33 -2 74 -14q20 -4 37 -8l14 -2l8 -15q55 -84 37 -239l-5 -35 t-3 -27t2 -30l4 -23l-21 -14v-23q2 -20 2 -22h13q29 0 94 4q53 6 106 6q166 0 246 -101l15 -18l-9 -22q-29 -53 -89 -85t-138 -32q-45 0 -84 12q-43 -27 -127 -39q-10 -23 12 -69l7 -19l-9 -18q-20 -35 15 -123l6 -15l-6 -18l-2 -4q-2 -4 -3 -10t-4 -11q-16 -98 -79 -135 l-2 -4h-5q-18 -6 -34 -6q-74 0 -117 86q-27 49 -36 114.5t7 114.5q-6 12 -12 54q0 4 -1 12t-3 12q-25 -12 -88 -22q-39 -2 -51 -17l-17 -20l-28 4q-4 2 -15 2q-12 0 -41 -4q-45 -8 -73 -8h-21l-14 2l-13 12q-20 25 -47 96q-4 10 -14 31z" />
<glyph unicode="," horiz-adv-x="569" d="M92 94q0 74 41 127q16 18 45 35q4 2 10.5 7t8.5 5q10 14 57 41q49 29 92 29q12 0 19 -2q41 -10 65 -47q18 -27 25 -72q10 -61 6 -147v-4q-2 -25 -21 -62q-12 -27 -14 -33v-16q-4 -49 -16 -72q-8 -18 -35 -41q-14 -10 -19 -18q-2 -4 -12 -35q-10 -35 -18 -43 q-59 -76 -127 -76q-33 0 -58 19l-20 24l14 31q45 57 68 199q-29 12 -43 14l-17 2l-10 12q-37 51 -41 123z" />
<glyph unicode="-" horiz-adv-x="681" d="M41 414q-16 43 2 116q0 6 2 14.5t3 14.5t1 10l-4 21l14 14q41 39 195 51q82 4 108 13l9 4l8 -2l18 -6l21 -7l16 15l21 -2q16 -6 61 -11q55 -6 68 -20l4 -6l2 -4l4 -8l31 -11l8 -32q-2 -6 4 -21q16 -27 16 -43q0 -63 -55 -92q-33 -18 -90 -19q-41 0 -82 9h-6 q-80 -25 -320 -25h-26l-25 2z" />
<glyph unicode="." horiz-adv-x="569" d="M117 141l4 11q2 2 12 45q12 49 23 69q25 51 73 51q6 0 11 -2q25 23 63 23q31 0 78 -19q4 0 13 -4t14 -4l16 -6l6 -14q39 -76 -4 -197q-12 -41 -12 -53l-6 -25l-21 -10q-6 -2 -22.5 -11t-20.5 -11q-67 -41 -106 -41q-45 0 -80 37l-13 12l2 18q2 12 -14 62q-2 4 -7 24.5 t-7 30.5z" />
<glyph unicode="/" horiz-adv-x="569" d="M-29 33l4 30q31 244 138 527q-18 45 -7 74q16 -8 31 16q6 14 5 22.5t-3 14.5l-4 4q10 25 33 47q8 6 14 16q4 6 4 35q0 20 4 49q8 27 31 54l8 16v16q0 37 7 52q4 10 9 22t12 26.5t11 22.5q29 57 31 68q2 6 2 24q6 57 27 82q0 4 2 9q6 29 30 53q2 29 35 98q20 35 25 47 l2 23l20 6q20 6 37 6q43 0 99 -51l14 -15v-14q8 -102 -53 -254q-47 -119 -47 -182v-12l-7 -9q-25 -39 -44 -109.5t-9 -144.5h-4t-8 -6t-10 -20t-4 -21.5t4 -11.5l2 -2q-8 -20 -27 -31q-4 -27 -25 -80q-14 -35 -6 -49l11 -28l-21 -23q-31 -25 -57 -117q-29 -96 -21 -143 l4 -31l-14 -8v-25v-20l-16 -12q-6 -6 -25 -47q-14 -35 -27 -56q-26 -37 -67 -37q-2 0 -4 3h-11l-8 6q-8 6 -15 12t-15.5 13t-12.5 12q-35 35 -55 43z" />
<glyph unicode="0" d="M47 645v21q37 109 84 311q4 23 14.5 64.5t16.5 62.5l4 14l14 8q35 23 41 103v37h33l6 12q23 43 49 57q2 8 6 17.5t8.5 15.5t10.5 14.5t10 13.5t12.5 11t12.5 9t14 9.5t13 8.5t13.5 8t12.5 8q29 12 57 35l13 8h12h4q10 0 25.5 -2t21.5 -2q4 -2 12 -2h2l15 10l20 -6 q8 -2 21 -10l2 2h6l14 6l15 -4q4 -2 12 -5t12 -3q16 -10 29 -11q6 0 14 4l27 15l18 -27q35 -47 115 -82l12 -4l8 -12q72 -143 154 -416l2 -6v-10q-4 -12 -8 -19q0 -8 2 -28.5t2 -28.5q2 -63 3 -118.5t-11.5 -123t-38.5 -129.5q8 -72 -47 -159q-2 -6 -15 -31q-12 -31 -20 -55 q-20 -68 -41 -99q-6 -10 -23 -18q0 -18 -12 -31l-8 -8q-12 -31 -68 -53q-59 -62 -168 -62q-84 0 -194 31l-23 4l-10 16q-39 6 -86 62q-12 10 -33 31q-4 2 -6 4q-35 16 -59.5 44.5t-28.5 63.5l-25 17v22q2 33 -32 86q-29 41 -39 78q-8 33 -4 100q0 84 -17 105zM342 801 q-41 -236 2 -346q8 -20 6 -49q0 -12 -2 -19q41 -151 191 -227q51 0 82 30v3q0 31 10 47q2 4 11 11t11 9l-6 29l23 20q4 2 14 13q4 2 16 14q8 59 45 194q2 8 9.5 35t9.5 35t8 32.5t8 35t6.5 32t5.5 33.5t3 31.5t2 34t-1 32t-3 33.5q-16 39 -21 117q-8 76 -20 109h-7h-6l-12 2 l-10 8q-10 10 -35 26q-51 31 -66 72q-20 6 -30 21l-4 4l-2 6q-2 4 -2 14q-4 -4 -7 -8l-10 -10l-12 -2q-29 -6 -51.5 -24.5t-39 -54.5t-24.5 -60.5t-22 -75.5q-33 -109 -45 -136q2 -4 2 -10v-12l-4 -37z" />
<glyph unicode="1" d="M231 1167l13 17q16 25 35 43q37 41 55 114l4 11l10 8q8 8 25 12q25 59 96 109q20 12 31 20l26 12l21 -10q25 -16 33 -20q66 -43 96 -78l8 -8l2 -8q2 -20 2 -72q-4 -35 0 -57l12 -7v-22q2 -113 -10 -383q-18 -356 -6 -588q49 -2 84 -22q57 -27 80 -91l2 -10v-10 q-8 -43 -62 -88q-53 -41 -102 -41q-18 0 -27 4q-6 0 -20 -3t-23 -5q-118 -25 -159 -25q-80 0 -131 47q-53 55 -47 166l6 27l34 10l3 -2h4q4 0 24 8q37 18 62 19h2q2 25 -2 118q-4 115 2 168q2 33 2 105q0 143 12 201q2 4 4 10t5 9t5 8t4 7l3 2q4 39 0 127q0 41 -3 66 q-25 -29 -75 -31h-6q-55 0 -86 35q-27 31 -41 78z" />
<glyph unicode="2" d="M29 156l8 12q18 29 33 59q39 82 75 105q0 12 5 28q10 18 18 21l2 16l12 13q20 14 60 77q51 86 98 113q23 76 121 186q2 2 17.5 19.5t18.5 21.5t15 19.5t16 23t13.5 21.5t14.5 25.5t10 25.5t9 29l5 20l14 8q18 6 33 27l2 23l22 16h2q2 2 4 2q2 2 13 6q2 29 14 51 q10 31 6 33l-10 10v17q0 12 6 20q-37 16 -55 23q0 2 -2 2t-4 2q-10 -10 -29 -10q-4 0 -9 1t-7 1q-2 2 -7 2l-16 -17l-18 9q-18 4 -27 12q-100 -27 -123 -86q-18 -45 -55 -85t-76 -40l-45 12q-31 10 -35 31q-4 8 -16 20q-55 66 -43 123l2 10l8 7q16 18 33 51q39 59 80 78 q0 2 4 18l10 21l25 4h6q63 0 67 34l11 27l26 4q12 0 25 -6q16 4 18 4l4 -2h6l27 19l23 -21l12 6l4 23l41 -6q2 0 29 -7l12 -6q12 10 37 11h2l24 -3l11 -14q59 -2 155 -76q37 -27 64 -41l10 -4l8 -12q70 -119 31 -254q-18 -72 -100 -213q-63 -106 -78 -151l-6 -15l-13 -6 q-12 -6 -22 -17.5t-15.5 -17.5t-17.5 -25.5t-16 -25.5q-37 -78 -82 -109q-18 -55 -101 -149q-4 -6 -25.5 -31.5t-29.5 -40.5q8 4 37 17q57 27 76 53l6 8l14 4h17q29 0 45 -22q23 2 61 10q18 6 45 6q31 0 53 -10q66 20 115 20q127 0 199 -100l4 -25l-15 -24q0 -6 4.5 -12.5 t8.5 -10.5l4 -4q0 -43 -41 -80q-39 -39 -84 -41q-4 -2 -6 -2q-20 0 -60 15q-4 0 -12 2t-10 2l-12 -19l-35 6q-12 6 -51 7q-78 0 -209 -29q-25 -4 -37 -4q-25 -4 -137 -43q-131 -49 -205 -49q-35 0 -62 6l-18 4l-6 16q-6 12 -31 47q-47 61 -55 123z" />
<glyph unicode="3" d="M70 1319l2 18l14 13q57 35 107 55q80 43 108 65l16 11l19 -4q29 -8 51 -9l92 13q57 12 82 12q20 0 27 -2q8 -2 37 -2q39 0 65 -8q57 -12 111 -56q59 -41 82 -106q35 -102 -43 -215q-16 -49 -95 -127q-4 -4 -16 -15.5t-18 -17.5q147 -16 202 -82q6 -6 21.5 -20.5 t23.5 -20.5q47 -35 66 -67q33 -47 14 -90q23 -66 -4 -197q-12 -57 -14 -88l-8 -29l-25 -6q-35 -141 -178 -262q-68 -57 -162 -98q-94 -37 -188 -37q-106 0 -193 47l-16 6l-4 20q-4 16 -53 58q-59 37 -80 72q-41 59 -19 133l8 28h4v6q4 31 25 43q25 25 43 25q16 0 29 -14 l30 -21l21 23q2 2 8 2l4 -2h4l13 -2l8 -11q14 -12 18 -32q0 4 13 4l34 12l13 -35q20 -51 -13 -88v-2q41 -10 68 -10q29 0 117 24q27 12 59 19q51 45 121 164l14 18l21 2q16 25 20 58q2 6 7 18t10 18v2q6 10 20 17q-6 10 -10 20q-14 35 -17 45q-6 23 5 43q-10 25 -56.5 45.5 t-99.5 20.5q-78 0 -131 -49l-12 -12h-19q-18 2 -47 2q-18 0 -27 -2h-45h-14l-31 6l-6 32q-4 29 -33 48l-28 38q12 8 16 15q2 4 1 7t-1 7l-2 2q-10 25 -10 49v35l35 4q39 4 65.5 26.5t63.5 69.5q2 4 7 10.5t9 8.5l4 8l8 4q78 31 144 101q57 59 73 122q-23 23 -69 23 q-29 0 -90 -12q-51 -10 -84 -11q-20 -10 -37 -26q-39 -35 -70 -45q0 -16 -16 -56l-19 -26l-30 4q-86 29 -121 63q-55 53 -49 150z" />
<glyph unicode="4" d="M76 692l2 29q6 4 8 12v29q2 12 25 16q-4 12 0 31l4 10l6 4q33 39 74 187q23 80 34 112l15 41h12q12 100 66 213l12 25l24 -4q14 0 23 -4q6 -2 10 -2h4l25 -5l33 -30q2 0 2 -2t2 -4q20 -16 28 -25q14 -10 21 -22q-10 -12 8 -19h14l11 -2l-2 -22q-4 -25 -14.5 -60 t-18.5 -61.5t-8 -30.5q0 -6 5 -14.5t11 -12.5l4 -4l-16 -30q-29 -29 -66 -144q-31 -88 -49 -125h4q2 -2 4 -2t76 -6q84 0 119 -16q18 6 35 6q8 0 19 -1t15 -1q6 -2 19 -2q33 115 38 270.5t-3 282.5q-6 154 -6 161l2 54l53 -21q31 -16 74 -30q18 -4 34 -11l17 -6l6 -14 q4 -8 14 -47q4 -33 15 -43l18 -17v-20q-2 -72 4 -168q16 -209 -14 -330q2 -51 8 -73.5t34.5 -43t88.5 -32.5l41 -9l-10 -38q-6 -29 -19 -66q-2 -4 -5 -16.5t-5 -16.5l-8 -24l-27 -2q-16 0 -45 -15q-31 -23 -55 -24q-23 -164 -8 -287v-20l-11 -13q16 -68 -18 -137 q-29 -53 -70 -53h-14q-13 -13 -31 -13q-8 0 -20 5l-6 4l-5 6q-39 45 -58 98t-22.5 91t-0.5 106v61q0 37 10 84q10 51 6 70q-8 35 -117 35q-57 0 -125 -11l-22 -2l-6 8l-15 5q-8 2 -14 -2.5t-10 -8.5l-2 -6l-35 17h-4q-10 0 -39 -13q-59 -23 -84 -22q-23 0 -35 4l-12 6l-8 14 q-4 12 -15.5 28.5t-13.5 23.5q-47 86 -45 157z" />
<glyph unicode="5" d="M86 803q-27 102 33 231q-2 10 -2 33q-2 84 0 127t18.5 101.5t50.5 95.5l19 16l24 -6q16 -6 33 -23q8 4 41 11q4 0 11.5 1t9.5 1l4 4t5 11t-1 17q8 2 18 0t19 -6l6 -2q16 -6 35 -6q23 0 63 12q57 14 80 15q29 0 65 -15l19 6q37 18 59 21l33 2q16 12 36.5 12t33.5 -16 q37 20 86 20q31 0 47 -4l49 -10q-10 -16 8 -16q14 0 25 -6q6 -2 14 -7q35 -25 39 -32q-6 -2 -7 -7.5t1 -11.5l2 -4q14 -8 35 -31l10 -18l-10 -21q-41 -84 -187 -84q-10 0 -28.5 1.5t-28.5 1.5q-6 0 -20.5 1t-22.5 1q-41 -25 -141 -29q-29 -4 -41 -12q-14 -10 -15 -23l-4 -8 l-35 8q-33 14 -57 14q-33 0 -43 -20l-10 -29l-29 2q-16 2 -36.5 2t-39.5 -4l-2 -2h-4q-8 -12 -12 -45q0 -43 8 -59l8 -19l-16 -28q0 -2 -1 -6.5t-3 -12.5l-4 -16v-12q135 61 278 61q68 0 105 -8q23 -4 32 -17.5t17 -15.5q14 -6 25 -6q6 0 8 2l18 2l14 -16q16 -18 80 -37 q33 -4 64 -19l24 -8l5 -18q-4 -6 -8.5 -11.5t-6.5 -9.5q10 -2 20.5 -7t19.5 -19.5t13.5 -21.5t14.5 -28l10 -20q14 -37 25 -49l12 -25q-6 -4 -9 -10t-3 -10v-4q-6 -14 26 -64l4 -10v-12q0 -27 -4 -64q-6 -45 -2 -74l2 -22l-16 -14q-14 -6 -17 -58l-2 -16q-14 -2 -22 -21 q-12 -16 -29 -24q-72 -137 -213 -217q-143 -80 -313 -80q-14 0 -25 2h-20l-8 16q-10 14 -45 23q-39 18 -54 26q-18 18 -24 31q-8 2 -15.5 6t-13.5 8.5t-8 6.5l-8 6q-8 10 -19.5 17t-19.5 7l-6 2l8 23q-31 16 -55 53q-16 23 -17 51q-23 8 -31 31q-16 35 15 90l14 25l10 -2 l9 -4l-3 12q12 16 39 16q8 0 13 -8q-2 6 6 14l24 15q2 -2 5.5 -4t14.5 -8.5t22.5 -8.5t26.5 2t30 15q2 2 6 -4q8 -23 17 -30t22.5 -10t19.5 -10q-6 -16 10 -51q14 -29 3 -55q27 -39 75 -39q41 0 90.5 27.5t75.5 66.5l8 17l19 2l12 -7q-2 10 21 23q41 31 47 43q0 2 1 6 t3 11.5t2 9.5q4 51 24 80q27 31 -16 96q-31 31 -55 69q-2 2 -5 7.5t-3 7.5q-43 4 -91 37q-66 14 -114 14q-61 0 -129 -37q-8 -4 -16.5 -9t-17.5 -11.5t-15 -10.5q-94 -59 -164 -73l-19 -4l-14 12q-49 43 -72 92q-33 63 -10 121z" />
<glyph unicode="6" d="M57 641q0 160 43 344l4 14l9 9q20 16 45 84q31 80 55 98q2 37 39 70q20 23 20 34l2 27l27 12q29 10 55 60l13 18l20 2h4l8 4q6 4 19 8q66 72 162 72q117 0 217 -96q84 -88 90 -189q12 -6 14 -10q16 -16 8 -47l-4 -18q0 -23 -6 -37l-16 -29l-29 4q-2 0 -5 1t-5 1t-7 -1 t-9.5 -1t-13.5 -1t-13 -1q-10 0 -31 4l-27 4l-4 27v6q-41 27 -61 111q-12 55 -29 63q-2 -2 -6 -2q-51 -23 -75.5 -41t-32.5 -47l-5 -18l-18 -9q-37 -12 -76 -94q-20 -39 -22 -47q-12 -16 12 -24l-35 -37q-53 -45 -69 -209q-4 -45 -9 -70q8 10 37 27v4l2 14l8 8q23 20 48 21 l12 8q4 4 8 4q2 0 5 2t7 9.5t-2 17.5q12 -4 23.5 -2t19.5 4l11 4l2 2v4q14 20 18 27l18 18l25 -6q2 -2 8 -2q25 0 29 14l8 23l23 2q45 6 118 6q70 4 82 8h6h9q8 -2 24 -10q4 2 17 2h8l16 -2l10 -12q4 -4 23 -17q4 0 9 -4t7 -4q12 4 19 4q8 0 10 -2l16 -2l7 -8q8 -10 24 -27 q66 -78 90 -127l4 -8v-8q6 -180 -63 -330q-63 -137 -189 -233v-39l-20 -12q-10 -6 -30.5 -19.5t-30.5 -19.5q-119 -82 -191 -82q-2 0 -11 4t-20 4l-34 -6q-133 31 -234 131q-70 70 -139 194h-21l-10 21q-72 160 -74 346zM446 377q8 -25 43 -25q25 0 39 2q8 0 22.5 1t20.5 1 l41 -4v-39q0 -2 -1 -8t-3 -8v-2q2 -23 -4 -35q-14 -2 -22.5 -11t-14.5 -23.5t-10 -18.5l-4 -4l33 6l6 -12q16 16 26 16h9l22 -4q109 68 139 205l11 28l22 2q4 10 17 19q8 12 8 26q27 57 35 99q8 45 2 59q-4 6 -31 10l-31 5l-10 14q-123 -18 -233 -107q-102 -90 -132 -192z " />
<glyph unicode="7" d="M72 1430l16 45l39 -15q27 -14 72 -22q6 -2 22.5 -10.5t24.5 -10.5q-4 10 4 19l24 14l19 -18q2 0 9 -3.5l11 -5.5q-10 18 17 54q2 -10 10 -16.5t16 -8.5l6 -2l19 -2q18 0 22 -16q0 6 5.5 10t9.5 4l4 2q4 0 9 1t7 1t35 -8l4 -2h2l33 6l10 8l29 -12q2 0 14 -4q43 43 115 43 q31 0 61 -11q20 8 39 9q2 0 6.5 -1t6.5 -1h12h8l12 16l19 -2q16 0 30 -14h13q6 0 12 -1t13.5 -3.5t11.5 -2.5t10 -1t8 -1h2q29 -6 39 2l12 -32q8 -33 54 -84q14 -18 30 -41l4 -10v-11q-4 -78 -127 -168q-2 -2 -6 -4t-6 -4q-49 -92 -143 -223q-66 -96 -95.5 -143.5 t-66.5 -126t-47 -146.5l-4 -16l-13 -8q-25 -20 -45 -84q-27 -80 -55 -109q2 -10 14 -59l3 -13l-7 -8q-6 -16 -14 -24q0 -68 -6 -101q-16 -96 -74 -114q-23 -10 -37 -11l-2 19l-20 4q-2 0 -6 -4q-2 -2 -7 -2l-8 -2l-8 2q-29 8 -43 39q-12 2 -18 6l-29 14l4 29q6 20 0 35 q-2 8 -9 10t-11 2l-7 -2l-2 29q14 172 107 397q25 63 35 108q43 131 59 156q4 6 25 35l18 18q16 55 76 131q55 80 51 101q-4 27 4 39l29 6q35 6 102 96q-12 -4 -18 -4q-10 0 -25 6q-47 -8 -73 -10q-63 -8 -84 -23l-23 -8l-22 12q-12 10 -35 11q-16 0 -29 -2q-6 -2 -18.5 -2 t-18.5 -2q-4 -10 -24 -23l-2 -2h-5q-33 -12 -81 -12q-43 0 -80 8q-41 6 -47 14q8 10 13 21.5t5 15.5v6l2 2v25q-23 -23 -45 26l-4 7v6q0 4 -1 11t-1 11q-12 104 -6 140z" />
<glyph unicode="8" d="M84 1130l2 3q8 18 23 26v23v14l10 8q18 23 62 68t48 49q14 25 39 25h8q51 63 162 106q2 2 60 27l10 6h12q141 -12 248 -80q61 -39 92 -84q6 25 23 39q10 39 49 39q20 0 29 -4q2 0 6 -2l34 6l9 -33q23 -63 59 -111l10 -12l-2 -16q-4 -20 -9 -41t-10 -36t-14.5 -34.5 t-14.5 -30t-17.5 -31t-15.5 -26.5t-17 -26.5t-16 -24.5q-53 -74 -70 -109l-6 -14l-13 -4q-68 -35 -86 -84l27 -35q12 -18 76 -67q80 -53 108 -99q47 -70 29 -174q8 -49 0 -90q-12 -63 -51 -78q-33 -90 -129 -162q-74 -53 -199 -102l-12 -6l-10 2q-25 4 -84 4q-160 4 -221 74 l-41 2l-9 33q-2 14 -34 57q-53 74 -45 108q4 12 8 19q-2 61 -4 91t15 79t27.5 71.5t34.5 69.5q2 2 5.5 8.5t5.5 8.5l12 22h3t6 1t8 5t6.5 13.5t1.5 23.5q8 0 13 3t5 7v4q-25 8 -39 9q-10 0 -14 -2l-45 -7l-11 41q-4 4 -53 33q-4 2 -13 5t-13 5l-7 5l-6 6q-141 168 -55 376z M285.5 1025.5q-9.5 -44.5 5.5 -79.5q23 -66 76 -65h14l14 2l13 -6q66 -35 98 -35q18 0 31 6q8 4 18 18q37 41 70 56l12 24l25 6q6 4 16 29q25 43 29 47q-10 10 -15 27l4 32q25 0 39 33q-6 6 -10 6q-2 0 -10 5.5t-13 9.5l-12 12v14q0 51 -53 72l-16 -14q-16 -18 -41 -19 q-31 0 -48 33h-2q-16 -4 -26 -4q-8 -8 -10 -15.5t0 -11.5l2 -4l-25 -6q-6 -2 -16 -2q-18 0 -27 6q-4 -2 -10 -8q-70 -53 -76 -80l-2 -16l-12 -8q-33 -20 -42.5 -64.5zM428 268q0 -20 16 -37q33 -37 119 -36q27 0 41 2q59 43 107 45q16 29 57 73q51 51 59 86q10 51 -14 80 q-29 41 -106 54l-17 4q2 14 -12 16h-4q-14 0 -19 2q-16 4 -26 -8q-2 14 -9.5 21.5t-13.5 7.5h-4q-27 -6 -41 -21q-23 -16 -22 -27l2 -16l-11 -12q-16 -18 -34 -23q0 -8 -2 -12q-4 -31 -13 -47q-12 -27 -26 -35q0 -4 -1 -14.5t-1 -16.5q-5 -57 -25 -86z" />
<glyph unicode="9" d="M74 815q-41 160 2 225q-12 117 74 234q68 88 163 147q96 61 183 74q66 14 106 14q98 0 158 -53q6 2 20 2h8l31 -2l4 -31q0 -27 54 -75q53 -47 98 -70l18 -10v-21l-2 -32q2 -8 9.5 -11.5t15.5 -3.5h6l-14 -39q-20 -39 8 -176q16 -72 20 -115q2 -14 -10 -71q-6 -25 -6 -39 q0 -10 4 -35q8 -41 4 -59q-4 -31 -24 -50q0 -162 -117 -319q-12 -74 -45 -123t-94 -104q-2 -37 -35 -76q-23 -27 -58 -43q-16 -12 -20 -16l-12 -13l-19 2q-82 10 -135 44t-63 122l-3 21l19 14q70 49 138.5 149.5t103.5 174.5l32 75q-6 16 -8 29q-4 10 2 17.5t19.5 24.5 t21.5 42q-29 -27 -82 -45q2 -18 -16 -35l-15 -2q-55 -14 -63 -35l-8 -22q-23 -4 -45 0q-25 -20 -62 -21q-25 0 -53 8q-4 0 -12 1t-10.5 1t-2.5 -2q-2 0 -6 -3t-6 -5q-14 -10 -28 -10h-5q-68 10 -141 92q-35 43 -61 57l-21 15v24q8 53 -20 158zM318 897.5q8 -98.5 42 -143.5 q20 -27 54 -33q55 25 100 55.5t67.5 52t63.5 64.5q10 10 33 34t35 36q18 59 19 128.5t-25 131.5q-18 35 -45 43q-10 2 -29 2q-49 0 -119 -35q-4 -2 -13 -6t-14 -6q-63 -33 -73 -39q-4 -4 -41 -58q-23 -47 -49 -67q-14 -61 -6 -159.5z" />
<glyph unicode=":" horiz-adv-x="681" d="M150 834v20q0 98 73 178q76 82 160 82q92 0 137 -100l4 -10l-2 -13q-2 -12 -2 -57q0 -37 -6 -55q-6 -20 -33 -41q-16 -76 -47 -97q-21 -12 -37 -12q-25 0 -41 19q-29 -8 -45 -9q-51 0 -118 60q-4 4 -13.5 12t-15.5 12zM162 150l6 12q4 10 12 43q12 49 21 71q27 49 78 50 h6q33 23 65 22q18 0 78 -18q16 -8 27 -11l16 -4l4 -14q41 -78 -2 -197q-14 -47 -14 -55v-24l-25 -11q-20 -8 -43 -22q-69 -39 -108 -39q-41 0 -80 35l-10 14l2 16q2 12 -15 64q-2 4 -16 55z" />
<glyph unicode=";" horiz-adv-x="681" d="M145 104q0 78 41 127q12 16 45 35q2 2 9 6l8 4q18 20 59 41q53 31 90 31q14 0 21 -2q39 -8 63 -47q20 -29 27 -72q8 -53 4 -147v-4q0 -23 -18 -64q-12 -20 -15 -32q-2 -2 -2 -17q-6 -53 -14 -72q-4 -8 -10.5 -15t-13.5 -14t-11 -12q-14 -8 -18 -18q-2 -4 -15 -33 q-4 -31 -16 -45q-59 -76 -129 -76q-29 0 -55 19l-33 27l26 30q47 57 66 197q-23 12 -43 14l-14 2l-11 13q-37 49 -41 124zM150 834v20q0 98 73 178q76 82 160 82q92 0 137 -100l4 -10l-2 -13q-2 -12 -2 -57q0 -37 -6 -55q-6 -20 -33 -41q-16 -76 -47 -97q-21 -12 -37 -12 q-25 0 -41 19q-29 -8 -45 -9q-51 0 -118 60q-4 4 -13.5 12t-15.5 12z" />
<glyph unicode="&#x3c;" horiz-adv-x="1196" d="M12 696q6 55 26.5 95t58.5 65t64.5 37t71.5 29q92 29 123 59l6 8l11 2q100 27 348 142q219 111 375 155l39 6l10 -39q2 -8 14 -30q31 -55 23 -103l-2 -18l-17 -10q-49 -31 -119 -62q-119 -55 -153 -90l-8 -8l-9 -4q-80 -27 -256 -115q-59 -35 -182 -92q0 -10 -12 -18 q37 -25 117 -60q92 -45 108 -57q16 -8 35 -21q51 -37 88 -37h2h17l12 -14q12 -14 94 -45l18 -27q76 -20 158 -116l12 -17l-6 -18q0 -10 -6 -17q8 -16 8 -28l2 -27l-24 -12l-29 -14q-39 -16 -63 -39l-25 -17l-24 15q-18 16 -48 28q-78 39 -100 80q-78 20 -182 82 q-86 45 -144 66l-8 2l-4 4q-47 37 -168 86q-127 55 -172 86l-10 8l-6 22l-23 5q-16 8 -18 30q0 10 -7.5 11.5t-11.5 -2.5z" />
<glyph unicode="=" horiz-adv-x="1196" d="M29 895q-4 41 8 90q2 8 6 29l8 39l37 -6q14 -4 45 -5q41 0 102.5 14.5t110.5 14.5q31 0 60 -6q37 16 69 16q39 0 100 -24q49 12 105 12q74 0 156 -18q25 14 53 14q25 0 59 -10l6 10q45 25 78 -29q6 -2 14.5 0t10.5 0q6 -2 9 -10t3 -16l2 -9q2 -10 -2 -26q27 -12 29 -51 l2 -15l-10 -12q-4 -4 -12.5 -11t-10.5 -9q-10 -8 -10 -17l-4 -31l-29 -4q-80 -12 -160 -12q-63 0 -225 18q-143 14 -184 15q-39 0 -56 -2q-6 -4 -34 -15l-11 -8l-14 4q-2 2 -6 2q-10 4 -43 4h-35q-12 -2 -43 -2q-96 0 -162 37l-20 8zM55 391q-25 76 0 123q20 35 80 57l2 2 q29 47 115 48h16h17q35 0 43 4l28 8l31 -21q12 -4 16 -8q102 18 349 35q283 25 352 35l31 2l10 -23q2 -4 5 -11t3 -9q66 -127 14 -195l-10 -10l-12 -2q-127 -33 -500 -53q-150 -8 -223 -15q-23 -2 -60 -14q-41 -16 -59 -16q-33 0 -57 24q-2 -2 -10 -2q-37 -8 -64 -8 q-59 0 -100 31l-13 8z" />
<glyph unicode="&#x3e;" horiz-adv-x="1196" d="M35 305q-2 45 29.5 98.5t78.5 65.5q25 31 65 61.5t54 34.5q-4 6 -4 11.5t4 9.5l2 2l90 39q55 25 125 65q115 70 205 92q0 2 2 2q-55 20 -63 23q-190 68 -312 82l-10 2l-10 10q-20 18 -90 47q-104 39 -146 92q-2 2 -4 6.5t-6 14.5t0 14q12 0 18 17q4 18 0 30q-6 25 -4 50 q6 41 47 53q12 4 21 4q41 0 111 -45q2 0 9 1t11 1q63 0 102 -49q39 -2 95 -27h10q31 0 70 -29q2 0 5 -2l6 -4t5 -2q16 -8 29 4q2 -8 8 -14t10 -8l6 -2q2 0 6 1t6 1q4 0 14.5 1t16.5 1h15q20 -2 24 -4q0 -6 2 -11.5t4 -7.5l4 -2q25 -6 33 -10q4 0 8 1t8 1q8 0 15.5 -1 t16.5 -3t16 -2q25 -6 47 -6q47 0 57 4q2 -10 8 -15.5t13 -7.5h4h2q8 0 16 2q14 2 29 0q0 -6 4 -13t8 -9l4 -4q0 -2 35 -8q25 -4 35 -9l26 -6l2 -26q2 -20 31 -45q53 -53 49 -107l-10 -41h-2q-2 2 -6 4t-8 -2q-6 -2 -8.5 -6t-2.5 -8v-2l-22 -10q-326 -137 -610 -320l-7 -6 l-2 -4q-2 -8 -7 -15.5t-9 -10.5t-15.5 -9t-15.5 -10q-18 -14 -14 -29q0 -2 -6 -9t-12 -13l-7 -5q-8 -8 -17 -16t-16.5 -13t-17.5 -9.5t-15 -6.5t-17.5 -4t-15.5 -3t-16.5 -3t-15.5 -2q-43 -4 -82 -18l-43 -4l-10 30q-2 0 -8 6l-4 5h-15q-31 0 -50 19t-21 50z" />
<glyph unicode="?" horiz-adv-x="1251" d="M106 1133l3 12q10 104 73 201q78 111 191 133q10 4 37 4h20h19q16 0 22 2q-4 25 6 31l45 -5h6q4 -2 11 -2q27 0 75 13q45 10 68 10q35 0 49 -19q88 -10 154 -43q84 -37 147 -106q117 -123 111 -272l-2 -48l-19 5q0 -2 1 -7.5t3 -7.5q16 -82 -2 -127v-2h-2 q-27 -61 -82 -117.5t-95 -83t-111 -69.5l-13 -6l-12 2h-8q-63 0 -94 -58q-27 -47 2 -96l6 -10v-12q0 -4 -2 -11q20 -37 16 -75l-4 -17l-12 -10q-4 -2 -21 -8l-4 -2l-8 -15q-8 -12 -21 -14q-8 -2 -17 0t-15 4l-4 4q-6 0 -19 -4q-25 -8 -37 -8q-4 0 -8 1t-6 1q-23 6 -29 18 q-8 -6 -20 0q-6 2 -9 12.5t-3 18.5v8q-4 35 -27 58l-8 10v10q-20 129 8 215q33 92 135 166q18 20 58 54t71 47q4 2 10 6t11 6q39 39 86 59q33 39 47 91.5t4 97.5q-16 63 -80 84l-8 4l-6 4q-10 14 -11 16h-6q-10 2 -28 2q-8 0 -17 -2h-8l-8 -24l-31 6q-16 2 -49 2 q-86 0 -164 -45q-74 -45 -90 -113l-8 -33h-8q-2 -4 -4.5 -12t-5.5 -15.5t-5 -15.5l-12 -32l-27 8q-18 -14 -37 -15q-6 0 -10 2h-8l-8 9q-14 8 -27 14q-4 2 -24.5 15.5t-30.5 23.5q-23 20 -27 37q-14 8 -26 22zM446 63q-18 63 29 127q43 55 109 72h6h8q41 -4 70.5 -21.5 t48 -50t25 -48t16.5 -46.5q2 -2 2 -6l4 -47q-2 -4 -6 -6t-8 -2h-2q-2 -4 -3 -10q-10 -23 -28 -33q0 -18 -4 -23l-29 -10q-14 -2 -43 -2q-68 0 -125 26.5t-70 79.5z" />
<glyph unicode="@" horiz-adv-x="1996" d="M44 576.5q-1 48.5 10.5 97.5t21.5 79.5t28 82.5q39 98 48 157l4 23l22 8q45 18 107 96q2 2 12 14.5t13 16.5t12.5 14.5t14.5 15.5t14 13t15.5 13t16.5 11.5t19.5 10.5t19.5 6v8l-2 6h-2q-2 2 -4 5t-4 6.5t-2 9.5t4 12l47 10q25 4 90 41q94 55 156 62v6l4 26l28 7 q10 4 37 4h23h16q18 0 21 6q6 23 14 26l31 -2q10 -2 23 -6t18 -4l2 2q2 2 5 6t12 9.5t15.5 5.5t13.5 -6.5t11 -12.5l2 -6q2 -2 8 -2q8 0 25 4q12 4 18 4l8 8q35 25 60 25q23 0 39 -16q12 4 12 20l35 -4q25 -8 43 -8q8 0 14 2h23q16 0 26 -2h6l7 16l38 -20q10 -6 48 -15 q51 -10 73 -20h11q20 0 49 -16q25 -12 32 -13q4 0 7 2q23 4 28 9q8 -4 13.5 -14.5t5.5 -18.5l2 -8q12 0 18 -3l10 -2l7 -6q43 -35 104 -75q61 -45 89 -67t71 -70t69 -103l2 -6v-4q4 -18 0 -31l9 -8l22 -27q-2 0 -4 -2t-4 -7t0 -11q0 -4 4 -9.5t8 -7.5l4 -2q0 -25 -22 -39 q20 -47 16 -161q-4 -68 0 -82l2 -4v-7q0 -31 -12 -39q0 -35 -20 -67q-8 -12 -13 -17q-4 -6 -3 -14t3 -18l2 -8q-4 -16 -18 -25q6 -41 2 -59l-2 -23l-21 -8q-39 -16 -53 -41q-10 -20 -20 -33l2 -4l-15 -47q-14 -43 -49 -43q-12 0 -20 6q-16 -23 -21 -45l29 -6q2 0 4 -2t4 -2 q86 -23 96 -80l11 -45l-7 -6q0 -20 -10 -33l-18 -27l-13 -2l-6 -6q-6 -27 -53 -51q-12 -4 -18 -10l-15 -11q-2 -16 -16 -28l-25 -23l-24 17q-2 0 -6 -1t-9 -1q-4 -20 -14 -35q-16 -20 -41 -21q-6 0 -18 4q-6 -8 -17 -12q2 -2 5.5 -6t8.5 -14.5t-1 -16.5l-45 -8 q-2 -2 -7.5 -2t-9.5 -2q8 -18 0 -33l-51 12h-12q-27 0 -66 -47q-4 -4 -4 -6q-20 -33 -33 -39q2 12 -5 21.5t-15 11.5l-8 2q0 2 -2 2t-4.5 -2t-6.5 -7t2 -13l-32 -7q-74 -18 -86 -34l-19 -25l-28 12q-29 8 -48 9q-14 0 -26 -7q-8 -29 -23 -32q-8 -2 -16 2t-12 8l-7 4 q-23 -23 -53 -27q0 2 -2 4t-7 4.5t-11 2.5l-27 -5q-23 4 -88 15q-84 12 -127 18l-35 4q12 29 -16 43q-12 -6 -31 -6q-14 0 -22 2l-27 6l-4 27q-2 12 -31 14q-4 2 -8 2l-57 11q6 4 6 14q0 4 -4 4h-9.5t-7.5 2q-23 29 -26 -2l-19 47q-4 12 -16 17q-29 10 -43 28q-8 12 -15 29 h-18l-12 18q-18 29 -78 88q-41 41 -62.5 67t-42 72t-16.5 91q-16 23 -43 94q-20 55 -24 63l-9 15l6 20l-14 17l4 18q2 14 2 39q-4 25 2 53q-12 47 -13 95.5zM342 676q-25 -88 18 -311q20 -115 25 -152q37 -37 29 -80q76 -94 196 -184q129 -96 191 -96h2h8l10 -5 q35 -16 152 -16q39 0 53 -2h31q145 0 241 68l9 6h10q90 10 199 104q106 90 184 103q2 4 8 10q10 10 27 18l-19 2h-4q-4 0 -8 -2h-4l-6 -26l-25 -4q-6 -2 -16 -3q-8 0 -13 3q-68 -74 -192 -74q-25 0 -37 2q-2 0 -2 -2q-16 -23 -41 -29l-6 -2h-8q-37 2 -68 19.5t-43 32 t-33 42.5q-18 27 -39 45q-47 -53 -170 -108q-78 -37 -92 -53l-14 -15l-18 4q-6 0 -17.5 1t-15.5 1q-121 12 -182 35l-15 6l-6 11l-18 30q-45 72 -70 86l-14 11l-7 16q-10 41 -18 135q-4 49 -8 74l-6 43q-12 70 -11 104q0 29 54 142q25 51 28 67q12 45 43 72q14 86 105 141 q45 25 67 58l15 18l24 -2h4q23 0 72 37q53 45 92 45q8 0 29 -4q39 12 80 12q90 0 188 -84q2 -2 8 -2q147 -27 177 -141l4 -13l-4 -12q-4 -10 -11 -31q-4 -23 -10 -32q0 -2 1 -10.5t1 -12.5q0 -16 -12 -61q-12 -37 -14 -62l-7 -43q-6 8 -16 8l-8 -6q0 -10 8 -24q18 -39 6 -66 q-6 -16 -16 -22l10 -35v-8q-6 -35 -43 -99l-18 -30q2 -2 2 -7q2 -2 2 -4h8q16 0 74 21q8 2 22 7t19 7q8 8 14 12q4 16 -2 31q2 4 12 8t19 7h10h4q10 0 22 -5q4 2 11.5 8.5t11.5 10.5q90 72 123 129q-8 18 0 37q8 20 28 28q29 123 23 200t-31 122q-47 92 -156.5 170 t-252.5 96q-6 0 -23 4q-43 6 -51 6h-6l-15 -10l-20 6q-31 10 -68 11q-47 0 -65 -13l-12 -12l-19 2q-14 2 -37 2q-43 0 -84 -20q-49 -23 -96 -29q-49 -41 -135 -74q-43 -18 -64.5 -29.5t-47 -35t-40.5 -54.5l-4 -12l-10 -6q-49 -31 -115 -164q-35 -70 -55 -98zM776 362 q2 -4 8.5 -11t8.5 -11q16 -21 22 -31q4 0 11.5 -1t9.5 -1q109 0 229 101q-8 12 -6 26q0 23 18 41l10 8l7 2l4 7l6 6q12 16 20 22q6 45 31 133q39 117 29 189h-10q-47 0 -91 -6l-43 -15l-8 -16l-18 -4q-78 -18 -134.5 -74.5t-50.5 -144.5v-21l-14 -12q-16 -16 -27 -66 q-8 -33 -8 -67l27 -25z" />
<glyph unicode="A" horiz-adv-x="1478" d="M6 125l17 12q0 20 10 39q4 2 6 4q0 2 -3 8.5t-5 10.5q0 27 20 47l6 6q-1 7 -1 15q0 44 32 77q2 29 25 55q4 6 18 21q-6 13 -6 33q0 23 8 55q6 23 6 45q0 13 -2 27l-6 24l19 17q8 6 16 6q4 16 -6 35q8 4 22.5 5t24.5 1l10 -2l2 2q4 14 21 32l-2 5q-4 14 -21 22 q-2 8 3 15.5t13 11.5l7 2l4 10q4 10 8 12l-8 37l26 2q2 25 19 68q8 16 21.5 27.5t21.5 13.5l10 4v4q0 27 2 39q8 20 18 28q-1 9 -1 17q0 46 38 76l9 6h16q-10 27 0 35l18 -2q0 2 3.5 4t3.5 4q-8 23 0 37q6 -2 11 -2t7 2l4 2v32l4 19l21 10q59 29 77.5 47.5t42.5 75.5l9 22 l14 3q-6 14 0 26l27 12q35 10 63 11q68 0 174 -64q16 -18 21 -24l-2 -29l-2 -6q0 -2 4 -10q12 -31 10 -52q49 -74 98 -200q47 -125 98 -193q6 4 33 8q10 0 17 2l28 -4l15 -20q0 -6 37 -10l38 -5l5 -24l16 -4l10 -37q3 -13 3 -26q0 -55 -62 -101q-25 -20 -27 -27t-2 -14 q0 -49 70 -129l10 -10v-17q2 -27 39 -104q47 -76 49 -141q0 -8 3 -16.5t9 -19.5t9 -20q26 -45 26 -86q0 -45 -31 -86l-8 -14l-18 -4q-2 0 -4 4l-4 2q-2 -2 -4.5 -9t-6.5 -9h-4h-4q-16 -4 -20 -4.5t-12.5 3t-10.5 3.5t-6 -5.5t-6 -5.5l-19 -14q-92 92 -174 309q-4 12 -18 46 t-23 53q-20 18 -55 102q-41 86 -55 100q-68 -16 -131 -43q-162 -57 -254 -69q-18 -18 -19 -23q0 -14 -8 -14l-24 2h-7q-72 0 -110 -27l-2 -22l-47 -49q0 -2 -4 -7l-5 -4q-4 -6 -14 -16q-4 -4 -6 -8q-12 -27 -25 -84q-10 -47 -18 -75t-25.5 -66.5t-44 -60t-63.5 -30.5l-39 -4 l-14 33q-4 10 -37 43q-51 51 -66 90zM494 670l8 -8h2q226 77 317 77h2q18 0 25 -4q27 25 65 31q-10 29 -67 125q-59 100 -72 151q-10 6 -20 21q-8 20 -11 29q-29 -57 -67 -62q-51 -70 -98 -172q-43 -86 -68 -131q-8 -18 -10 -37q0 -4 -2 -10t-4 -10z" />
<glyph unicode="B" horiz-adv-x="1478" d="M111 1186q-2 137 106 223q-12 27 -6 43q6 23 27 29q41 10 55 10q39 0 76 -21q6 0 24.5 2.5t33.5 3.5t26 3q115 20 170 20q59 0 151 -20l10 -4l13 -11q4 -8 30.5 -15t49.5 -7h8l6 -2q84 -35 188 -121q43 -33 58 -43l8 -8l4 -15q14 -47 16 -69q16 -68 27 -97l10 -16 l-10 -14q-2 -6 0 -27q6 -14 6 -39q0 -63 -76 -151q-25 -29 -32 -43q25 8 45 8h4h14l10 -12q18 -16 56 -31q80 -33 139 -119v-4v-2q32 -75 32 -149q0 -81 -38 -162q-70 -143 -213 -207l-4 -4q-4 -6 -9 -11q-4 -10 -16 -22l-8 -4l-4 -4q-295 -129 -447 -129q-55 0 -110 16 q-6 -2 -18.5 -2t-22.5 -4l-29 -6l-16 24h-4h-5h-12q-20 0 -31 4q-111 33 -182 117q-72 86 -71 211v39h26l6 14l31 -2q63 -2 104 -30l9 -4l4 -7q-4 78 -8 117q-38 386 -38 599q0 30 1 56v15v47q-8 -14 -27 -29l-22 -16l-23 12q-14 8 -31 21q-14 12 -30 12h-39zM477 1247 q33 -113 33 -315q0 -84 6 -172q18 4 49 18q55 18 82 19q16 0 35 -6q2 2 6 5t6 5q35 22 62 22h2q6 0 26 -4l50 37q37 25 55 39t39.5 37.5t28 46t5.5 55.5t-18 72q-20 8 -84 63q-27 35 -47 45q-53 31 -139 31h-33q-8 0 -18.5 -1t-16.5 -1q-39 0 -82 6q-14 -2 -35 -2h-12z M571 530q-1 -10 -1 -22q0 -67 20 -184q22 -90 24 -158q2 0 4 -2h3q6 2 18 8l12 6l13 -2q6 -2 22 -2q51 0 166 51q100 43 139 49q18 20 60 50q51 33 67 67q6 14 6 27q2 12 13 35q-35 82 -117 122h-51q-31 2 -82 3q-166 0 -316 -48z" />
<glyph unicode="C" horiz-adv-x="1478" d="M66 716q8 66 34 122q14 25 35 36q2 16 2 52q2 49 5 76.5t23.5 71.5t59.5 73v45l21 12q27 14 71 68l22.5 22.5t27 24.5t24 19.5t30.5 20.5t32 11q14 43 65 76q25 14 35 29l8 10l17 4q8 2 24 2h14q14 16 25 18q18 8 49 9q20 0 74 -15q31 -10 45 -10q8 0 14 6l15 12h16 q115 -4 231 -112q2 2 11 6q4 4 8 4l10 6l12 -2q57 -8 88 -58q27 -44 27 -100v-14q-4 -51 -29 -84q-29 -47 -82 -47h-14q-27 2 -46 22.5t-50 63.5q-2 4 -18.5 26.5t-26.5 30.5q-18 18 -26.5 18.5t-12.5 -3.5l-12 -8h-15q-57 4 -90 34q-20 2 -47 2q-35 0 -78 -26 q-8 -4 -24 -17v-2l-6 -28l-23 -15q-78 -25 -195 -198q-121 -192 -121 -361q0 -26 3 -51q23 -166 71 -276q68 -150 172 -150q14 0 23 2q20 4 35 4q227 35 303 76q4 2 12 9t12 11q33 33 41 37q16 10 35 11q2 0 6 -3h4h7l2 3q14 14 20 22q63 63 113 82q12 6 33 6q12 0 16 2 q6 2 41 23q59 35 94 35q10 0 31 -5q29 -4 39 -30q0 -2 2 -4t2 -4h2l14 -29q5 -14 5 -28q0 -31 -25 -60q-6 -4 -62 -51q-51 -31 -82 -66q-121 -143 -264 -192q-6 -2 -18 -3h-13q-2 -2 -8 -6q-31 -20 -67 -30q-8 -2 -24.5 -7.5t-25.5 -7.5q-144 -43 -210 -43q-35 0 -66 6 q-315 63 -438 320v4l-2 2q-2 4 -7.5 20.5t-7.5 26.5q-29 94 -40 135t-27 126q-11 58 -12 108q0 22 2 42z" />
<glyph unicode="D" horiz-adv-x="1478" d="M66 1262q-5 28 -4 53q0 37 10 67l6 23l18 6q39 18 47 25q121 49 195 49q45 0 78 -8q8 16 22.5 23t24.5 7l10 -2l23 -14l16 14l18 -4q12 -6 15 -6q25 -6 57 -12q2 2 8 2q39 16 70 16q16 0 27 -2q6 -2 11 -5t7 -6t4 -3l14 -10h2q14 0 25 2h31q39 0 63 -19h6h11 q61 -6 149 -110q12 -6 19 -11q127 -61 172 -137q74 -33 96 -174q2 -2 6 -2t8 -2q23 -2 31 -12q-4 -4 -5 -11.5t-1 -13.5l2 -6l2 -4q0 -2 2 -5t2 -7q14 -14 18 -31q0 -2 2 -6v-4q12 -16 13 -21l6 -14l-2 -15q-6 -16 4 -59q9 -39 9 -71q0 -38 -13 -64q3 -17 3 -33 q0 -35 -12 -73q-18 -54 -39.5 -83.5t-64.5 -78.5q-61 -82 -69 -97l-11 -16l-14 -4q-96 -25 -207 -139l-26 -31q-4 10 -10.5 14t-12.5 2h-4q-14 -18 -37 -18q-29 -41 -113 -53q-10 -4 -29.5 -15.5t-27.5 -15.5q-92 -59 -137 -76q-6 -25 -25 -43q-18 -24 -53 -24q-55 0 -94 45 q-14 2 -39 16q-14 8 -21 8h-2q-12 -2 -41 4l-4 35l-16 2q0 16 -6 59q-11 45 -11 80q0 18 3 33q12 61 71 88q0 215 -30 406q-4 29 -13 59q-20 70 -22 111q-6 68 -6 139q0 143 -13 186q-2 0 -7 -1t-7 -3q-47 -22 -83 -22h-3q-20 0 -41 6l-8 2l-8 8q-33 37 -45 107zM492 1225 q37 -455 61 -580q35 -127 35 -262q0 -51 2 -78q2 2 8 2q10 6 43 8q29 37 117 52q47 8 65 20q4 2 13.5 11.5l13.5 13.5q23 31 39 43l18 12q37 27 57.5 41t49 38.5t45 42t36 42t27.5 48t16 53.5q7 26 6 56v8q-1 34 -9 70q-29 51 -138 215q-125 88 -372 150q-4 -6 -10.5 -10 t-10.5 -4h-4l-12 2q-4 0 -10.5 1t-8.5 1q-23 8 -47 8q-18 0 -30 -4z" />
<glyph unicode="E" horiz-adv-x="1366" d="M59 1251q-11 32 -11 57q0 29 15 48q16 27 50 26q14 0 26 -6q96 -35 172 -35q27 0 39 2q80 8 320 54q197 41 317 49h4h2q41 -2 66 -21q20 -6 26 -6h7l36 -4l7 -37q0 -4 10 -14q2 -2 8 -10t10 -15l11 -12l-7 -20q-14 -37 -55 -56q-20 -12 -20 -18l-5 -41l-38 2h-11 q-12 0 -30 -6q-12 -6 -21 -8l-22 -6l-13 14l-18 -10q-66 -2 -139 -35l-25 -10l-12 14q-2 0 -7.5 -2t-7.5 -4q-45 -10 -55 -13q-4 0 -17.5 -1t-21.5 -1q-10 0 -28.5 1t-26.5 1q-14 2 -45 2h-27q-8 -2 -51 -16q-51 -24 -91 -24h-3q-12 0 -21 2h-10l-8 8q-4 4 -8 4q2 -6 8 -51 q0 -18 2 -25l6 -6l10 -10q8 -10 13 -19q6 -20 6 -59q0 -27 2 -37q6 -41 18 -76q2 -16 11.5 -60t13.5 -67q31 4 104 21q59 16 119 22q18 0 55 4q49 4 74 9q8 2 23.5 6t23.5 6q86 20 127 20q102 0 144 -90l6 -33l-25 -20q-2 0 -2 -2q-4 -2 -4 -49l-2 -23l-16 -12 q-104 -61 -367 -90q-115 -12 -170 -23q-51 -8 -72 -26q8 -20 4 -49l21 -23l-17 -47q-2 -2 -2 -4q0 -6 5 -15q12 -41 10 -53q25 -6 53 -6q61 -4 82 -18q119 29 285 37q127 8 213 23t163 58l9 5h10q35 -2 63 -35q10 -10 15 -11l32 -20l-4 -43q-8 -8 -2 -27q10 -33 -4 -53 q-12 -23 -26 -29v-2q-2 -8 -9 -24l-4 -8q-4 -8 -8 -19l-8 -16l-21 -4h-8q-8 0 -20 4q-8 -18 -15 -25l-16 -22l-25 10q-4 2 -14 2q-20 0 -57 -10q-49 -12 -78 -13q-23 0 -33 5q-45 -33 -133 -33h-37h-35h-4q-27 0 -75 -4q-53 -4 -74 -4t-29 2h-6q-6 0 -13.5 -1t-16.5 -3 t-15 -2q-45 -9 -72 -9h-18q-39 4 -109 21q-59 16 -100 22h-25l-8 27q-39 115 -39 369q1 32 1 62q0 119 -13 198q-2 4 -6 9t-6 7l-11 27q-6 176 -129 581z" />
<glyph unicode="F" horiz-adv-x="1251" d="M100 1194q-17 26 -17 65q0 47 26 111l8 21l20 4q23 4 37 12q29 14 68 27l8 2l10 -2q10 -2 27 -2q37 0 104 41q12 8 19 10q23 14 32 14q2 -10 7.5 -19.5t9.5 -15.5l4 -4h10q20 0 25 8l8 15l16 2h13q25 0 40 -15q25 10 68 11q39 0 51 12l15 14l20 -4q35 -8 96 -8q55 0 84 2 t90 2h25q18 6 39 6q86 0 104 -59q6 -23 2 -35l19 -4q12 -10 12 -37q0 -31 -26 -53q0 -14 -9 -29q-25 -49 -141 -53h-6q-18 0 -39 16q-6 -4 -27 -4q-10 0 -34 4q-4 0 -10.5 1t-10.5 3l-4 -2q-4 -2 -6 -4q-27 -16 -45 -16q-4 -2 -11 -2q-16 0 -40 4q-6 0 -16.5 1t-14.5 1 q-10 0 -31 -4q-45 -10 -111 -14q-80 -12 -88 -17q-2 0 -2 -6q0 -2 -1 -3t-1 -3q-2 -4 -9 -14.5l-11 -16.5q-7 -90 -7 -164q0 -123 19 -202l8 -5l9 13l12 2q10 2 29.5 5t29.5 5q92 14 146 29l2 2q29 35 59 35h6q4 -2 10 -3q16 0 62 9q20 2 65 6l39 2l4 -6v-33q2 -2 9 -6 q20 -10 39 -27l18 -16l-8 -25q-14 -43 -42 -75.5t-55.5 -52t-76.5 -38t-76 -25.5t-84 -20q-117 -23 -168 -49q2 -8 12 -92q31 -254 92 -334l13 -18l-6 -23q-2 -4 -4.5 -14t-2.5 -12q-16 -68 -57 -84q-12 -2 -27 -4l-34 4q-78 27 -129 194q-35 115 -60 258q-4 29 -8 39l-6 -2 q-6 -2 -10 0l-4 8q-4 8 -7 8l-14 -12l-29 25q-61 38 -61 88v8q-23 37 -25 65v8q0 29 13 83l6 28l29 2q10 0 12 2q41 0 55 9q-12 90 -12 202q-4 139 -12 191q-10 -4 -33 -4q-29 0 -49 12q-25 -8 -33 -8q-25 0 -35 18q-2 2 -2 4q-18 8 -27 27z" />
<glyph unicode="G" horiz-adv-x="1593" d="M70 692q0 8 2 24.5t2 26.5q8 168 55 222q-4 14 2 51q6 23 4 39l-6 32l31 13q43 12 49 57l4 25l23 6q55 18 71 100q8 31 15 47q8 6 15 6t11 -4l6 -4q20 37 62 37q6 31 12 41l12 23h25q4 0 9 2t7 2l15 16l45 -12q6 -2 14 -2q27 0 43 30l6 19l19 4q158 41 284 49l15 -16 q35 -2 47 20l32 -43q6 -16 50 -41q2 -2 14 -10t17 -11t14.5 -10.5t13.5 -13.5t9 -15t7 -20q2 -7 2 -15q0 -26 -22 -56l-8 -11l-13 -4q-53 -14 -122 -14q-80 0 -121 18q-33 -4 -84 -22q-49 -18 -88 -27l-2 -2q0 -4 -2 -4q-2 -4 -11 -12l-6 -8l-8 -4q-82 -43 -207 -193 q-86 -102 -98 -313q-2 -35 -2 -67q0 -174 63 -271v-2q31 -53 68 -89t85 -52.5t80 -22.5t91 -12q6 0 14 -1t10 -1q8 18 27 26l19 8l18 -10q2 -2 4 -2q6 0 18 4q25 8 39 8q8 0 21 -4q68 43 147 60q0 20 6 32q12 27 39 37q-4 27 -8 84q-8 109 -35 158l-14 27l23 20q8 8 14 31 h-10q-98 0 -252 -94l-21 -11l-22 13q-14 10 -76 18q-41 4 -59 10l-23 6l-6 23q-4 16 -4 33q0 22 6 47q8 35 -2 63l-6 25l18 16q90 80 326 84v6l4 35h33q20 2 71 15q66 14 109 14q20 0 31 -2q53 14 63 14q6 0 19 -4q2 0 11 2t23.5 6t32.5 9l27 6l16 -25q4 -6 10.5 -6t10.5 2 h14q33 0 49 -18q12 -16 14 -29q0 2 1.5 5t4.5 7t9 -4q6 -6 10 -20.5t4 -24.5l2 -12q0 -72 -51 -107q-33 -20 -92 -33q-59 -14 -64 -24q-3 -5 -3 -14q0 -19 14 -56l2 -6v-8q0 -4 1 -18.5t1 -22.5q4 -57 4 -94q33 -6 39 -43l2 -6l-2 -7q-2 -12 -6 -45q-12 -116 -12 -163 q0 -15 1 -23l4 -14l-8 -13q-51 -88 -155 -125q-61 -18 -99 -49l-16 -14l-21 8h-2q-20 0 -58 -18.5t-60 -36.5l-13 -8l-16 2q-45 4 -148 4q-170 0 -247 18q-127 27 -191 117q-53 12 -108 94q-41 55 -60 66l-12 4l-4 14q-56 145 -56 318q0 54 5 110z" />
<glyph unicode="H" horiz-adv-x="1478" d="M84 1296q-4 35 4 43l37 -2q12 8 27 11l12 4l10 -6q121 -45 170 -138l6 -12l-6 -16q-14 -41 -16 -81t14 -59l23 -20l-15 -23q-6 -11 -6 -38q0 -32 8 -85t10 -75h3q6 0 88 16q78 25 110 25q20 0 39 -6q31 12 62 12q18 0 43 -4q33 -4 47 -4q6 0 30 4q35 8 62 18 q57 18 123 25q0 92 -6 184q-5 76 -5 146q0 167 27 303l6 30h33h2q45 0 156 -51l20 -10l2 -19q10 -63 15 -235q0 -229 41 -356q20 0 38 -21l2 -4l5 -4q15 -24 15 -52q0 -36 -24 -79q-20 -43 -18 -60q0 -23 35 -104q37 -68 45 -113q8 -27 10 -49q25 -111 25 -149 q0 -43 -39 -97q-18 -20 -21 -34q-14 -29 -28 -39q-8 -2 -17.5 3t-13.5 11l-6 8q-29 20 -39 21q-2 -2 -4 -2l-27 -11l-20 23q-55 61 -103 307q-14 90 -26 117q-14 18 -15 57v8q-268 -4 -497 -49l-27 -4l-12 21q-2 0 -2 2q-25 -8 -86 -17h-7q-5 -17 -5 -55q0 -54 10 -152 q2 -14 8 -92l18 -6q29 -10 33 -45q2 -12 2 -41q-2 -4 -2 -18l18 -4l-6 -35q-14 -82 -98 -162l-17.5 -17.5l-21.5 -21.5l-20 -20l-15 -17l-20 4q-8 0 -11 2q-29 0 -59 15l-20 8l-4 20v9q-10 44 -10 73q0 7 1 13q-4 8 -10 14q-2 4 -8 13t-6 11l-8 11v12q-12 184 -31 424 q-35 508 -37 786z" />
<glyph unicode="I" horiz-adv-x="569" d="M141 45q-6 14 4 55q4 12 5 19v16l8 6q0 4 4 9q4 12 -6 43l-6 18l-3 10v8q18 115 18 226q0 69 -7 137q-2 25 -6 70q-2 16 2 51q5 21 5 42q0 34 -12 72v7v2v30q0 114 13 246q-18 26 -18 62q0 19 5 40q2 14 3 52q-2 27 0 51q10 59 20 76q23 41 70 41h16l10 -9q10 -8 19 -8 q33 -4 47 -26q39 -16 51 -82q4 -21 4 -42q0 -14 -2 -28q0 -2 -2 -6t-2 -6q10 -10 10 -25q2 -20 -14 -39q0 -4 4 -8q12 -39 12 -49l21 -8l-13 -37q-5 -12 -5 -31.5t5 -46.5q4 -28 4 -51q0 -43 -14 -72q2 -6 4 -15t2 -11q0 -12 2 -17l15 -12l-2 -21q-7 -51 -7 -98q0 -39 5 -74 q5 -51 5 -101q0 -37 -3 -73q16 -14 16 -45q-4 -29 -16 -49q-2 0 -2 -2t-2 -4q7 -20 7 -39q0 -21 -9 -41v-2q2 -12 -3 -25l11 -4l2 -20q22 -119 22 -156v-8q-2 -61 -43 -86l-8 -6l-10 -2l-2 -2h-4l-9 -2h-10q-10 2 -28.5 4t-20.5 2q-33 0 -67 8q-33 4 -59.5 30.5t-35.5 55.5z " />
<glyph unicode="J" d="M12 283q2 10 2 24l-2 29l25 12q35 14 65 14q12 0 70 -10q4 -2 31 -8l24 -2l9 -25q2 -4 18 -20q4 -4 8 -10t8 -8q25 -10 61 -28t50 -24q74 -45 119 -45q57 0 194 51q17 34 17 93q0 28 -4 61q-2 27 -2 51q0 78 20 123q-2 4 -8 10l-12 13l-7 12v14v29v27v18l13 12l4 4l-2 2 v5q-14 23 -15 47q-2 94 -73 381q-16 61 -23 92q-86 0 -172 25.5t-121 86.5q-15 30 -15 60q0 43 28 88l14 22l24 -2q59 -4 152 -24q111 -20 156 -21q68 0 131 29l24 14l19 -20h2q12 0 41 8q31 10 61 10h10q6 10 39 21h25h18l13 -17q16 -18 20 -51l19 -12l4 -29 q-8 -94 -50 -131q-29 -29 -104 -41l-35 -2l-8 12q-16 -10 -39 -14q-4 -4 -8 -6l-2 -2q20 -127 53 -213q18 -61 27.5 -102.5t18.5 -158t11 -298.5v-10l-4 -9q-5 -9 -5 -29q0 -15 3 -36q4 -28 4 -51q0 -32 -8 -52v-116v-35l-4 -8q-4 -2 -10 -2l-14 8l-11 -10q2 -4 2 -13 q4 -20 -10 -43h-2q-84 -84 -182 -84h-12q-86 -24 -168 -24q-221 0 -451 188l-12 8l-2 15q-2 0 -4 4t-2 6t-1.5 2t-1.5 2q-14 6 -28 18q-23 23 -23 95z" />
<glyph unicode="K" horiz-adv-x="1478" d="M129 588l4 18l19 10q6 2 22 19q14 14 25 22q2 96 10 271q8 158 10 258q0 27 -2 41q-1 17 -1 32q0 78 34 115q-1 9 -1 18q0 28 9 62q10 51 10 66v51q0 6 5.5 7t9.5 -1l4 -4l35 -14l10 -5q55 -23 82 -24l24 -2l11 -21q44 -91 44 -148q0 -7 -1 -13q-6 -68 -23 -156 q-28 -140 -28 -235q0 -31 3 -56q4 -29 13 -57q2 -4 5 -14.5t5 -14.5q63 45 121 121l4 6l6 2q102 68 274 240q193 184 285 241l17 11l16 -4q133 -37 147 -99q6 -23 -6 -47t-27.5 -40.5t-48.5 -45.5q-39 -35 -79 -80q0 -23 -17 -37q-55 -55 -94 -80q-82 -66 -109 -104l-10 -18 h-14q-2 0 -6 2t-6 2v-13l-7 -10l-6 -6q-27 -23 -74 -58.5t-63 -50.5q-147 -111 -213 -176q27 -14 55 -34q61 -39 109 -56q2 0 22 -14q20 4 27 4q35 0 53 -31q401 -152 563 -336l15 -14l-6 -20q-27 -94 -123 -95q-33 0 -60 15l-2 -13l-47 31l-18 12q-27 14 -33 23 q-8 -4 -27 -4h-18l-12 12q-29 29 -82 53q-66 31 -103 68h-4q-14 0 -45 10q-6 0 -10 4l-25 -8l-16 25h-8h-6h-8q-35 0 -58 4q-41 12 -106 61q-57 41 -82 51q12 -47 12 -104q0 -97 -35 -225l-4 -13l-8 -6q-4 -8 -21 -14q8 -16 -4 -23l-34 2q-23 0 -31 3h-6q-2 -2 -6 -5 l-17 -10l-18 6q-76 27 -99 123q-8 39 -8 156q1 21 1 40q0 101 -19 122q-6 8 -15 10l-22 10l-4 23q-2 25 -17 59q-20 51 -20 91q0 14 2 26z" />
<glyph unicode="L" horiz-adv-x="1251" d="M147 532l5 21q17 60 17 153q0 67 -9 152q-8 82 -8 129v7q0 26 12 71q10 41 10 49q0 12 -10 64q-12 41 -12 65q-4 31 12 49q8 8 12 11q0 14 -8 51q-11 43 -11 76q0 42 17 69l14 27l29 -6q88 -16 143 -50l13 -4l6 -14q35 -88 41 -208q2 -45 2 -89q0 -74 -6 -145 q-4 -120 -4 -206.5t4 -139.5q0 -2 2 -6.5t4 -10.5t4 -10q8 -29 10 -45q7 -50 7 -131q0 -32 -1 -70q-1 -25 0 -47q0 -107 15 -170q322 96 538 96q92 0 164 -20l27 -10v-29q4 -8 12 -21q20 -29 25 -45q8 -31 -9 -57q0 -31 -14 -47q-20 -20 -47 -21l-8 -10l-45 4q-8 0 -21 4 l-12 -2h-10q-18 0 -39 11q-2 0 -2 -2q-14 -10 -31 -19l-31 25h-2q-25 -12 -53 -13q-14 0 -20 2q-20 -20 -50 -20q-6 0 -26 4q-102 -51 -181 -69.5t-233 -32.5h-10l-10 4q-25 10 -41 35q-14 14 -21 14l-22 4l-11 16q-96 210 -96 426q0 33 2 66q0 4 -4 11t-4 11q-10 25 -12 27 z" />
<glyph unicode="M" horiz-adv-x="1705" d="M63 43l9 33q6 29 15 62.5t20.5 76.5t17.5 68q72 254 90 397l4 31q6 18 23 18v9q0 81 32 214q27 131 31 162q2 20 0 43v51q8 66 33 123q23 63 24 107v49q10 6 17.5 5t13.5 -5l4 -2q4 6 17 14q16 20 41 21q12 0 20 -4l8 12l25 -6q104 -20 156 -95q43 -63 47 -184 q10 -10 14 -12l18 -6l5 -25q27 -225 126 -485q45 84 107 295v8q4 20 0 53q0 51 6 76q4 14 16.5 43t16.5 37q31 49 35 78q0 2 2 6v4q2 37 35 76l12 18l20 -2h15q80 -8 110 -27q39 -29 72 -123q2 -6 10 -20q27 -23 33 -51q6 -35 10 -41q8 -25 12 -70q4 -23 21 -45 q26 -67 26 -95q0 -5 -1 -9q15 -29 15 -81q0 -12 -1 -24q-2 -16 -2 -28q0 -33 12 -39l17 -9l4 -18q6 -18 -2 -37l12 -18l12 -43q6 -25 6 -60q0 -33 2 -45l6 -18q0 -2 1.5 -4t6.5 -4t13 -2q16 -16 2 -37q-8 -12 -8 -29l8 -14q18 -18 16 -45q8 -6 13 -19q0 -2 1 -3t4 -7t4 -11 t3 -11.5t0 -10.5l-8 -10q2 -8 -2 -20q18 -27 20 -48q2 -14 12 -26q27 -35 27 -60q-8 4 -13 3t-7 -5l-2 -2q0 -2 4 -10q2 -2 4 -7t5 -16.5t1 -19.5t-7 -12t-9 -4h-5q0 -16 -10 -35l-8 -14q8 -35 -16 -46q-6 6 -17.5 9.5t-17.5 3.5h-8h-2q-8 0 -29 -4t-29 -4q-27 -8 -51 -13 h-14l-13 8q-48 34 -48 117q0 12 1 25q1 18 1 32q0 25 -4 41q-7 24 -38 44l-12 10l-4 16q-20 119 -25 232q-8 135 -22 213q-2 2 -5 7t-5 7q-4 8 -25 22v41q0 39 -4 74q-12 -25 -37 -37q1 -10 1 -20q0 -36 -11 -76q-8 -37 -55 -147q-29 -57 -50 -113v-29q0 -129 -22 -182 l-12 -25l-13 2q-18 -23 -22 -28q6 -27 -15 -33q-8 -2 -17 -1t-15 3l-6 2q-29 6 -48 41l-6 6h-16l-14 17q-92 125 -189 444q-12 37 -14 41q-47 117 -80 229q-4 -31 -10 -32l-11 6q-4 -27 -12 -76q-18 -135 -22 -203l-2 -35q-6 0 -11 -8q-4 -6 -8 -37q0 -10 -6 -16 q3 -16 3 -33q0 -61 -38 -141q-37 -66 -37 -115v-35q-14 2 -39 -16q0 -23 -2 -33q-6 -31 -4 -59l4 -23l-18 -14q-35 -27 -64 -100l-6 -17l-18 -6q-18 -6 -39 -6q-49 0 -86 51q-18 23 -31 27z" />
<glyph unicode="N" horiz-adv-x="1478" d="M115 1300l4 15q2 8 24 31q18 12 13 30l-4 39l49 2q39 -6 125 -43q4 -2 26 -14l15 -6l4 -8q115 -209 286 -404l15 -10l-4 -21q-1 -3 -1 -6q0 -28 64 -84q4 -4 17.5 -18.5t18.5 -20.5t16.5 -19t17.5 -21.5t14 -21.5t12 -24.5t7.5 -25t3.5 -27.5q43 -37 88 -96 q14 -14 44.5 -49t47.5 -52q2 20 2 66q0 113 22 147q4 68 29 261q26 175 26 309q0 106 -16 186l-6 29l29 12q35 12 65 12q18 0 74 -16q43 -12 57 -14l13 -2l10 -9q20 -18 20 -51q14 8 17 -8l-2 -37l-2 -4v-4q0 -2 -1 -6t-1 -6q12 -12 14 -29v-8v-4q-10 -57 -18 -137 q-16 -193 -52 -275v-73q0 -112 -4 -238q-4 -108 -4 -198q0 -173 15 -279l2 -39l-7 -8q-29 0 -32 -5l-2 -16l-25 -10q-37 -18 -70 -19q-31 0 -59.5 16.5t-37.5 28t-32 37.5q-14 31 -36 41l-27 13l-8 26q-14 20 -23 31q-20 29 -67 72q-119 115 -160 178q-31 49 -152 196 q-51 53 -102 125l-2 4l-2 2q-2 4 -5 10.5t-5 10.5q-8 25 -13.5 32t-25.5 15l-4 2q2 -10 5 -25.5t3 -23.5q2 -6 5 -15.5t3 -11.5v-10l-2 -8q-2 -4 -5 -13.5t-5 -13.5q-8 -29 -11 -33q-1 -5 -1 -14q0 -27 10 -84q14 -76 14 -112q0 -12 -14 -56q-6 -22 -6 -38t6 -25l10 -17 l-6 -18q-16 -49 -16 -89q0 -37 14 -67l12 -24l-16 -17q-12 -14 -13 -63q-4 -68 -10 -86l-6 -17l-12 -6q-20 -8 -33 -8q-4 0 -29 6q-12 4 -14 4l-2 -2l-35 -6l-16 19q-6 8 -27 18q-45 23 -68 63l-4 7v8q-4 42 -4 92q0 33 2 70q0 16 1 47.5t1 48.5q0 49 6 92q4 41 4 76 q0 18 -1 35q0 2 -1.5 9t-1.5 11q-8 37 -6 53q2 14 19 37q4 4 4 6q0 4 -2 13q-4 4 -4 8q-16 20 -17 51q0 20 19 49l2 4q2 4 4 6q0 10 -12 52q-13 55 -13 74q0 27 13 61l4 12l-8 8l-3 17q-2 19 -2 41q0 40 7 90q4 31 4 59q0 78 -33 129z" />
<glyph unicode="O" horiz-adv-x="1593" d="M88 424l2 6q2 14 10 23q-7 13 -7 33q0 17 5 40q6 14 6 33q0 10 -6 23q-10 33 -8 45q2 18 21 55q10 27 10 29q4 10 0 22q0 57 26 82q-1 6 -1 12q0 37 28 109q20 37 23 63l2 23l20 10q4 2 13.5 5t13.5 5q-6 18 0 39q10 31 35 45q18 12 16 29q-4 37 -4 43h20l25 37 q57 74 104 90v2q6 16 29 25q2 2 4 5t4 5q23 16 76 45l20 8q2 2 3 4l14 17l22 -2q31 -4 64 -19q6 6 22 10l9 5l49 2l8 -19q6 -12 16 -18q6 -8 23 -21q29 14 47 15h8h2h2q12 -4 19 -5q2 0 26 7q37 12 72 14h25l8 -14q2 -2 11 -5.5t11 -3.5q4 -2 18.5 -6t20.5 -8h2q4 2 6 2 q16 0 47 -20l3 -2q16 -6 20 10q8 -4 15.5 -11.5t11.5 -13.5l4 -6q31 -43 73 -78q92 -84 95 -135l12 -18q8 -12 12 -17l31 -16l2 -23v-12v-2q27 -10 39 -22q-6 -6 -9 -13.5t-1 -11.5v-2q12 -10 22 -35l4 -4l13 -53q8 -31 10 -39q25 -83 25 -137q0 -18 -3 -33q10 0 13 -12 l-2 -21q0 -10 -2 -16q-8 -49 -17 -78q3 -11 3 -23q0 -43 -46 -90q-8 -8 -16 -49q-6 -33 -25 -61q-27 -53 -114 -123q-20 -14 -64 -53q-96 -92 -168 -101q-2 -2 -5 -6t-5 -6l-10 -17h-21h-22q-39 0 -43 -4l-9 -32h-30q-47 0 -109 -13q-25 -8 -90 -18q-29 -4 -53 -6 q-8 0 -12.5 4t-2.5 8v4q-10 -2 -23 -3t-20 -1h-34h-50l3 18q-6 0 -14.5 -1t-12.5 -1q-10 0 -27 5l-26 6v10q-25 8 -47 31q-4 2 -11 8q-18 12 -26 12q0 -2 -2 -4t-6.5 -7t-8.5 1l-22 14q-102 74 -149.5 149.5t-92.5 215.5zM385 416q20 -49 45 -78q4 -10 21.5 -42t23.5 -46 q70 -57 232 -57q102 0 192 26l16 17q57 39 99 49q35 51 84 86l24.5 24.5t24.5 25.5t19.5 23.5t18.5 26.5t10 27.5t7 33.5v15l15 8q2 2 5 4t5 2q2 2 4 2q1 20 1 40q0 137 -48 275q-56 158 -146 238q-74 25 -116 25q-41 0 -95 -39q-47 -41 -94 -53l-51 -5v17q-14 -6 -31 -6 q-33 0 -49 30l-2 7v8q-4 14 0 20h-6q-4 -4 -14.5 -12t-12.5 -10q0 -2 -1 -5t-3 -6q-8 -35 -20 -47q-10 -10 -33 -16q-82 -123 -116 -288q-20 -95 -20 -187q0 -67 11 -133z" />
<glyph unicode="P" horiz-adv-x="1366" d="M10 1219q4 14 15.5 27.5t19.5 19.5l10 6q4 4 25 16q2 2 14 10.5t16.5 12.5t12.5 11t12 14t4 14l2 18l15 8q80 57 123 71.5t141 20.5l2 11l27 6h2q49 8 55 8q18 0 33 -6q83 24 173 24h7q176 0 381 -86l4 -2h2q76 -47 131 -133t68 -174q3 -21 2 -41q0 -105 -70 -182 q-14 -49 -47 -92t-63.5 -66.5t-77.5 -54.5q-53 -39 -64 -49q-47 -74 -190 -101q-74 -16 -99 -32q-16 -31 -98 -72q-16 -8 -23 -10q2 -63 46 -201q23 -70 34 -133q4 -20 4 -38q0 -50 -28 -91q-45 -49 -125 -49h-4h-19l-12 14q-27 35 -45 91.5t-24.5 87t-20.5 110.5 q-23 127 -35 164q-8 6 -39 28q-70 53 -82 107q-2 11 -2 21q0 68 78 132l21 21q4 16 -21 41l-8 8v16v9q0 50 20 77q-17 44 -17 132q0 56 7 129q8 82 8 112q-63 -16 -67 -39v-12h-2l24 -10l-6 -31q-4 -20 -18 -35l-9 -6l-12 -4q-6 0 -6 -2l-12 -12h-19h-20h-8h-4q-27 0 -52 18 l-34 25q-25 18 -41 22l16 19q-12 12 -14 22l-7 15l9 16q4 4 6 8q0 2 2 6q4 4 4 8q-20 -10 -31 7zM516 993q2 -41 6 -84q4 -60 4 -119q0 -39 -2 -77q16 -27 13 -58q53 18 90 43q8 6 49 27q16 6 20 8l2 2q10 25 25 39q20 20 70 31q23 0 32 10q2 2 54 41q18 10 32 25 q20 20 68 102q20 39 25 47q16 18 22 39q10 28 10 53q0 37 -22 68q-29 41 -87.5 62.5t-115.5 21.5q-8 0 -22.5 -1t-22.5 -1l-8 -2l-8 2q-51 10 -99 10q-63 0 -114 -18q5 -20 5 -47q0 -48 -16 -115q-10 -102 -10 -109z" />
<glyph unicode="Q" horiz-adv-x="1593" d="M82 684v21l16 12l4 2q0 6 -2 8q0 6 -4 31q-2 18 0 33q25 -6 25 16q0 12 -8 14l8 35q12 63 39.5 125.5t50 99.5t70.5 103q6 4 30 41l4 2v2q37 35 58 45q57 49 73 72l13 14l16 2q10 0 29 18l10 15l35 37q10 0 13 -4.5t1 -10.5l-2 -4q6 6 14 6q43 43 109 43q10 0 31 -4 q29 8 41 15q74 33 127 34q-10 16 4 29l41 -8q66 -16 102 -17h8l13 21l30 -12l21 -11q25 -8 76 -26.5t69 -24.5l17 -2l8 -18q6 -12 39 -35q2 -2 8 -7l9 -7.5l9 -7.5t10.5 -8t9.5 -9t8 -10t6 -10.5t6 -13.5t5 -14t2 -16q10 -10 23 -26q25 -25 31 -29l24 -20l-14 -27 q-2 -8 29 -82q20 -55 20 -72q1 -19 1 -42q0 -45 -5 -105q-2 -31 -2 -50t2 -26l4 -8v-10q-20 -268 -94 -436l-8 -19l-23 -4h-2q0 -12 -2 -14q-6 -41 -47 -58l-12 -4q0 -4 -2 -6l-4 -24l-23 -7q-12 -4 -14 -6q6 -12 12 -18q14 -20 33 -35l6 -6q10 -8 47 -29q39 -23 56.5 -34 t44 -38.5t46.5 -64.5l9 -41q-2 -8 -10.5 -12t-14.5 -4l-8 2q-6 -4 -35 -25q-68 -57 -119 -57h-6q-31 2 -53 28q-2 8 -19 17h-2q-27 0 -41 12q-31 23 -67 88q-23 41 -33 45q-29 -25 -96 -39q-33 -10 -41 -14q-12 -20 -25 -25q-59 -41 -229 -41q-76 0 -105 15q-139 16 -237 76 q-100 59 -170 163q-61 92 -94 228q-33 131 -33 268zM319 555q4 -66 54 -160q27 -43 45 -100l35 -35q96 -92 161 -92h13q25 8 59 8q25 0 57 -4q29 12 107 18h14q2 2 2 5q27 31 45 38q-2 31 -47 76q-72 75 -72 145q0 7 1 13l2 20l22 11q37 18 70 18q10 0 16 2l6 4h9h12 q51 0 74 -51q2 0 2 -2q33 -14 53 -37q14 -14 31 -22q154 231 154 552q0 22 -1 44q-6 141 -49 204q1 -10 1 -19q0 -40 -15 -67q-35 -78 -168 -102l-45 -8l-9 24q-25 -8 -47 9q4 6 5.5 14t-1.5 14l-2 6q-10 31 2 54q16 27 37 36q0 16 -8 28.5t-33 21.5q-18 6 -37 18h-10 q-4 0 -12 1t-10 1q-4 2 -11 2q-35 -8 -102 -72q-59 -53 -86 -61l-2 -2q-2 -2 -6 -14.5t-8 -20.5q-16 -35 -72 -43l-33 -16q-14 -16 -28 -53q-4 -6 -9.5 -14.5t-10.5 -18.5t-7 -15q-10 -14 -35 -20q-10 -20 -12 -29q-10 -41 -23 -108l2 -21q-14 -16 2 -45q4 -6 -1 -14 t-11 -14l-8 -7q-6 -2 -12.5 -4t-12.5 -4t-8 -2q2 -15 2 -28q0 -32 -14 -50q-4 -4 -17 -12z" />
<glyph unicode="R" horiz-adv-x="1478" d="M37 1262l29 14q29 14 67 14q6 2 17 2v15l20 12q10 4 70 22q66 16 82 43l8 17l14 4q23 4 59 8q59 10 76 29l19 20l28 -10l4 -2h2q4 2 7 2q8 2 28 6l-2 29l41 2q49 2 127 10q111 8 156 8q195 0 291 -112q51 -14 88 -43q37 -31 49 -74q14 -8 24 -25q12 -18 12 -39 q0 -23 -14 -49v-2l-2 -4q12 -16 11 -33q-27 -287 -418 -561q8 0 31.5 -5t39.5 -7q47 -4 95.5 -25.5t74 -39t72.5 -52.5q72 -53 88 -61q55 -37 82 -64q43 -39 72 -55l41 -27l-13 -12l-4 -33q-6 -55 -61 -73q-2 0 -4 -1t-4 -1v-5l-2 -38l-37 2q-84 2 -191 108q-27 20 -36 35 q-27 8 -97 49q-53 39 -90 49q-4 -2 -41 -16l-14 -4l-17 10q-8 6 -61 25q-45 12 -68 24q-49 -4 -135 -4q-137 0 -198 -39q33 -80 43 -280v-45v-33l-33 -6q-47 -10 -66 -29l-16 -18l-25 8q-84 29 -120 110q-16 51 -21 142q-4 51 -8 75q-2 2 -6 11q-8 12 -15 28q-16 54 -16 131 q0 66 12 150q8 80 8 139v23q-2 62 -2 122q0 109 7 209h-15q-10 2 -28 2h-11l-18 -2l-12 15q-39 43 -58 133q0 6 -3 21.5t-5 23.5zM410 887q-1 -12 -1 -31q0 -37 3 -100q3 -53 2 -90v-33h2q18 0 35 -17q45 27 135 68q90 43 132 65.5t113.5 70.5t113.5 92t89 117t82 161 q-39 59 -168 59q-72 0 -131 -16h-4h-6h-10q-78 0 -189 -55q-84 -35 -94 -37q-20 -4 -24.5 -4t-9.5 1t-7 1q-23 -18 -49 -23q25 -35 31 -92q6 -59 12 -82l4 -22l-14 -15q-18 -18 -41 -18h-6z" />
<glyph unicode="S" horiz-adv-x="1366" d="M43 389l2 31l29 4q4 2 17 7t18 7q61 29 86 29q31 0 47 -18l8 -7l2 -14q2 -27 33 -51q37 -33 45 -49q57 -20 108 -72q12 -10 45 -35q25 4 37 4q10 0 27 -4q0 6 8 8l27 -8q4 8 14 10q10 3 19 3q23 0 42 -19q43 16 80 16q2 0 76 -6q31 -6 57.5 -6t38.5 4q8 4 23 23 q16 16 29 24q0 6 -5 19v14q0 29 29 41h16q4 2 11.5 5t12.5 4t5 3v2v11q0 44 -28 75q-32 35 -111 78q-14 8 -47 25q-27 27 -58 37q-4 2 -24 2q-29 4 -31 6q-14 6 -47 33l-10 10q-2 0 -5 -1t-5 -3q-25 -12 -39.5 -12.5t-26.5 6t-42 13.5t-38 9q-92 23 -143 53q-92 16 -146 111 q-16 27 -49 55l-8 6l-2 9q-30 71 -30 150q0 29 4 57q14 110 67 194l4 10l10 6q51 29 142 58q86 29 135 61q20 12 37 27q16 -2 23 -10.5t7 -14.5v-6q23 8 56 8q25 0 82 -12q2 0 6 -1t6 -1q23 12 45 12q39 0 100 -33q49 -23 62 -24l12 14l23 -12q16 -12 24 -16q18 -16 33 -17 l18 -2l11 -16q2 -4 8 -15.5t10 -17.5q65 -103 65 -169q0 -26 -10 -46q-31 -49 -116 -49h-15q-29 2 -43 16l4 27q4 25 -10 37t-59 30q-43 14 -62 35q-115 16 -174 17q-127 0 -203 -54l-10 -12l-16 4h-4q-10 0 -21 -10q-17 -23 -17 -52q0 -13 3 -26q76 -102 172 -102h24h29 q63 0 119 -31q8 4 14 4h8l15 -2l10 -10q27 -25 94 -41q94 -20 131 -64q96 -4 127 -55q86 -53 135 -139q48 -71 48 -137q0 -16 -3 -31q-1 -5 -1 -11q0 -24 14 -59q19 -34 19 -67q0 -7 -1 -15q-4 -25 -41 -61l-10 -10q12 -20 6 -39q-10 -27 -49 -31h-2q-4 -16 -8 -29 q-98 -127 -367 -147q-16 -10 -29 -10q-12 -4 -34 -4q-37 0 -86 8q-53 4 -74 4q-33 0 -59 -8l-15 -4l-16 8q-47 30 -82 30h-2q-4 0 -12 -4q-6 -10 -13 -10l-24 10q-43 29 -99 58q-137 66 -180 131l-12 24l-31 9v30q-31 4 -31 23l5 37l4 8l2 4q-2 0 -2 1t-2 1q-26 36 -26 76 q0 8 1 16z" />
<glyph unicode="T" horiz-adv-x="1251" d="M-8 1243q-10 30 -10 58q0 43 24 81q8 8 8 13q0 27 11 41l32 -2q10 -2 26.5 -2t37.5 8q20 12 41 12q16 0 26 -4q47 37 103 37q31 0 90 -19q41 -12 55 -12q27 0 51 37l13 25l26 -11q4 -2 18.5 -3t20.5 -1q33 0 49 -4q25 -10 35 -29h4q2 0 5.5 1t7.5 1q6 0 32 -10 q47 10 54 10q31 0 51 -18q20 4 31 4q27 0 51 -6q25 -4 37 -4h6l2 2q0 2 4 5l8 6t10 4t13 1q2 -8 6 -15t8 -9l4 -2q2 2 3 4l3 6t6 8t11 8q12 6 20 2t12 -12l4 -8q14 -4 27 -14q8 2 27 2q90 0 176 -131l10 -11l-2 -16q-2 -53 -66 -80q-12 -6 -14 -8q-14 -6 -14 -21l-23 7 q-193 49 -450 53q2 -2 2 -10q6 -23 6 -50q0 -29 -8 -43q6 -86 6 -223q4 -201 20 -332q6 -27 -12 -47q-6 -10 -12 -12q8 -100 8 -207q8 -182 25 -264l2 -21l-15 -14q-4 -4 -6 -8l-4 -4q-6 -16 -10 -25l-6 -12l-17 -4q-22 -8 -49 -8q-61 0 -104 43q-35 39 -52 96 q-25 68 -32 235q-8 139 -8 224q0 42 2 71q2 31 6 56q3 24 3 42q0 24 -5 38l-7 10l3 12q8 61 12 238q0 131 8 200q-25 6 -59 6q-49 0 -142 -18q-100 -18 -178 -20h-6l-6 2q-12 4 -31 20q-14 14 -20 19q-14 4 -27 -5z" />
<glyph unicode="U" horiz-adv-x="1478" d="M113 1116l4 8q23 43 30 142q8 78 19 127l8 34l35 -4q2 0 4 2q6 2 22.5 2t24.5 -6q14 6 43 6q20 0 62 -10q18 -6 26 -6h2q33 2 41 -6l2 -31q3 -28 3 -64q0 -94 -19 -245q-22 -189 -22 -294q0 -23 1 -42q6 -129 37 -276q41 -195 129 -291q4 -4 10 -4q45 8 103 108 q14 27 39 68q23 18 51 39l41 41q86 168 152 452q29 139 53 480q0 10 1 26.5t1 26.5l2 16l12 8q33 29 86 29q23 0 94 -14q20 -4 50 -8l22 -3l8 -18q27 -62 27 -167v-28q0 -94 4 -120l2 -11l-2 -6q-6 -18 -27 -39q-12 -8 -16 -12q0 -29 20 -270q6 -49 15 -168q4 -41 4 -56 q8 -119 18 -147q4 -16 4 -42.5t-4 -61.5q-4 -22 -4 -39q0 -38 21 -54l12 -6l2 -16q7 -38 7 -68q0 -25 -5 -43q-10 -41 -49 -80l-14 -16l-23 4q-16 2 -35 10q-25 10 -41 11q-8 0 -10 -2l-12 -7l-13 5q-72 14 -100 73q-14 31 -22 107q-4 53 -13 92v16l4 17q10 16 15 53 q-8 -14 -21 -43q-31 -70 -50 -106.5t-57 -84t-79 -67.5q-4 -20 -14 -31l-7 -8l-8 -2q-66 -29 -170 -47q-45 -12 -65 -17q-6 -2 -27 -4q-6 2 -11 11.5t-9.5 11.5t-14.5 4t-14 2q-55 8 -70 33q-41 10 -83 40.5t-59 51t-52 65.5q-27 39 -33 48l-10 12v16q2 23 -17 82 q-18 96 -18 105q-6 8 -10 16q-10 16 -17 20l-14 13l2 20q4 29 18 64q12 29 15 32q-46 110 -46 322q0 32 1 66v143z" />
<glyph unicode="V" horiz-adv-x="1366" d="M-6 1294q-2 6 0 13q2 8 7 17t9 13l4 4l13 7q2 0 2 2q0 4 -2 8l-2 2l-3 4q-4 4 -6 8t-2 12.5t2 16.5q12 6 26.5 7t23.5 1l10 -2q25 -8 53 -8q61 0 109 -27l8 -6l6 -12q10 -25 10 -27q25 -61 41 -76q10 -12 16 -20q-4 -2 -5 -8t1 -11v-4q0 -6 11 -37q8 -14 14 -38 q4 -14 0 -25q84 -137 94 -215q10 -16 23.5 -42t19.5 -36q41 -61 74 -145q49 -70 119 -219q45 -98 69 -140q8 33 9 51q16 74 24 99q14 39 49 96q41 80 43 98q6 51 37 142q0 2 14.5 47t18.5 69q8 31 33 74q10 16 18 39q111 307 135 510q4 47 23 49q12 0 22.5 -6t14.5 -14l6 -6 q12 -12 49 -13q66 0 104 -24l13 -11l4 -12q10 -39 11 -79v-16q0 -30 -3 -54q-4 -30 -17.5 -73.5t-23.5 -70t-31 -73.5q-20 -188 -155 -517q-29 -72 -68 -174q-10 -29 -18 -77q-27 -102 -58 -146q6 -14 6 -31t-6 -36l-4 -11l-8 -4q-20 -16 -70 -98q-53 -102 -112 -137l-15 -8 l-16 4q-20 4 -33 6q-98 18 -129 67l-2 4l-2 5q-2 6 -8 23t-10 26q-86 225 -142 338q-25 53 -28 65q-16 33 -21 51q-20 4 -32.5 22.5t-16.5 51.5q-2 6 -5 18.5t-5 16.5q-23 43 -60 98q-47 70 -65 111q-6 16 -6 39v10q-2 4 -15 16q-23 18 -28 33q-16 23 -49 123q-16 49 -25 70 q-2 10 -12 20q-18 29 -23 45q0 10 -2 14q0 12 -2 17l-4 4q-27 39 -27 41q-4 20 0 41q-2 0 -3 1t-6 4t-8 6t-5 9z" />
<glyph unicode="W" horiz-adv-x="1933" d="M0 1423q-1 9 -1 19q0 21 3 47l8 37h35h2q4 0 16.5 3t16.5 3q27 10 53 10h14l13 -2l10 -8q51 -49 98 -160q47 -102 84 -133l13 -8l4 -14q25 -119 110 -322q84 -203 107 -307q29 -41 63 -152q18 -66 35 -96q8 98 59 291q53 176 62 284q0 25 4 39q4 4 10 4t8 -2l4 -2 q2 41 27 115q31 80 31 145q-2 29 -2 48q10 10 35.5 2.5t33.5 -0.5q42 32 85 32h3q23 0 54 -6l22 -4l6 -22q27 -94 52 -244q45 -246 92 -338l4 -6v-8q6 -104 106 -322l6 -12q10 27 9 45l-2 20l14 15q18 18 34.5 49t21.5 48t22 67q31 102 53 147q18 133 57 291q52 252 52 370 v13q-2 27 0 37l39 6h6q31 0 67 -23q23 18 49 19q29 0 52 -25l12 -8l2 -10l6 -2q25 -12 31 -39q25 4 28 -15l-12 -36q-10 -41 -10 -119q0 -119 -31 -164q6 -29 4 -49q-2 -27 -24 -45q-23 -172 -111 -455q-25 -82 -51 -188l-4 -9l-6 -6q-27 -35 -64 -118q-23 -55 -39 -87 t-54 -67t-85 -43l-8 -2l-8 2q-12 2 -34 8t-26 8q-49 12 -69 13h-23l-16 -2l-15 12q-104 100 -147 272q-10 10 -25 35q-2 4 -5 8t-5 8t-4 4l-20 15v26q0 16 -19 54q-2 6 -7 15t-8 15.5t-6 15.5t-2 18t3 20l-4 16l-13 6q-21 -124 -21 -192q0 -18 1 -31v-12l-4 -9 q-12 -25 -45 -124q-43 -143 -93 -213l-8 -15l-14 -4q-29 -4 -45 -4q-55 0 -92 39q-8 0 -17 4h-10l-18 4l-9 14q-2 0 -2 3q-2 0 -3 1t-7 3t-10 -2l-14 30q-6 25 0 39q-43 27 -45 35l2 20q-27 -4 -43 7q-8 4 -10.5 15t-0.5 19l2 11l2 2q-2 2 -10 11t-10 13q-27 27 -39 54 q-10 33 -6 51q-12 12 -25 33q-4 6 -12 14l-12 14q4 10 0 17l-19 10l-2 29l-5 20t-3 18q-10 35 -10 66v10q-33 41 -60 142q-12 45 -28 79q-6 10 -10 17l-15 20l2 21l-16 28l6 29q0 12 -16 41q-27 53 -25 82q-16 -25 -29 0q-6 10 -6 24.5t2 22.5l2 8v8l2 2v7v2q-2 0 -5 2t-6 3 t-9 1t-12 -4q-2 8 1 21.5t7 21.5l2 10q4 12 -25 66q-27 45 -33 65q0 4 -1 8t-1 6q-29 2 -38 19q-2 12 1 23.5t7 15.5l4 4v4q-12 18 -15 39l-18 12v21q-2 14 -2 32z" />
<glyph unicode="X" horiz-adv-x="1366" d="M-41 1499v17l12 12q71 67 150 67h2q29 0 47 -8l20 -6l7 -18q35 -111 168 -183q33 -12 36 -22q2 -8 -3 -16.5t-11 -10.5l-6 -4q-4 -6 -4 -14q6 -10 29 -25q39 -33 43 -39q4 -4 8 -16q23 -2 37 -23.5t14 -44.5q2 -4 6 -7t7 -6l5 -5h2l13 -2q61 -16 96 -29q20 -8 27 -22 l-7 -29q0 -23 17 -49q4 4 53 65q53 88 111 121v7q0 51 51 96q35 29 37 53q6 20 6 33q8 6 13 6t9 -4l4 -4q10 29 33 45q4 33 43 61q12 12 15 16l4 27l22 4q31 6 58 6q51 0 122 -28q29 -14 45 -15h15l12 -10q19 -15 19 -48q0 -17 -5 -38q0 -2 -1 -8t-1 -8q-8 -20 9 -33 q-4 -8 -15.5 -15.5t-21.5 -9.5l-8 -2h-13q0 -2 -2 -4t-2 -4q-2 -2 -4 -8t-5 -12.5t-7 -12.5q-14 -25 -72 -57q-2 -2 -4 -2q8 -23 -10 -49q-6 -6 -41 -25h-4q-2 -2 -4 -2q-18 -27 -27 -45q-12 -33 -39 -61q-18 -25 -145 -166q6 -20 0 -41l-4 -10l-11 -9q-31 -23 -35 -53 q0 -6 1.5 -14t5.5 -17.5t8 -17.5t12 -19.5t13.5 -18.5t15.5 -20.5t16 -20.5t18.5 -21.5t16.5 -20.5q98 -104 119 -174q61 -33 143 -131q68 -88 117 -113l16 -6q2 0 5 -2t6.5 -9t-5.5 -15q53 -23 68 -52l10 -30q-8 0 -12 -4.5t-4 -8.5v-6l-8 -33l-9 -12l-12 -6 q-29 -14 -41 -18q-53 -33 -117 -37h-10l-12 6q-68 41 -137.5 105.5t-108.5 108.5t-110 130q-143 176 -213 237q-4 -6 -18.5 -34.5t-22.5 -42.5q-37 -84 -74 -121q0 -92 -98 -178q-80 -203 -236 -289q-20 -10 -39 -19q-10 6 -15 15.5t-5 15.5v6h-8q-41 10 -54 27h-2 q-2 0 -6 1t-6 1l-14 2l-11 14q-27 41 -27 93q0 18 3 38q14 66 53 109q-4 12 0 25l4 22l23 8q27 8 43 49q20 51 49 70q0 14 4 27q6 12 29 35q14 14 12 22l-6 29l20 14q12 8 25 10q18 74 119 197q39 47 67 94q-18 43 -46 80t-41 51.5t-52 50.5q-96 86 -156 189q-8 10 -55 57 q-57 59 -83 90q-26 32 -56 92q-28 57 -27 110v7z" />
<glyph unicode="Y" horiz-adv-x="1366" d="M29 1489q2 25 8 33l29 6q2 0 9 1t11 1q25 4 37 4q16 0 27 -6q8 0 20 1t16 1q90 0 140 -53q20 -25 53 -103q31 -86 70 -102l14 -6l6 -13q18 -39 104 -153q53 -59 95 -127q43 -27 98 -99q45 -55 61 -67q39 53 84 154q8 20 21 43l8 22h12q8 25 19 45q10 12 6 16q2 23 -12 29 q8 10 17 17.5t13 9.5l6 2l9 4q2 4 2 25v20q2 47 61 90q12 8 19 14q6 25 34 78q33 76 37 105l4 28l31 4q20 4 27 5q18 0 39 -11q2 0 18 -4h18l13 -14q32 -44 32 -133q0 -31 -4 -68q-4 -16 -4 -26q-2 -29 -10 -55.5t-24.5 -59.5t-25.5 -50.5t-33.5 -58.5t-31.5 -51 q-74 -100 -92 -162v-8q4 -27 -2 -41q-16 -37 -61 -100q-8 -16 -28.5 -51t-34 -60.5t-21.5 -48.5v-2q6 -23 -4 -35q-4 -12 -33 -57q-18 -27 -21 -35q0 -2 -75 -145q-8 -16 -32 -60.5t-36 -70.5q-8 -18 -33 -37v-2q2 -18 0 -33l-32 -8q-14 0 -29 -27q-20 -31 -31 -41l-14 -16 l-23 8q-6 2 -14 2q-10 0 -25 -6l-36 -12l-31 -7l-15 29q-20 39 -51 55q-33 -4 -39 17l7 33q6 35 49 61q2 0 10 4q23 84 100 154q0 39 31 88q20 29 22 51l3 18l10 15q2 2 7 3t7 1q8 27 43 80q2 6 9.5 18t11.5 19q-8 4 -45 36q-137 123 -179 205l-18 23q-244 274 -369 473 q-8 12 -14 20q-56 78 -56 142q0 6 1 12z" />
<glyph unicode="Z" horiz-adv-x="1251" d="M-29 57l9 39q8 14 14 39q39 96 82 119q25 70 61 100q-8 0 -12 4l57 50q6 4 15 24q29 51 65 62q16 25 23 36q43 90 104 121q0 6 2 11q0 2 1 6t1 8v26l21 11q41 14 80 80q41 76 100 104q16 61 86 113q4 4 16.5 14t18.5 17.5t14 19.5t12 29l4 12l13 8q66 55 96 107h-63 q-150 0 -306 -25q-2 0 -39 -6l-18 -17l-33 7l-2 -2q-2 -2 -6 -2.5t-6 -2.5q-2 -12 -21 -22l-10 -6h-12h-35h-49h-47q-88 0 -154 24l-12 6l-8 13q-13 21 -13 52q0 26 9 58q0 4 2 10.5t3 11.5t1 7l-2 33l37 6q23 4 43 12q55 23 96 23q16 0 24 -2v2l41 4h15q14 0 20 -2h17h4v2 q-6 20 8 35l51 -11q8 -4 18.5 -4t43.5 4q4 0 23.5 3.5t27.5 3.5q27 0 47 -7q0 4 6 7q6 14 20 16q6 0 11.5 -3t7.5 -7l2 -2q20 -8 25 -9q2 0 4 3q6 0 10 2q20 4 36.5 4t35.5 -6q43 14 67 14h8q-10 8 2 22l45 -24q14 -6 37 -6q18 0 23 4q39 16 53 28q8 -6 8 -13t-4 -11l-4 -4 q8 2 20.5 2t20.5 -2q-2 2 -3 5t-3 12t2 18l59 -35l21 -10h2q27 6 47 6q57 0 90 -35q33 -27 62 -72q8 -14 12 -29q0 -8 -6 -14t-13 -8l-6 -2q-156 -104 -221 -275q-4 -16 -8 -26q-8 -4 -14.5 -4t-8.5 2l-4 2h-2l-6 -6q-8 -8 -29.5 -34t-33.5 -40q-57 -78 -84 -129l-17 -25 h-22q-6 -6 -6 -26l-7 -10l-10 -13q-104 -117 -237 -280q-51 -70 -131 -158h53h39h45q47 0 71 10l23 8l18 -16q25 -18 47 -18q41 0 76 -13q18 6 39 6q16 0 25 -2h14q10 0 18 9l21 16l23 -16q29 -20 118 -21q76 -4 99 -10q45 -12 71 -47q45 4 60 -4q8 -2 9 -11.5t-1 -17.5 l-2 -8q0 -8 10 -19q31 -31 37 -61q0 -51 -16 -78l-31 12q0 -27 -27 -43q-4 12 -11 19.5t-11 9.5h-4q-6 -27 -13 -31l-12 9q0 -2 -1 -4.5t-4 -6.5t-7 -4l-41 17q-10 8 -31 8q-10 0 -31 -4q-4 0 -17 -1t-20 -1q-47 0 -75 22q-12 -4 -41 -4q-33 0 -60 8q-29 10 -61 13 q-10 2 -27 2q-27 0 -67 -5q-33 -4 -66 -4q-49 0 -115 21q-137 -16 -204 -17q-27 0 -35 3q-29 -16 -90 -21q-49 0 -64 -12l-18 -15l-23 9q-29 12 -65 18l-19 4l-8 21q-6 23 -6 59q-27 -10 -27 14z" />
<glyph unicode="[" horiz-adv-x="681" d="M121 154l2 12q8 18 18 27q-2 55 6 137q10 92 11 129v2q2 25 18 45q0 8 -4 20q-18 109 6 174q0 6 -1 15.5t-1 13.5q-8 45 12 66v2q-6 109 7 366q2 8 2 33q-14 23 -25 80q-8 49 -18 63l-7 9v8q-6 41 15 65q10 12 41 25h4l2 22l33 2h4q18 0 28 -6l9 11q55 16 118 16 q115 0 187 -41q37 -23 57 -86q2 -18 14 -37l7 -6v-10q4 -18 -7 -39q4 -33 -2 -41q-2 -4 -12 -4t-18 2h-9q-8 0 -26.5 4t-28.5 4q-47 10 -92 10q-33 0 -45 -12q-2 -2 -5 -4t-5 -2q20 -80 16 -197q10 8 12 0l2 -43q-6 -115 -10 -323q0 -219 -18 -344q8 -31 -4 -80 q-12 -76 6 -121l10 -27l-20 -18q0 -2 -4 -10h2q20 -37 16 -70q4 -23 -10 -37l-8 -8l4 -8q0 -2 2 -7.5t2 -7.5v-2l24 -43l-22 -24v-4q2 -6 2 -19q29 -23 119 -35q2 0 5 -1l6 -2l6 -2t7 -1l25 -4l6 -22q6 -10 24 -25q39 -35 46 -80l4 -16l-13 -15q-45 -55 -129 -55h-22 q-2 0 -10.5 1t-10.5 1q-4 0 -12 -1t-12 -1q-12 -18 -31 -18h-10q-6 0 -15.5 1t-13.5 1l-8 -17l-31 6q-63 14 -106 70l-23 23q-2 2 -8 2q-33 12 -37 18q-33 41 -39 152q-2 59 6 137q-12 25 -8 96q4 68 -6 94z" />
<glyph unicode="\" horiz-adv-x="569" d="M-35 1491q4 8 15.5 13t19.5 7h8q14 4 19 9q12 12 39 12q12 0 20 -2q39 -8 49 -29l2 -2h2q31 -16 41 -51l6 -6q35 -53 35 -86q12 -55 45 -162q2 -8 6 -20q27 -29 43 -84v-3q6 -23 12.5 -67.5t10.5 -67.5q25 -129 53 -202l4 -9v-10q-2 -49 23 -123q0 -6 4 -26 q8 -45 53 -179q70 -215 111 -374l2 -9l-2 -8q-4 -35 -33 -57l-2 -2q4 -14 0 -37q-4 -6 -14.5 -8t-18.5 -2h-8q-12 4 -23 4h-14q-2 0 -7 -1t-9 -1q-20 0 -39 6l-10 2l-7 6q-45 35 -75 174q-20 20 -23 35q-6 23 -2 47q4 12 0 23q-6 33 -27 106q-8 29 -24 90q-27 113 -29 135 q-37 111 -45 152q-2 10 -4 21.5t-4 24.5t-4 22q-4 47 -14 79q-2 10 -13 31q-10 25 -12 56v17v20.5v17.5v35q-2 18 -23 75q-4 10 -10 28.5t-10 27.5q-68 225 -105 317q-8 23 -12 35z" />
<glyph unicode="]" horiz-adv-x="681" d="M-31 -319l4 24q10 59 52.5 97t97.5 38q18 0 27 -2l34 -8v-2q29 8 39 8q16 0 35 -14q14 0 21 -2h16q-6 66 -6 286q2 27 2 72q0 66 -10 144q-8 90 -11 145q0 10 13 35v2q0 121 8 354q4 70 4 115v10l10 12l2 4q4 4 6 7q-4 29 4 94q8 88 5 112q-37 8 -101 52q-43 27 -61 32 q-82 29 -82 129v33q-2 35 6 49q8 4 18.5 2t20.5 -6l10 -4q6 -2 21 -2q25 0 36 2q33 4 48 4h2q12 0 43 -12q2 0 6 -1t7 -2l6 -2t5 -1h12h48q152 0 231 -74l16 -14l-4 -21q-12 -92 -30 -188q-43 -233 -39 -416v-98q-12 -348 30 -774v-4v-7q-6 -33 -6 -102q-4 -100 -12 -141 q-16 -92 -74 -109l-8 -2l-8 2q-31 6 -107 29q-51 18 -84 18q-35 0 -69 -28l-10 -11h-17q-23 0 -43 13l-4 -7l-25 9q-14 4 -28 12l-4 -2l-27 18q-51 39 -63 84z" />
<glyph unicode="^" horiz-adv-x="1196" d="M147 696l5 19q8 31 10 65q14 109 45 142q23 125 125 286q6 12 22.5 39t24.5 42.5t20.5 39t18.5 44t10 42.5l2 15l10 8q18 20 29 73l6 33l37 -2q156 -12 238 -115q61 -72 100 -210q49 -141 102 -203l15 -13l-6 -22q-2 -2 -3 -6q23 6 31 -6l-8 -39q-6 -20 25 -90 q20 -33 22 -52q27 -27 29 -59l2 -31l-31 -6q-6 0 -33 -22q-35 -31 -53 -39l-12 -4l-12 4q-49 8 -84 65q-25 27 -43 33l-31 8l4 33q0 12 -19 84q-2 10 -9 28.5t-11 28.5q-31 -12 -45 2l8 39q10 57 0 78l-8 12l-14 21q0 2 -3.5 8t-6.5 13.5t-3 13.5q-2 10 -9 23.5t-9 19.5 q-6 8 -14 24q-2 2 -7.5 15.5t-9.5 23.5q0 2 -2 6q-23 -61 -41 -94q-18 -49 -24 -57q6 -8 8 -31q8 -33 -6 -45q-8 -4 -16.5 -2t-14.5 4l-8 4q-12 -29 -17 -35q-2 -4 -8 -10q0 -2 1 -7t1 -9v-11l-10 -6q-41 -63 -57 -155q-18 -88 -45 -146l-7 -22l-20 -2h-23q-98 0 -159 96z " />
<glyph unicode="_" horiz-adv-x="1024" d="M-34 -144.5q-1 5.5 3 11.5q2 6 12.5 9t18.5 1h10h6q2 0 7 4q4 0 6 2l14 8l16 -4q18 -6 35 -6h15h22l47 4l2 -6q8 2 25 2q33 0 55 -6q2 0 6 -2h4q16 4 29 18q8 0 12 -3t4 -7l2 -2q8 2 29 2q16 0 23 -4q12 8 32 8l17 2l12 -8q8 -4 29 -8l4 -2v6l35 -6q18 0 26 -2 q29 -4 39 -4q4 0 25 4q12 6 20 6l23 -14l4 4q8 10 10 16l17 2q2 0 26 -6q16 -4 23 -4q4 0 6 2q16 18 26 21l17 -13h8q41 -6 57 -14q14 18 41 18h6q16 10 52 17q2 0 4 1t4 1q10 4 20 20q12 -2 21.5 -9t11.5 -13l2 -6q18 -6 23 -9l20 -20l-4 -10l12 -7l9 -2l2 -12v-6 q14 -14 18 -43q2 -14 2 -23q0 -27 -4 -30l-27 -2q-2 -2 -14 -11l-10 -6l-10 2h-17q-31 0 -55 -6q-49 -8 -78 -8h-10h-2h-2q-29 4 -66 4q-10 0 -34.5 -1t-41.5 -1q-57 -4 -73 -4q-47 0 -99 10q-29 -4 -53 -4h-16q-10 2 -27 2q0 -6 -5 -9t-11 -3h-4l-25 4q-8 0 -20 12 q-20 -4 -78 -4q-35 0 -66 2q-162 12 -223 29l-23 6l-4 21q0 2 -2 4q-14 47 2 75q-2 0 -3 2t-2 7.5z" />
<glyph unicode="`" horiz-adv-x="681" d="M43 1499l12 12q12 16 37 29q14 8 19 14l6 23l30 6q6 0 13.5 1t9.5 1q10 0 14 -2h6q23 -2 35 -18q6 2 17 2h12q78 0 100 -43q8 -14 8 -33l15 4l18 -18q49 -51 41 -111q-2 -18 2 -35q8 -27 54 -74l10 -12v-16q0 -25 -10 -47q-21 -47 -64 -47q-57 0 -127 28l-4 2 q-109 51 -176.5 136t-75.5 182z" />
<glyph unicode="a" d="M16 340l2 8q12 82 13 182q2 14 3 47t1 50l2 37q2 0 4 2t5 8t1 14q-4 16 1 24.5t13 8.5h7q0 14 28 16q-8 25 8 41q10 16 25 19q0 12 2 18q6 18 35 39q20 12 18 37q-2 31 4 39q8 10 18.5 11t16.5 -3l6 -4q10 37 39 22q2 16 21 37q10 8 21.5 5t19.5 -11l8 -6q14 10 14 18 q2 2 4 6.5t5.5 16.5t-1.5 20q14 6 22.5 3t14.5 -9l4 -6q2 2 5 2q16 4 28 4q8 0 12 -2q-2 12 7 19q6 2 13 1t13 -3l6 -2h13q35 0 59 -11q25 6 57 6q74 0 131 -34q57 -37 78 -84q55 -10 103 -58q23 -27 43 -34l20 -11v-24q-2 -63 -10 -164q-12 -128 -12 -220q0 -51 4 -91 q16 6 20 -11v27q-2 12 10 18l41 -6q2 -2 15 -10q14 10 28 10q16 0 33 -12q12 -10 12 -43q10 -14 15 -29q8 -29 10 -47q0 -6 4 -19.5t4 -19.5l6 -22l-16 -15q-27 -27 -49 -88q-18 -39 -28.5 -56t-46.5 -43t-85 -34l-20 -4l-15 17q-14 14 -35 38q-59 72 -83 91l-5 4l-4 6 q-20 39 -24 114q-12 -27 -29 -16q-74 -106 -133 -149q-96 -78 -215 -78q-78 0 -152 30l-12 7l-6 10q-37 51 -43 59q-117 178 -148 283zM276 311q1 -39 5 -51q33 -8 65 -51q12 -18 23 -25q29 16 41 25q78 47 118 96q23 29 47 68q31 111 134 209q4 27 8 54.5t8 59t6 52.5 q-20 10 -57 36q-29 25 -39 27t-27 10q-12 4 -16 4q-41 0 -53.5 -5t-42.5 -32q-4 -4 -13.5 -11t-13.5 -11l-25 -27q-2 16 -18 17q-51 -51 -51 -87v-5v-25l-23 -8q-33 -20 -49 -92q-7 -44 -7 -82q0 -25 3 -47v-33l-20 -23q2 -8 -3 -43z" />
<glyph unicode="b" horiz-adv-x="1251" d="M113 1473l2 28l28 8q29 4 39 4q39 0 94 -38q16 -12 21 -15q2 2 5 4t11.5 5.5t14.5 0.5l16 -36q31 -98 35 -314q0 -141 16 -223l8 8q41 23 48 45l10 23q15 11 30 11q21 0 41 -23q45 20 109 20q47 0 68 -2q41 -4 59 -4q16 0 25 2l22 2l14 -21q12 -18 72 -24q102 -4 137 -68 q49 -27 84 -159q2 -4 3 -7.5t1 -7.5q23 -92 39 -108l6 -6l5 -9q19 -48 19 -99q0 -31 -7 -62q-10 -68 -64 -146q-76 -113 -213 -209q-39 -29 -139 -63q-57 -20 -82 -33l-16 -4l-17 4q-6 2 -20 2h-16q-2 0 -7.5 -1t-9.5 -1q-2 0 -11 1t-13 1q-23 -16 -84 -27q-41 -6 -45 -10 q2 -14 -19 -20q-8 -2 -16 0t-15 4l-4 2q-16 12 -22 16q-2 0 -6 2q-2 2 -15 2h-10h-22l-13 19q-43 68 -64.5 135.5t-26.5 109t-9 127.5q0 31 -2 43q-10 43 -25 58l-5 5t-11 7t-14 -2q-6 8 -7.5 19.5t0.5 17.5l2 6q2 14 27 68l6 12q-4 31 -11 89t-9 85q-50 394 -50 634 q0 61 3 112zM463 487q-2 -18 8 -53q14 -57 14 -80q-2 -33 -6 -63q-2 -20 -2 -35q0 -31 8 -45h13q12 0 32 -4l11 14v10l18 13q23 12 55 12h21h18h11q-12 27 16 33l25 -13q8 4 12 9.5t4 9.5l2 4l4 -4q4 -2 11 -5t14 -1q4 0 15 4t17 4q20 39 54 57q-2 2 -3 4t-2.5 10.5 t3.5 14.5q4 8 14 13t18 5l11 2q10 0 28 35q18 31 25 64q-72 221 -262 221q-100 0 -191 -53q2 -16 2 -34q0 -48 -12 -108q-2 -12 -6 -41z" />
<glyph unicode="c" d="M70 537q4 63 41 155q29 61 28 99v26l23 10q31 12 74 95q25 63 51 86l18 10q25 6 55 26q6 2 10.5 4.5t6.5 3.5t4 1l2 2q12 4 20 4q6 0 11 -2q10 8 12 35l25 -7q10 20 24 29l6 4h8q162 31 193 35l12 2l13 -6q123 -63 192.5 -165.5t83.5 -238.5l2 -16l-10 -14 q-43 -53 -107 -68l-16 -4l-12 8q-59 35 -103 158q-37 92 -61 98q-31 -14 -64 -24q-94 -41 -127 -49q-41 -74 -116 -175q-20 -33 -31 -47q-12 -64 -12 -124q0 -136 61 -255q57 -35 211 -63q109 31 160 67.5t92 120.5l18 37l29 -6l12 21l39 -7q117 -18 160 -86q17 -28 17 -63 q0 -30 -13 -64l-2 -8l-8 -6q-131 -113 -254 -170q-152 -68 -328 -80h-14l-10 6q-8 4 -68 15q-61 4 -86 16h-4l-2 2q-139 84 -207 242q-60 136 -60 296q0 17 1 34z" />
<glyph unicode="d" horiz-adv-x="1251" d="M109 414q-1 12 -1 24q0 124 93 254q82 111 174 160q0 31 8 47q2 2 4 5t2 5l12 31l31 -4q12 0 25 -4l2 2q18 41 65 41q23 0 51 -8q25 -6 46 -6q8 0 11 2t5 14l8 35l37 -4q25 -4 41 -4q37 0 53 -3q0 6 1 18.5t1 16.5v9q0 30 -12 59l-6 12l6 17q21 63 21 150q0 17 -1 36 q-1 17 -1 33q0 77 16 141l4 8l6 6q20 20 66 25q12 6 12 8q-4 16 6 21q10 2 22.5 0t20.5 -5l10 -4q55 -25 68.5 -63.5t15.5 -110.5q2 -14 2 -41q2 -32 2 -58q0 -69 -12 -93q22 -70 22 -218q0 -46 -2 -100q0 -10 -1 -31.5t-1 -29.5q35 -90 35 -208q0 -40 -4 -83 q51 -192 51 -282v-7q25 -37 27 -90q0 -72 -33 -108l-10 -11h-14q-12 -2 -31 -7t-25 -7q-37 -16 -63 -16q-31 0 -57 14l-19 10l-2 21q0 6 -6 18q-14 25 -14 45q-14 -12 -48 -37q-53 -39 -73 -61q-10 -14 -25 -18q-6 6 -14 8t-12 2h-7q-119 -41 -219 -41q-195 0 -295 135 q-53 66 -69 158q-5 31 -5 62q0 42 9 85q-10 10 -10 25zM358 354q16 -41 19 -63q14 -49 27.5 -64.5t56.5 -25.5h20q29 0 43.5 -2t40.5 -2h11.5h9.5l2 2q6 6 10 6q61 45 92 45h2q27 37 90 63q18 10 23 11q-2 18 -2 55q1 15 1 29q0 66 -16 100l-14 35l31 14q3 12 3 30 q0 24 -5 60q-4 27 -19 86q-35 0 -79 8q-270 -94 -345 -299q4 -4 5 -8q12 -23 0 -61z" />
<glyph unicode="e" d="M-47 399v23q0 68 45 131q10 16 12 22l13 31l32 -8q10 -4 23 -4h12q6 2 16 2q14 0 39 -10l5 4q8 43 32.5 88t43 70.5t59.5 76.5q39 43 73 99l4 6l11 6q6 2 21.5 7t21.5 9q45 12 49 31q2 25 18 41q10 2 19.5 -1t13.5 -7l4 -4q12 6 53 18q20 6 23 6l10 15h31q18 -6 59 -7h37 q16 2 47 3q76 0 133 -27l15 -6l4 -17q8 -23 33 -41q47 -29 53 -86q3 -18 3 -36q1 -40 -15 -82q-22 -60 -48 -91.5t-75 -80.5q-25 -25 -35 -29l-10 -10l-13 -2q-12 -4 -32 -4v-3l-9 -28l-28 -2q-25 -4 -70 -49q-6 -4 -25.5 -18.5t-36 -23t-32.5 -10.5q-6 -6 -6 -10 q-4 -20 -21 -33q-8 -2 -20.5 1t-20.5 6l-8 4l-2 2q-10 0 -16 2q-29 -16 -101 -27q-55 -10 -61 -22q0 -2 1 -6.5t1 -6.5q2 -6 8 -28v-4q47 -72 199 -72q43 0 65 4q37 6 105 39q25 6 78 22q29 10 77 19l41 8q2 2 2 5t2 5q27 31 43 35q6 2 17 2q20 0 37 -12q2 2 8 18 q0 2 6 10.5t11 14.5t16.5 13t23.5 11l29 9l14 -27q37 -53 51 -186l3 -27l-21 -10q-135 -86 -309 -148q-168 -55 -385 -61h-6h-7q-125 33 -204 102q-94 80 -103 199l-24 10l4 27q4 47 -6 57q-4 6 -47 10q-55 8 -93 31zM397 582q31 10 78 34q53 33 107 37q47 72 125 80 q8 12 57 47q41 31 47 45q-31 10 -74 11q-61 0 -124.5 -34t-101.5 -70.5t-99 -104.5q-2 -6 -7.5 -21.5t-7.5 -23.5z" />
<glyph unicode="f" horiz-adv-x="681" d="M18 666q-13 31 -13 59q0 39 24 74q20 31 69 47l17 8q20 10 96 25q-6 129 -8 161q-3 69 -3 97q0 14 1 18q4 37 18 78q16 74 21 147v9l4 6q23 35 78 73q6 6 17 14.5t19.5 14.5t12.5 14q8 14 18 33q12 2 20.5 -2t10.5 -8l2 -4q25 8 33 8q25 0 59 -18q66 -35 127 -97 q31 -27 76 -59q14 -14 28 -25q0 -8 -4 -14t-8 -8l-4 -2v-2q31 -31 31 -62q0 -18 -21 -61q-25 -43 -57 -43q-10 0 -14 2q-6 -2 -19 -2q-29 0 -49 33q-33 8 -49 22q-10 18 -14 33q-2 0 -7 4q-14 10 -32 33q-20 -4 -41 -10q-29 -29 -29 -152q0 -113 16 -211h2q2 2 11 2h2 q4 0 13 -1t15 -1q6 -2 21 -2h18q39 0 92 -6l11 -2l8 -10l16 -17q29 -29 66 -55q10 -8 16 -16l-6 -31q-16 -37 -56 -59.5t-69 -29.5t-86 -18l-49 -6q-14 -38 -14 -110q0 -29 2 -64q8 -113 30 -215q37 -25 41 -113q0 -72 -14 -118q-35 -72 -100 -78h-2h-2q-12 0 -49 4t-46 4 h-4q-29 -2 -43 6l-2 35q0 8 -4 53q-5 36 -5 60q0 18 3 30q-19 39 -19 90q0 32 7 68q-24 37 -24 127q0 33 3 72q4 53 4 80q-2 10 -2 20l-12 -6q-16 -8 -24 -10q-20 -4 -25 -4q-20 0 -37 12q-18 -6 -31 -6q-14 0 -20 2l-14 4l-7 6h-2q-29 6 -37 29q-8 20 -2 41z" />
<glyph unicode="g" horiz-adv-x="1251" d="M100 -53q14 76 117 133q20 10 29 10q2 -4 9 -9t13 -7l6 -2q6 -4 19 -4l33 -5l4 -32q10 -102 106 -164q100 -68 226 -68q106 0 186 51q27 49 31 117q1 24 1 45q0 39 -4 70q-8 47 -26 131q-2 6 -5 18.5t-3 16.5q-12 -4 -21 -4q-14 0 -30 10q-143 -74 -297 -74 q-182 0 -275 115q-51 61 -72 190q-6 45 -6 87q0 78 21 147q35 102 129 209q102 113 215 155q47 18 242 74l10 2l10 -2q23 -6 55 -24q33 -16 47 -19l25 -2l8 -20q10 -20 47 -54q43 -39 43 -71q-2 -43 -84 -103l-22 -14l-23 12q-18 12 -41 12q-47 0 -86 33 q-61 -2 -112.5 -29.5t-79 -56t-74.5 -88.5q-16 -20 -53 -65l-6 -50q-9 -43 -9 -76q0 -25 5 -44q12 -43 77 -74q16 -4 52 -4q98 0 231 78q14 8 39 20q1 17 1 36q0 70 -17 163l-5 24l21 17l22 22q43 47 82 54h27q61 0 96 -37q36 -39 36 -157q0 -32 -3 -69q0 -6 -1 -18t-1 -18 q-1 -6 -1 -14q0 -44 19 -138l2 -4q2 -10 13 -23q18 -31 20 -41q6 -22 6 -50q0 -23 -4 -50v-18q-2 -10 4 -58q0 -4 1 -12t1 -10q4 -25 -14 -43q4 -37 8 -51q14 -109 13 -123v-18q0 -127 -82 -214q-72 -72 -181 -104q-91 -31 -200 -31h-15h-16q-82 2 -120 9t-52 36v2h-4 q-74 16 -86 23q-8 4 -21 8q-63 18 -73 53q-2 2 -10.5 5t-12.5 5l-4 4q-12 -4 -18 -4q-33 0 -54 33q-2 4 -14 35q-2 12 -8 22q-65 81 -65 154q0 15 3 29z" />
<glyph unicode="h" horiz-adv-x="1251" d="M115 825q0 14 8 25.5t16 17.5l6 4l-2 5l-6 6q-23 23 -20 53v2v2q7 48 7 110t-7 138q-10 83 -10 154q0 78 12 141l4 18l18 10q41 20 72 21q45 0 72 -39q14 -20 20 -51q6 -25 17 -43l4 -8v-7q2 -12 -4 -38q-2 -6 -3 -17q0 -8 17 -35q8 -10 14 -26q2 -9 2 -21q0 -19 -6 -43 q-10 -27 -2 -57q31 -127 39 -348q37 47 82 90q12 8 33 24q27 12 26 23l6 33l33 2q14 0 39 6q47 10 105 10q41 0 59 -4l14 -2l11 -12q2 -2 9 -4t17 -4.5t14 -4.5q66 -14 87 -34q14 -16 22 -43q4 -18 10 -25q16 -18 51 -71.5t41 -77.5q4 -18 -2 -35q16 -12 25 -33 q25 -63 33 -246q14 -139 18 -162q4 -8 4 -14q22 -70 22 -123q0 -57 -26 -92q-43 -47 -131 -47h-6h-16l-13 12q-41 39 -62.5 107.5t-26.5 121t-9 152.5q-4 143 -16 209q-2 2 -7.5 17.5t-9.5 21.5q-29 74 -55.5 102.5t-87.5 28.5h-25q-37 -20 -80 -74q-33 -43 -79 -121 q-4 -8 -5 -26q-4 -25 -10 -41q-8 -20 -22 -31q-10 -39 -19 -113q-5 -54 -5 -125q0 -54 3 -118l2 -39l-10 -12q-37 -33 -96 -74l-19 -10l-18 6q-90 37 -109 145q-5 32 -5 70q0 46 7 100v4l-2 2q-14 16 -14 35q-2 31 -5 91.5t-5 90.5q-8 174 -19 252l-16 19q2 2 3 4t3 10t2 16 q0 10 -5 19.5t-9 13.5z" />
<glyph unicode="i" horiz-adv-x="569" d="M96 258q2 49 25 162q14 66 18 102.5t4 118.5q0 80 4 119q2 25 19 57q14 25 2 49l-12 23l18 20q41 45 92 45q35 0 92 -28q16 -8 35 -15l21 -8l4 -20q15 -65 15 -166q0 -107 -17 -254q-16 -142 -16 -234q0 -73 10 -116l2 -11l-2 -10q-31 -94 -129 -139l-2 -2q-17 -6 -31 -6 q-39 0 -60 32q-4 6 -8 15q-14 6 -26 24q-2 0 -2 2t-2 5q-42 45 -44 73v7q0 29 19 87q-2 2 -2 4.5t-2 4.5q-25 29 -25 59zM123 1399l4 24l25 9q39 12 55 53q4 23 20 28q8 2 17.5 0t15.5 -6l6 -2q2 -2 7.5 -4t9.5 -4q18 -14 30.5 -14t20.5 2l8 2h6q47 -4 62 -57l2 -5l20 -6 l6 -24q7 -31 7 -60q0 -71 -44 -127q-53 -61 -143 -61q-23 0 -35 2l-16 2l-10 12q-79 92 -79 189q0 23 5 47z" />
<glyph unicode="j" horiz-adv-x="569" d="M-133 -166q33 113 166 113h14l12 -10q37 -34 37 -89q0 -13 -2 -26q-6 -29 0 -39q4 -16 12 -23q18 12 29 21l21 14q31 20 51 105q16 80 20 184q1 16 1 35q0 137 -50 444q-43 271 -43 377q0 23 2 39l4 41l41 -4q31 -4 90 -33q23 -14 41 -18l25 -9l4 -26q10 -78 53 -258 q33 -141 49.5 -218t33.5 -206q12 -87 12 -162q0 -37 -2 -70q-9 -104 -42 -192q2 -2 3.5 -6t2.5 -8.5t1 -6.5q0 -12 -7 -24q4 -12 4 -25q0 -38 -32 -88q-16 2 -29 -14q-6 -6 -6 -13.5t2 -11.5l4 -4l-12 -14q-27 -35 -49 -39q-8 -25 -29 -35q-14 -8 -37 -8q-4 0 -15 1t-18 1 q-8 2 -20 2h-2h-6h-4q-12 -2 -33 -2q-74 0 -113 16q-18 8 -65 17l-9 2l-6 4q-59 35 -92 117q-19 50 -19 95q0 28 7 54zM37 1317q4 20 8 24q-11 17 -11 36q0 16 7 32l8 21l14 2q2 27 19 51q33 39 96 39q68 0 129 -39l27 -17l-10 -30q-2 -12 14 -45q22 -48 22 -89.5t-22 -76.5 l-10 -17l-17 -2q-29 -6 -45 -14q-57 -25 -108 -25q-20 0 -31 2h-10l-11 9q-29 23 -50 64q-19 36 -19 69v6z" />
<glyph unicode="k" d="M123 1540q0 33 6 37h39q47 -6 115 -51q41 -27 59 -29l23 -6l6 -25q41 -145 57 -467q10 -203 16 -264q4 4 39 37t54 49q70 68 108.5 102.5t102 81t114.5 66.5l23 10l18 -16q29 -23 53 -82q8 -29 19 -45l10 -16l-6 -17q-18 -51 -88 -94q-47 -31 -55 -53q-6 -10 -9 -23 q-6 -4 -15 -5t-15 -1l-6 2q-4 -14 -29 -47q-29 -39 -103 -86q-61 -47 -71 -59v-11q0 -27 -13 -43q-6 -8 -18 -20q2 -2 7 -5t7 -5q35 -23 174 -74q80 -29 112 -41t96.5 -49t113.5 -84q45 -47 53 -92q0 -6 8 -13q2 -2 5.5 -7t7.5 -17t2 -20.5t-9.5 -13.5t-11.5 -7h-6 q-6 -27 -24 -39q-2 -2 -4.5 -4t-10.5 -4t-16 -2t-14.5 3t-6.5 5l-2 4q0 -2 -4 -5t-12 -5t-21 2l-14 10q-2 2 -115 55q-168 78 -206 115q-27 6 -95 39q-80 39 -112 43q-11 -27 -11 -82q0 -37 5 -86q4 -46 5 -78q0 -11 -1 -20l-2 -27l-25 -8q-30 -10 -59 -10q-66 0 -122 35.5 t-67 93.5q-2 10 -2 26q0 32 8 86q10 43 10 72q0 13 -2 23q-6 34 -40 45l-31 14l6 33q14 61 33 108q25 65 25 116q0 9 -1 17q0 16 -10 99q-6 31 -14 100q-2 12 -2 31q0 29 4 76q2 25 2 47q0 85 -25 125l-6 12l2 10q4 29 4 66q0 65 -12 153q-11 93 -11 155q0 31 3 54z" />
<glyph unicode="l" horiz-adv-x="569" d="M132 96q-3 29 -3 57q0 41 6 83q0 4 3 41.5t3 58.5q0 43 13 125q10 74 10 114v13q-15 299 -15 513q0 48 1 91q0 16 -1.5 38.5l-3.5 52.5t-2 46q-5 94 -5 142q0 24 1 36l2 25l25 10q12 4 24 4q33 0 80 -43q31 -27 47 -26h2q20 2 39 -2l7 -33q61 -403 61 -921 q0 -230 -12 -482q-2 -47 -31 -51l12 -19q4 -16 -16 -22q-21 -10 -66 -10q-92 0 -137 49q-37 40 -44 110z" />
<glyph unicode="m" horiz-adv-x="1820" d="M109 1010v24l18 13q50 32 90 32h2q49 0 84 -41q27 -29 41 -80q18 -57 35 -202q0 -6 1 -21.5t3 -21.5q18 45 37 114q4 14 8 19v2q20 41 84 104q53 49 66 90l2 9l6 8q41 43 112 43q27 0 41 -2h29q18 0 20 2l25 14l23 -16q16 -12 53 -33q76 -39 102 -92q8 -12 13 -53v-13 q23 -8 30 -26q8 -14 13 -47q53 123 147 262l20 32l27 -4h4q8 0 41 4q41 8 66 9q16 0 36.5 -4.5t41.5 -24.5l20 10l25 -35l32 -49q35 -53 39 -59q12 10 21 -6l32 -86q41 -111 41 -264v-27q35 -25 35 -57q4 -16 -4 -27l10 -4l2 -27q2 -11 2 -21q0 -27 -12 -46q23 -14 27 -31 l-4 -31q-8 -16 -8 -43q0 -24 6 -57q8 -40 8 -73q0 -37 -10 -64q20 -8 28 -25l-20 -37q-6 -10 -23 -26q-18 -18 -20 -33l-6 -29l-29 -2q-10 -2 -29 -2q-57 0 -110 30.5t-82 82.5q-21 41 -21 78q0 24 9 47q-12 63 -12 176q0 24 1 51q2 66 2 122t-16 118.5t-49 119.5 q0 -4 -8 -18q-2 -2 -5.5 -9t-5.5 -9q8 -20 7 -37l-3 -13l-6 -8q-45 -55 -84 -184q-49 -141 -84 -189q1 -18 1 -37q0 -64 -15 -143q-8 -35 -20 -106l-5 -25l-22 -8q-31 -10 -55 -10q-88 0 -158 131l-4 8v10q-2 31 -2 90q0 139 -3 217t-17.5 188.5t-45.5 219.5q-18 -2 -18 -6 q-4 -4 -4 -23q2 -16 -4 -28q-4 -6 -10.5 -9.5t-10.5 -3.5l-4 -2q-4 -4 -8 -6q-10 -10 -21 -14l15 -12l-25 -29q-16 -18 -35 -64q-27 -57 -47 -82q2 -61 -47 -139q-29 -53 -33 -67q-10 -41 -22 -131q-25 -211 -88 -281l-8 -8l-13 -4l-18 2q6 -23 -12 -25l-33 17 q-72 41 -135 98l-13 10v18q-10 164 -34 400q-33 340 -43 547z" />
<glyph unicode="n" horiz-adv-x="1251" d="M100 983q-2 29 2 41h41q8 14 33 20l14 5l15 -7q10 -6 35 -10q61 -18 88 -61l8 -13l-2 -14q-5 -34 -5 -76q0 -56 9 -125q16 70 47 91q10 59 64 108q29 33 36 53l7 19l20 6q10 2 27.5 7t25.5 7q80 31 133 33h9l10 -4q10 -4 86 -29q135 -37 184 -88l4 -4l4 -6 q115 -266 152 -457q26 -125 26 -237q0 -128 -34 -240l-4 -14l-13 -8q-20 -14 -47 -15h-20h-2q-12 -4 -23 -4q-31 0 -67 41q-2 2 -7.5 8t-9.5 10.5t-6 4.5l-37 4l2 30v23q3 69 3 131q0 269 -50 399q-27 72 -78 133.5t-88 61.5q-27 0 -51 -37q-14 -23 -47 -106l-37 -93 q-47 -86 -86 -204q-6 -20 -29 -25q-20 -55 -28 -184q-4 -129 -37 -203l-4 -10l-13 -4q-32 -21 -69 -21q-94 0 -156 125l-4 6v39q-16 602 -31 893z" />
<glyph unicode="o" horiz-adv-x="1251" d="M66 569l4 39q4 4 9 6t7 2h4q2 23 29 39q35 104 111.5 190.5t175.5 125.5q57 57 116 65h6q41 18 76 19q16 0 23 -2q14 2 41 2q82 0 151 -29q57 -27 107 -80q47 -6 67 -24q14 -14 21 -33l22 4l17 -21q12 -18 43 -45q37 -41 63 -79l2 -3l2 -2q35 -84 35 -170q0 -76 -27 -153 q-47 -127 -151 -252l-10 -10l-15 -2h-10q-18 -23 -76 -76q-45 -33 -59 -49l-14 -19l-25 2q-4 2 -10 2q-12 0 -17 -18l-6 -25l-22 -4q-102 -24 -163 -24h-5q-27 0 -49 6q-23 -16 -54 -8q-10 -4 -43 6l2 14q-68 2 -114 31q-47 27 -97 84q-53 20 -102 74q-33 37 -59 118 q-18 70 -18 153q0 69 12 146zM321 358q8 -52 37 -114q29 -43 103 -43q39 0 84 6q10 0 16 2q6 4 16.5 10t14.5 8l12 29l41 -4h10q33 0 80 41q53 41 70 51q27 66 106 119q2 0 4 2l7 31q17 65 17 118q0 23 -3 43q-10 8 -31 29q-43 43 -65 43h-52q2 2 4.5 5t5.5 13.5t1 20.5 q-2 2 -49 2q-92 4 -148 33q-27 -16 -57 -47q-78 -55 -101 -66q-12 -27 -41 -67q-33 -57 -47 -85t-28 -78q-9 -32 -10 -65q0 -18 3 -37z" />
<glyph unicode="p" horiz-adv-x="1251" d="M84 850v22l20 11q33 20 80 20q41 0 70 -16q33 70 51 92q47 66 109 78q4 12 18 28l19 23l26 -8h4q18 0 51 14q63 23 97 23q14 0 20 -2q29 -4 62 -33q10 -10 14 -12q33 -10 84 -25q8 -2 15 -5t15.5 -5t12.5 -4q0 -2 4 -2t4 -2q29 0 88 -33q8 -4 10 -6l13 -7l6 -12 q10 -20 31.5 -57t23.5 -39q37 -61 54.5 -97t30.5 -113q10 -59 10 -136q0 -24 -1 -49l-2 -21l-22 -10q-12 -12 -29 -57q-14 -31 -31 -101q-4 -12 -7 -22.5t-6 -19.5t-5 -13q-6 -20 -18 -27q-8 -4 -13.5 -3t-9.5 3l-4 2q-16 -10 -27 -14q-6 -6 -18 -14q-61 -47 -94 -68.5 t-94.5 -43t-145.5 -34.5h-6h-6q-41 8 -105 64q-18 18 -37 31q2 -6 3 -23q29 -274 38 -326q0 -4 2.5 -10t2.5 -10q14 -71 14 -110q0 -13 -2 -23q-10 -94 -101 -111q-16 -4 -20 -4q-21 -6 -39 -6q-27 0 -49 10l-16 8q-4 4 -8.5 10.5t-12.5 24t2 23.5q8 0 11 2t3 6v2q-2 4 -7 5 t-7 3l-4 6l-2 8q-20 80 -37 314q-2 18 -5 66t-5 69q-10 88 -31 197q-29 164 -39 266q-2 23 -20 110q-29 109 -33 193zM397 568.5q2 -17.5 19 -66.5q0 -2 2 -6q14 -35 18 -56q4 -18 0 -34q6 -4 125 -58q43 -18 47 -20q57 16 158 82q10 10 35 26l10 10l14 -2h2q14 0 22.5 14.5 t18.5 57.5q0 6 3 16.5t6 16.5q-5 17 -5 35q0 25 9 53q-6 82 -25 119q-8 14 -16 26l-13 6l-18 -10q-8 2 -15.5 8.5t-11.5 12.5l-4 4q-2 4 -22 39q0 2 -2 6q-16 -4 -25 -4q-43 0 -51 41h-4q-25 0 -49 20q-2 0 -2 -1t-2 -1q-14 0 -23 4q-6 2 -16 2q-100 -51 -133 -99t-46 -157 q0 -6 -1 -17t-3 -15q-4 -35 -2 -52.5z" />
<glyph unicode="q" horiz-adv-x="1251" d="M68 424q-3 32 -3 64q0 115 39 230q50 148 140 234l2 2l4 2q23 16 59 56q33 35 50.5 51t51 34.5t66.5 18.5q8 0 29 -4q31 16 76 16q27 0 98 -14l25 -6q57 -14 102 -80q53 -63 57 -135q1 -8 1 -15q0 -38 -17 -67q-27 -43 -74 -63l-53 -11q-6 0 -8 8.5t0 16.5v8 q-20 -2 -37 6l-4 35q0 51 -17 70q-23 14 -51 14q-57 0 -115 -35q-10 -14 -10 -16q10 -25 0 -37l-20 -16q-49 -25 -76 -54.5t-34 -49t-15 -58.5q-12 -61 -35 -103q-12 -23 -2 -45q0 -2 2 -3l6 -3t10 2q6 -6 9.5 -16t3.5 -17l-2 -6v-18t2 -10v-7q2 -6 10 -10l12 -12q8 2 23 2 q39 0 61 -23q4 4 6 5q35 27 76 41q16 47 96 137q61 66 72 92q4 23 18 27l31 -3h2q12 0 31 21q25 25 49 59q2 4 6 9q10 14 21 16h20q51 -10 75 -25.5t56 -54.5q8 -8 11 -12l16 -19l-8 -22q-27 -68 -40.5 -129.5t-17.5 -101.5t-12 -140q-2 -10 -3 -28.5t-1 -28.5q50 65 97 65 h1q16 0 33 -8q12 6 27 6q27 0 69 -28q14 -12 27 -15q31 -10 35 -30q2 -8 -2 -17.5t-8 -15.5l-7 -4v-2q4 -23 2 -52l-2 -20l-16 -8q-39 -25 -73 -56.5t-53 -58.5t-52 -74q-8 -10 -23.5 -32.5t-21.5 -30.5q1 -6 1 -13q0 -44 -24 -100q-14 -37 -10 -53l8 -18l-10 -17 q-54 -82 -115 -82q-8 0 -53 8l-25 9l-6 24q-37 184 -43 326q-2 54 -2 104q0 83 6 156q0 12 1 39.5t1 44.5q-27 -37 -38 -68l-7 -18l-20 -6q-33 -10 -78 -31q-131 -55 -250 -55h-26h-13l-10 6q-86 55 -135 151q-43 82 -55 195z" />
<glyph unicode="r" horiz-adv-x="796" d="M35 877q4 8 14 12t19 4h8q2 2 6 8q55 78 129 78q10 0 39 -4q33 -8 45 -57q2 -6 7 -30t9 -40q0 -2 1 -6t1 -6l2 2q8 18 21 51l12 33l10 32h29q20 0 70 37q59 45 90 45q8 0 24 -4q51 29 97 29q43 0 129 -53l2 -2l4 -5q37 -33 47 -112q0 -18 2 -23q8 -33 -2 -45l-37 -10 q-6 0 -20 -18l-15 -19l-24 6q-33 8 -49 8q-90 0 -164 -85t-115 -236q-3 -11 -3 -22q0 -28 19 -50l11 -14l-2 -16q-6 -25 -9 -31q0 -6 -4 -15v-2q0 -14 13 -67q20 -76 20 -139q0 -53 -14 -97l-6 -12l-13 -8q-6 -6 -20.5 -14.5t-18.5 -10.5q-2 -2 -32 -22l-15 -8l-16 4 q-90 18 -133 92q-13 35 -13 66q0 15 3 30l-5 8q-20 43 -20 73q0 17 6 30q-4 14 -9 41.5l-7 38.5q-63 328 -103 421l-4 13l2 12q6 20 -6 47q-4 12 -8 19z" />
<glyph unicode="s" d="M72 764q16 55 61 78q2 10 6 12q0 2 2 4q8 23 -2 31l31 8q4 0 13.5 2t11.5 4q0 2 1 6t1 6q0 4 2 11.5t4 11.5l4 16l16 9q6 2 15 6q20 8 20 26l35 -12q4 -2 10 -2q12 0 12 4l2 2q6 29 23 39q8 4 16.5 3t14.5 -5l6 -4q8 4 12 4q37 16 62 16l26 -4q2 6 7 9.5t8 3.5h4l20 -5 l2 -2q2 -2 4 -2q4 0 9.5 -2t9.5 -2l4 -2l8 4q8 10 29 13q6 2 12 -2.5t8 -8.5l2 -6l12 10q4 -10 11 -10l8 6l12 -4q29 -4 62 -18q0 6 8 6l41 -18q49 -18 137 -76q6 -4 23.5 -19.5t29.5 -23.5l15 -10l2 -17q3 -16 3 -30q0 -95 -130 -138l-37 -6l-15 41q0 4 -4 12q-4 4 -8 13 q-89 73 -214 73h-3q-154 0 -254 -94q31 -37 69 -56.5t65.5 -23.5t88.5 -8q100 -8 174 -29q27 -6 31 -12q-4 -4 -4 -10t2 -10l2 -2h2q2 -2 8.5 -6.5t10.5 -8.5q92 -8 179 -62t140 -134l6 -11v-4q2 -21 2 -40q0 -143 -90 -238q-68 -68 -174 -99q-102 -26 -217 -26h-8h-2 q-6 0 -19.5 1t-21.5 1q-268 10 -361 90q-31 0 -57 20l-8 5l-23 12l4 26q4 18 -10 44q-14 18 -12 34v13l8 10q4 6 8 14t9.5 18.5t7.5 16.5q10 35 26 53q29 37 76 37h6l6 -2q8 -2 25 -12h6q14 0 53 -15q4 -2 17 -6q27 -12 28 -18l-6 -31q-12 -35 -24 -53q29 -20 137 -25 q70 0 106 -6l9 23l30 -4h19q63 0 149 61l-4 4q-23 23 -6 55q-14 20 -23 29q-8 -4 -18 -4q-12 0 -23 8q-10 2 -22 6q-20 10 -39 17q-96 41 -172 63q-8 2 -27 2q-12 0 -49 -4q-41 -8 -63 -8q-4 0 -12.5 1t-12.5 1q-16 4 -37 25q-47 16 -88 82h-10q-14 0 -20 2l-13 4l-6 8 q-33 29 -55 95q-12 37 -12 71q0 26 8 49z" />
<glyph unicode="t" horiz-adv-x="681" d="M-31 954l23 19q66 68 176 71l4 9q2 4 6 51q0 16 4 65q10 76 25 113q20 76 24 115l5 39l38 -2q66 -6 142 -33l12 -4l6 -13q26 -35 26 -102q0 -49 -14 -115q0 -2 -1 -8t-3 -8q57 14 88 14q127 0 179 -121l8 -20l-10 -18q-45 -88 -215 -140q-10 -2 -21.5 -6t-25 -8t-21.5 -6 q-22 -173 -22 -410q0 -99 4 -209l8 -4q4 -4 14 -9t16 -7q35 14 72 14q43 0 131 -37l27 -12l-4 -31q-20 -168 -289 -202l-27 -5l-12 23q-10 12 -25 12h-10l-16 -4l-17 15q-88 86 -106 264q-3 33 -3 78q0 90 11 231q11 138 11 199q0 17 -1 28q-12 -4 -16 -6q-35 -14 -47 -16 l-12 -2l-11 6q-78 39 -120 166z" />
<glyph unicode="u" horiz-adv-x="1251" d="M117 911v21l16 10q6 2 12 37q10 47 19 63l10 13l19 4q10 2 32 2q106 0 178 -98l15 -17l-8 -16q-8 -16 -4 -33q10 -31 6 -55q-2 -18 -19 -43q0 -2 -3 -8.5t-3 -8.5q-2 -6 2 -16q16 -33 14 -57q0 -31 -24 -50l-2 -2l6 -79q0 -4 1 -11.5t2 -12.5t1 -7q6 -96 21 -154l4 -4 v-18q2 -49 49 -158q197 117 283 298q75 159 74 387q0 32 -1 65l-2 26l25 12q37 18 73 19q51 0 127 -49q2 0 5.5 -2t5.5 -4l12 -9l4 -12q25 -69 24 -168q0 -58 -8 -127q-8 -67 -8 -111q0 -22 2 -38q0 -8 6 -90q8 -94 13 -113q6 -43 32 -121q35 -98 43 -170l3 -18l-13 -15 q-37 -30 -92 -30q-8 0 -23.5 1t-21.5 1q-33 4 -51 4h-4q-27 0 -43 6q-4 4 -5 12t1 13l2 6q-47 29 -54 57l-2 6v4v34q0 68 -6 124q-12 -12 -18 -16l-18.5 -18.5l-18.5 -18.5t-12.5 -16.5t-8.5 -20.5l-4 -17l-16 -8q-12 -6 -76 -51q-121 -100 -231 -100q-51 0 -101 14 q-39 10 -79 47q-8 8 -17 12l-8 9l-6 10q-96 197 -119 393q-16 133 -16 306q0 83 4 175z" />
<glyph unicode="v" d="M55 1061v26l19 11l4 20h33h4q33 0 67 -24q14 -8 17 -9q4 0 8 2l20 3l15 -11q47 -43 86 -109.5t58.5 -117.5t49.5 -145q61 -188 111 -279q12 33 31 96q23 76 36 111l9 22l16 5l12 12q20 94 137 260q12 16 17 24q0 2 -3 8.5t-3 8.5q-15 28 -15 54v9v9l4 6q18 31 72 37h2 q-6 20 12 34q10 2 22.5 -1t21.5 -7l6 -4q4 -2 17 -10t22 -12q57 -27 79 -66q14 -24 14 -59.5t-14 -81.5q-10 -41 -51 -92q-25 -37 -28 -43q-14 -29 -48 -115q-45 -125 -79 -180q-8 -14 -17 -58q-4 -39 -12 -59q-14 -35 -31 -57q-25 -45 -28 -66q-6 -29 -15 -82 q-12 -90 -26 -137l-9 -27h-22q-27 -39 -62 -39l-26 -2l-8 19q-2 2 -6.5 2t-6.5 2q-70 23 -80 71l-6 29q-39 33 -86 148q-45 111 -84 149l-26 23q12 10 16 22l-31 8l-4 31q-10 96 -98 281q-104 221 -113 350z" />
<glyph unicode="w" horiz-adv-x="1593" d="M2 1081l47 -2q2 0 10.5 1t12.5 1h43q106 0 153 -30l13 -9l4 -14q66 -233 215 -608q2 0 4 -2q27 -20 45 -47q0 2 1 5t1 5q53 150 100 201q23 111 78 198q43 66 76 148l10 26h29q55 -2 98 -34q4 -2 8 -5.5t11.5 -8.5t11.5 -7l10 -6l6 -8q14 -29 23 -66q12 -49 39 -55 q-16 -29 -7 -57q6 -18 41 -74q55 -96 62 -137q10 -8 20 -25q66 125 99 403q14 137 34 222l7 22l22 8q41 10 78 11q72 0 143 -39l19 -11l2 -18q3 -30 3 -63q0 -50 -8 -104q-12 -89 -27 -141t-50 -157q-61 -182 -76 -266l-2 -14l-10 -11q-35 -31 -68 -114q-20 -45 -29.5 -64.5 t-35 -51.5t-56.5 -48l-20 -12l-21 12q-45 27 -86 73t-78.5 116.5t-59 116.5t-56.5 130l-10 21q-35 -74 -72 -187q-33 -94 -52.5 -145t-58.5 -117t-82 -100l-12 -13l-16 2q-27 2 -49 19l-23 -8l-18 16q-76 68 -164 231q-49 100 -92 150l-11 10l-2 12q-6 55 -43 134 q-33 74 -41 116v52q2 8 2 18q-4 10 -20 29q-29 41 -35 53q-8 16 -16 45q-8 37 -17 49q-47 94 -53 178z" />
<glyph unicode="x" d="M8 983q-1 7 -1 13q0 36 30 59l8 8l12 2h47q57 0 99.5 -15.5t68 -45t38 -52t24.5 -55.5l8 -16q31 -25 88 -86l76 -76q8 14 10 26.5t2 16.5v6l31 -2q25 0 32 10t13 55q4 41 18 72q16 31 45 43q2 8 7 21q14 49 47.5 99t74.5 67l13 4l12 -4l4 -3h4q74 -16 109 -36 q69 -30 69 -81q0 -9 -2 -20l-4 -14l-10 -6q-57 -39 -94 -123q-43 -102 -113 -170v-21v-21q0 -28 -4 -44q-6 -20 -33 -47q57 -74 174 -187q174 -184 207 -225l17 -20l-13 -25q-4 -4 -6 -8q-18 -31 -28.5 -46.5t-38 -38t-56.5 -22.5q-14 0 -22 2q-39 10 -81 44t-69.5 66 t-75.5 91q-123 152 -180 176q-63 -41 -129 -166q-12 -16 -18 -26q-10 -18 -33 -64q-29 -53 -43 -78.5t-48 -58.5t-71 -43q-32 -6 -61 2q-53 16 -80 88q-8 25 -14 35l-21 29l25 18q18 16 24 66q10 63 41 90q-23 29 10 47q8 4 11.5 11t1.5 11v7l24 22q27 27 60 88 q53 96 94 129q-43 70 -125 150q-123 127 -156 202q-43 29 -49 70z" />
<glyph unicode="y" d="M35 -41l39 21q45 20 84 20h14q4 -2 10 -2t31 4l20 6l19 -10q20 -16 31 -41q27 -6 32 -16l-12 -39q-14 -20 -18 -27l6 -6q4 -4 10 -9t14.5 -11.5t12.5 -10.5q12 -8 18 -14q86 -18 154 -19q158 0 288 119q0 2 3 6v4q0 2 -3 11q-2 6 -2 12l-4 14l9 15q29 51 29 122q1 3 1 6 q0 66 -11 109q-11 45 -36 121q-8 23 -10 39q-4 -8 -25 -64l-8 -20l-22 -4q-31 -8 -78 -47q-72 -59 -142 -60q-16 0 -49 5q-131 25 -213 137q-14 18 -22 63q-4 31 -10 41q-2 0 -2 2q-25 10 -37 29q-20 41 -33 131q-10 63 -12 70q-10 31 -27 65q-35 80 -37 119q-1 18 -1 41 q0 45 5 106q5 49 5 88q0 13 -1 25q0 33 -4 45l51 -2q41 -6 66 -14q41 -8 57 -9l25 -2l10 -22q72 -158 88 -309q4 -23 6 -43q-8 2 -14 -1t-8 -8v-4q12 -78 37 -161q0 -4 2 -13.5t4 -13.5q10 -49 24.5 -73.5t44.5 -33.5q35 31 76 46q37 33 56.5 63.5t25.5 52t10 64.5 q8 74 29 127q-4 33 -6 47q-11 87 -11 156q0 34 3 63q0 33 6 37l39 2q33 -6 51 -29q4 2 12 2q14 0 25 -8q18 -4 35 -20q23 -4 32 2l13 -27q23 -49 47 -164q14 -76 28 -117q57 -70 57 -168q0 -11 -1 -22q16 -45 28 -131q10 -111 54 -154l14 -12l-2 -20q-2 -22 -2 -55t2 -79 v-35q0 -140 -29 -217q-51 -133 -184 -221t-289 -88h-6q-23 0 -57 10q-31 10 -60 11q-23 0 -32 -4l-23 -7l-16 17q-8 8 -33 16q-51 27 -57 31h-9q-27 0 -57 37q-12 20 -31 39q-20 16 -32 24q-51 37 -62 74q-18 -12 -31 4l2 35v22q1 18 1 32q0 29 -5 40z" />
<glyph unicode="z" horiz-adv-x="1024" d="M27 985l14 12q2 12 6 17l29 4q10 2 28 2h17h14q41 0 58 16l6 8l8 3q121 18 190 18q100 0 285 -29q59 -8 70 -8q27 8 61 8q115 0 154 -84l8 -12l-8 -16q-8 -33 -52 -66q-29 -18 -30 -35l-2 -18l-11 -10q-23 -14 -44 -30.5t-44.5 -38t-38 -35t-40 -41t-34.5 -38t-39 -44 t-36 -42.5q-25 -39 -107 -129v-22v-17l-6 -8q-78 -61 -123 -147q4 0 9.5 -1t7.5 -1l6 2h2q8 0 10 12l15 2q68 -8 178 -12q94 -6 130 -9t102.5 -18.5t115.5 -42.5q18 8 33 10l18 2l12 -14q27 -35 31 -47q12 -8 19 -14q12 -16 8 -39q2 -2 3 -7.5t3 -18.5t-2 -19 q-2 -6 -11.5 -8.5t-17.5 0.5h-8q-27 -2 -61 -17q-48 -18 -89 -18q-43 0 -83 22q-12 -4 -46 -4q-43 0 -63 8q-37 4 -53 4q-18 0 -37 -6l-2 -4l-12 2q-31 6 -91 6q-55 0 -178 -12q-92 -14 -159 -14q-4 0 -84 6q-33 4 -35 10l2 33q4 23 8 33q4 14 0 32l-6 17l14 16 q37 43 84 154q66 121 74 131l6 10l8 4q53 18 84 92q45 70 84 97q6 20 16.5 38.5t27 38t26.5 29.5t34.5 32.5t30.5 29.5q43 29 92 90q-94 16 -198 16q-45 0 -197 -8h-8q-8 -4 -31 -19l-2 -2q-4 0 -4 -2l-10 -6h-12q-27 0 -41 6q-8 2 -25 2h-10l-25 -4l-14 21q-17 24 -17 55 q0 19 7 41q0 2 2 4z" />
<glyph unicode="{" horiz-adv-x="796" d="M33 608l6 17q8 23 32.5 42t51.5 19h2q45 27 119 53q45 16 65.5 25.5t49 32t47.5 53.5h2q4 6 2 24q0 39 6 54q-8 27 -17 88q-8 80 -22 100l-10 14l4 17q8 37 -9 123q-12 53 -12 78v16l10 10q12 14 60 58q43 37 63 63l11 16l20 2h18q100 0 207 -102l19 -16l-6 -23 q-10 -43 -58 -57q-18 -6 -59 -10q-6 -2 -17 -2q-23 -33 -34 -76q27 -82 39 -205q8 -102 28 -168l2 -6v-6q-2 -27 -16 -103q-8 -29 -10 -41l-4 -18l-15 -10q-37 -20 -67 -45q-90 -61 -146 -82q12 -18 58 -37l2 -2q4 0 4 -2l10 -4l6 -9q2 -4 7 -12t10 -12q0 -2 2 -4q4 -4 4 -6 l18 2l12 -27q31 -66 39 -142.5t2 -125.5t-22 -135q-29 -143 -27 -222q12 -8 19 -16q2 -2 2 -5t2 -5q12 -2 41 -6q78 -8 116 -29q16 -10 23 -29q10 0 18 -6q47 -31 31 -100q0 -25 -14 -37q-25 -31 -64 -31q-47 0 -67 39q-4 -2 -13.5 -4t-13.5 -2q-33 -12 -51 -12 q-29 0 -51 20q-115 4 -193 127q-43 66 -53 141q-8 74 20 142q-2 18 7 43l4 16q6 43 18 84q37 158 18 219q-2 0 -7 3t-7 5q-70 39 -105.5 61.5t-83.5 70t-75 100.5z" />
<glyph unicode="|" horiz-adv-x="573" d="M158 281v18l4 12l2 4q0 2 2 4q4 8 6 13q-20 166 -6 366q0 6 4 27l6 37v18l-12 6l-2 19q-4 29 16 49q-27 109 0 281q2 16 7 46.5t8 47.5q4 37 4 49l14 4q-23 117 31 213l4 29l22 -8q29 -6 66 -29q4 -4 11 -10.5t13 -8.5l31 -6l2 -30q8 -172 -4 -435q-4 -168 -4 -252 q-2 -20 4 -122q6 -115 4 -140q0 -10 -1 -33.5t-1 -35.5q-12 -152 21 -213l8 -13l-6 -18q-12 -33 4 -135q18 -104 8 -180q16 -88 10 -166q-8 -104 -100 -148q-25 8 -37 8l-21 -8l-16 15q-14 6 -14 22q-57 10 -80 62q-20 76 10 141q-2 49 -2 131q-4 238 -16 369z" />
<glyph unicode="}" horiz-adv-x="796" d="M-10 -342l4 33q8 47 57 110l10 11l15 16l20 -2q43 0 109 -14q244 252 164 372l-13 17l9 18v2l-3 4q-4 8 -4 15q-2 2 -2 6l-18 2l-4 28q-6 55 7 106.5t30.5 78t48.5 67.5q29 39 35 50q-41 27 -84 73q-51 55 -72 125l-4 19l4 4q-2 2 -2 6q-18 29 -21 45q-8 39 9 121 q8 31 14 78q12 109 -23 264q-25 4 -34 4q-27 0 -45 -8l-39 -17l-15 37q-4 10 -26 27q-66 35 -64 106v21l17 10q27 18 59 18q12 0 21 5l14 6l14 -2l43 -7q37 -4 59.5 -9t54.5 -26.5t52 -58.5q66 -33 102 -112q39 -76 27 -148q27 -59 10 -203q-12 -139 4 -188q8 -2 21 -10 q27 -6 37 -29q37 -16 76 -51q20 -16 34 -25l7 -6l4 -8q6 -10 14 -27l12 -24l43 -23q-14 -25 8 -30q25 -8 -30 -50q-123 -90 -191 -202q2 -6 17 -45q20 -49 24 -76q8 -4 15 -17l2 -4l2 -4q20 -78 -13 -174q-25 -78 -67 -121q0 -12 -4 -24q-2 -10 -2 -13l4 -34l-35 -7 q-14 -4 -19.5 -9t-13.5 -23q-29 -43 -33 -47l-14 -15h-6q0 -6 -2 -10l-4 -18l-21 -9q-25 -8 -53 -30q-55 -43 -115 -49l-20 -3l-2 -14l-45 10q-16 4 -33 21h-2l-31 4v35q0 12 -65 39q-2 0 -4 2h-5z" />
<glyph unicode="~" horiz-adv-x="1196" d="M29 698v17l12 10q180 166 324 223l14 4l14 -4q8 -4 13 -4q23 -10 34 -10q2 0 8.5 1t12.5 1l14 2l14 -8q45 -29 216 -119q41 -18 73 -45q41 -29 60 -29q8 0 18 4q45 12 74 62q27 61 24 133q-4 33 4 41h48q25 -6 47 -33q12 -12 14 -12l2 2h6q4 2 8 3t16.5 3t14.5 -2l14 -31 q0 -4 13 -33q29 -76 26 -98q-2 -53 -46 -131t-87 -115q-12 -8 -88 -32q-55 -18 -78 -19h-2q-2 -2 -4 -2q-23 0 -83 16.5t-93 34.5q-14 8 -22 21h-2q-10 0 -25 10q-20 12 -33 33q-2 2 -6 10h-10q-29 6 -41 14q-16 14 -23 46l-24 6q-53 10 -68 30q-2 2 -4 2l-2 -4l-6 -6 q-16 -20 -41 -35q-25 -12 -49 -12h-8q-10 -6 -54 -45q-72 -61 -106 -78l-21 -12l-16 14h-2h-25l-12 19q-6 12 -14 20q-49 70 -43 137z" />
<glyph unicode="&#xa1;" horiz-adv-x="681" d="M166 -106q2 6 8 23t8 24q-2 25 -2 198q4 111 0 180q-2 20 4 39q8 10 21 15q-4 76 18 209q4 20 15 94l2 26l26 9q20 6 39 6q47 0 144 -41l26 -12l-4 -27q0 -27 6 -55q4 -47 0 -74q8 -20 4 -82q-2 -8 -3 -25.5t-1 -25.5q0 -55 6 -117q16 -160 -8 -225q20 -78 8 -256 q-2 -39 -2 -113q6 -10 8 -16q10 -27 -10 -74q-8 -31 -37 -53l-10 -8h-16q-168 6 -250 165q-16 35 0 109q4 20 6 29q-23 29 -6 78zM201 928l6 16l6 12q4 4 4 9v2q-2 0 -5 3t-5 6t-3 8t-1 11t8 13.5t16 11.5l9 6q2 0 12 23q4 10 18 36l13 19h18q88 -6 137 -35q76 -41 76 -133 l2 -18l-8 -13l6 -10l-12 -16q-41 -74 -125 -74q-49 0 -93 29.5t-71 76.5z" />
<glyph unicode="&#xa2;" d="M47 725q6 20 41 88q25 37 35 57q2 2 10 29q4 33 17 53q8 16 28 21q8 12 10 20q16 47 43 68q109 88 218 88q2 0 5 -1t7 -1h2q8 0 29 12q-10 74 16 144q2 4 9 35.5t11 50.5l7 32h24q8 2 27 17q37 33 71 32q14 0 37 -6h13l10 -12q49 -70 31 -195q-8 -74 -5 -116 q29 -20 78 -43q47 -23 79 -41.5t70 -49t61.5 -72.5t31.5 -95q4 -43 -2 -54q-4 -2 -13.5 -1t-17.5 3l-8 3q-14 6 -21 6l-12 -6q-10 -4 -31 -7l-24 -2l-14 31q-12 6 -19 8q-8 4 -29 17h-14q-37 0 -90 28q-20 10 -29 13q-27 -33 -12 -158q0 -8 1 -24.5t1 -20.5q2 -51 -10 -154 q-16 -125 -6 -190q150 63 180 174l8 33l31 -2h6q6 0 31 4q6 0 19 1t22 1q29 0 53 -8l39 -13q-6 -25 0 -35q4 -4 10 -6t10 -2l6 2l7 -26q2 -2 6 -11q10 -16 12 -22l8 -16l-8 -17q-47 -143 -184 -244q-74 -59 -232 -112q-12 -342 -110 -434l-9 -7l-12 -2h-8q-27 0 -41 19h-8 q-16 0 -31.5 4t-32 16.5t-23.5 18.5t-24.5 24.5t-19.5 20.5l-17 16l-10 12v17q0 47 12 141q23 160 7 219q-45 12 -90.5 38t-68 44.5t-67.5 59.5q-31 35 -80 69l-14 8l-2 17q-2 16 -14 57q-20 88 -8 160l-7 14q-10 31 -10 39q-2 16 4 33q-16 47 -6 88zM341 645.5 q1 -20.5 2 -34t5 -36t6 -31.5t7.5 -29.5t5.5 -25.5q11 -12 -7 -32q18 -53 91 -97q6 78 12 199q12 201 29 346q-23 -4 -56 -37q-43 -39 -43 -80l2 -14l-16 -12q-10 -10 -18.5 -22.5t-12.5 -29t-6 -30.5t-1 -34.5z" />
<glyph unicode="&#xa3;" d="M-41 672q2 4 8 4t13 -2l4 -2l-2 18l28 8q37 10 68 11h12h10q33 0 47 8l19 10l16 -8q14 -8 60 -8h14h14q29 0 47 -4l-6 18q-8 43 -26 51l-23 12l2 29q6 78 -35 172q-41 113 -34 176q0 14 4 31h-2l-4 29q-4 41 18 84t38.5 60t63.5 63q6 6 27.5 24.5t32.5 28.5l14 20l27 -10 h6q6 0 30.5 4t34.5 4q18 0 31 -6q45 10 55 10q25 0 52 -18q16 4 28 4q20 0 82 -27q8 -2 19.5 -8t19.5 -9t12 -3l4 2l31 6l15 -24q37 -57 79 -93q35 -31 56.5 -53t56.5 -79.5t68 -139.5l4 -6v-8q0 -61 -58 -84q-8 0 -14 -6l-16 -21l-27 6q-61 16 -86 70q-33 6 -49 45l-4 6v6 q0 20 10 35q-29 76 -99.5 125t-150.5 49q-59 0 -119 -31q-68 -92 -30 -252q25 -111 108 -282q8 -16 10 -23q31 -6 66 -6q37 0 94 12q68 10 78 11q49 0 102 -25q37 16 56 16l18 -4l10 11l35 -31q35 -23 33 -60q-2 -23 -21 -36l5 -9l-23 -16q-55 -51 -201 -63h-2q-2 0 -8 1 t-10 1q-2 0 -7 1t-10 1q-12 -20 -83 -29h-9h-26q-35 0 -49 2q-6 0 -15.5 1t-11.5 1q-10 0 -16 -2q0 -35 -23 -98l-6 -13l8 2l10 -2q27 -8 88 -16q53 -8 81 -13t71 -26.5t72 -56.5q76 -18 140 -76.5t60 -138.5q0 -43 -14 -51l-25 6q-8 -12 -22 -21l-6 -2l-8 -2q-4 -2 -13 -2 q-2 -2 -5 -4t-5 -4t-2 -4l-6 -2l-4 -2q-4 -2 -16.5 -2t-20.5 4l-25 -4l-18 24q-20 43 -121 96q-61 25 -88 46q-12 0 -40 -3.5t-34 -3.5q-57 -8 -98 -8h-23q-31 -20 -63 -53q-86 -90 -160 -90q-25 0 -49 6l-23 6l-6 19q-2 20 -14 49q-35 70 -25 143l5 19l18 10q51 25 77.5 80 t49.5 147q2 8 6 21h-2q-20 -4 -23 -5h-4q-18 0 -41 19q-4 4 -8 4t-20 -4q-39 -14 -60 -14h-2q-80 0 -125 45q-35 37 -51 137q-4 35 -6 39z" />
<glyph unicode="&#xa4;" d="M29 322l2 24q6 31 41 60q18 20 18 28q0 33 6 45q10 4 19.5 2t15.5 -6l4 -4q6 6 15 10q4 16 10 31l-4 4q-18 4 -21 14l2 31q2 10 -22 49q-49 76 -35 140q-14 41 6 108q12 41 12 62q-4 29 -4 53h45q2 23 -43 90q-53 72 -59 139q-2 35 2 39l35 4q63 -2 113.5 -24.5t69.5 -40 t58 -60.5q0 -2 4.5 -5t4.5 -5q4 0 10 1t8 1q20 0 35 18l16 23l27 -8q16 -4 24 -4q6 0 43 8q35 10 62 10q25 0 45 -6q8 6 22 6l11 2l10 -2q12 -4 12 -8q35 -14 51 -14q12 0 19 4l29 14l18 -31q2 -2 7 -4t7 -2t4 -2q10 10 35 39q6 6 28.5 29.5t40 40t36.5 28.5q29 20 71 21 q39 0 117 -35q6 -2 18.5 -9t18.5 -11l22 -11v-26q-2 -33 -24 -82q-2 -6 -6 -15.5t-6 -13.5l-5 -27l-26 -2q-14 -2 -25.5 -6t-24 -16t-16.5 -16.5t-17 -22.5t-15 -20q-25 -35 -41 -56l2 -2v-4l4 -4v-8q20 -111 8 -236q-12 -143 -66 -184v-2v-6q12 -18 21 -45q10 -25 14 -25 l25 -4l6 -25q14 -70 -16 -118q-27 -37 -74 -41l-17 -2l-14 8q-20 20 -45 37q-63 43 -74 59q-20 -6 -40.5 -8t-30.5 0l-11 2l5 12l-15 4q-37 -12 -98 -12q-74 0 -152 18q-10 4 -30 17l-60 -60q-29 -33 -40 -45t-34.5 -26.5t-46.5 -14.5q-47 0 -75 54q-27 12 -50 45 q-6 10 -16 16q-14 8 -16 17zM348 664q0 -4 1 -10.5t1 -8.5l27 -10l8 -47l2 -2v-2q12 -4 47 -29q29 -33 64 -41q16 16 39 16q14 0 30 -10q39 12 48.5 23.5t7.5 40.5q-8 23 4 32l24 9q2 0 4 2h4q2 2 3 4l8 8l6 14l26 4l-12 25q0 6 8.5 10t16.5 4h8q-2 12 10 19q-6 76 -41 143 q-6 2 -14 6h-6l-2 2l-39 6q-2 6 1 16.5t7 16.5l2 6q-59 18 -94 19h-6q-8 -14 -41 -31q-6 0 -15 -4l-22 -10q-2 0 -6 -2q-2 -2 -4 -2q-6 -8 -19 -9l-20 5l4 2q-27 -23 -43 -29q-6 -20 -15 -31q0 -2 -1 -6t-1 -6q2 -2 4.5 -6t6.5 -14.5t0 -12.5l-21 -20q-18 -8 0 -90z" />
<glyph unicode="&#xa5;" d="M-18 1491l26 20q4 4 13.5 8.5t11.5 6.5q8 2 14 8l16 22l27 -10q29 -10 49 -10q14 0 25 4l16 4l15 -6q47 -25 88 -104q4 -6 12 -19.5t12 -19.5q8 -8 29 -21q35 -27 39 -33q18 -20 33 -53q6 -14 16 -26h2q23 -6 35 -23q23 -29 43 -86q4 -8 10 -23.5t8 -23.5q2 0 6 -4l9 -8 l16 -11v-14q2 -39 22 -70q20 -25 27 -41q2 0 16 -10q8 20 15 33q0 12 24 66q10 20 48 53q20 20 24 30v7q0 6 2 19t2 20q4 8 33 30l2 2q4 2 4 4q2 6 6 23q4 33 17 49q8 10 34 25q6 16 23 57q37 96 84 111q4 0 15.5 1t17.5 1q49 0 94 -23q59 -33 63 -86l2 -4l-2 -2 q-2 -20 -18 -66q-16 -23 -14 -43l2 -12l-9 -12q-20 -31 -55 -64q-63 -76 -76 -116q-8 -33 -47 -76q-23 -29 -28 -37q6 -23 -7 -41q-6 -6 -20 -19.5t-20 -19.5q-4 -4 -13 -16q82 4 142 4h36h27h41h10l10 -6q14 -8 35 -33q10 -14 17 -14q31 -2 39 -5q4 -4 4 -13t-2 -17l-2 -8 q-2 -4 2 -17q8 -23 6 -45l-4 -18l-17 -11q-76 -47 -196 -47h-60q-23 2 -63 2q-55 0 -92 -10q-10 -14 -15 -57q0 -51 2 -66q6 0 27 4q33 4 53 4q27 0 47 -10q23 8 58 8h2h14l12 -12q14 -14 39 -29q35 -20 54 -47l12 -10l-2 -16q-10 -66 -58 -88q-35 -20 -94 -21q-31 0 -76 4 q-37 4 -59 4q-16 0 -20 -2q-2 -33 -2 -86q0 -59 -2.5 -90t-18.5 -75t-47 -78q-14 -16 -23 -17l-24 8q-6 6 -12 7q-12 -6 -25 -7q-16 0 -43 11q-59 29 -74 86q-6 35 -2 102q8 78 0 113q-37 10 -80 10q-29 0 -43 -2h-37q-111 0 -161 45l-13 10l2 19q0 37 7 61q0 6 2 17.5 t4 17.5l2 27l24 8q72 23 146 22q55 0 104 -8q10 12 27 16q0 25 2 39q0 49 -2 64h-12q-31 0 -82 -10q-57 -16 -82 -17h-6q0 -27 -17 -41q-43 16 -80 21q-51 8 -76 24l-14 11l-4 14q-6 53 27 96q10 10 12 21q0 23 4 28l25 8h12q0 6 4 19q6 23 33 27l6 2l8 2h12q12 0 41 -4 q2 0 12.5 -1.5t16.5 -1.5q35 6 84 7q6 0 19.5 1t19.5 3q0 4 -2 8v4q-8 8 -19 14l-20 17l4 24q2 14 -29 37l-20 21l-6 12v16q0 31 -23 39l-26 15l4 30q4 23 -37 49q-10 6 -17 17q-16 23 -24 45q-10 20 -21 31q0 2 -4 4t-8 5t-8 5q-20 16 -37 37q-18 27 -14 51q-14 14 -21 25 q-41 57 -102 157z" />
<glyph unicode="&#xa6;" horiz-adv-x="573" d="M127 1364l16 35q20 31 9 104l-2 56q6 4 18 2t25 -7l14 -4q100 -43 147 -75l15 -11l4 -14q23 -102 18 -360q-4 -117 -2 -193q0 -14 4 -63q14 -106 2 -172l-2 -11l-6 -8q-6 -8 -18 -20q-18 -18 -21 -27q-4 -16 -8 -21l-25 -2q-70 0 -120 48q-43 49 -50.5 145t2.5 162 q0 4 1.5 14t3.5 14q0 2 -2.5 7.5t-2.5 7.5q-4 20 -4 26q0 49 13 127q10 82 10 88q0 14 -8 56q-14 37 -13 75q-10 0 -18 21zM147 461l41 10q6 0 17.5 1t15.5 1q49 0 107 -35q29 -18 41 -22l18 -8l6 -13q31 -94 39 -258q2 -16 4 -69.5t6 -79.5q10 -51 13 -64q-2 -8 -7.5 -10 t-9.5 0l-4 2v-25q2 -86 0 -134t-15 -112.5t-40 -99.5q-8 -20 -23 -20q-6 0 -12 3t-8 5l-4 4l-6 2q-6 0 -9 -2q-16 -4 -28 -4q-20 0 -35 8h-2q-72 43 -92 127q-10 37 -10 144q2 6 2 16q0 63 8 182q20 295 -8 412z" />
<glyph unicode="&#xa7;" d="M33 698q6 23 6 35l4 31l29 4q4 0 8 2t16 6q2 8 7.5 17.5t10.5 18.5t7 13q14 27 16 33q8 25 10 41q8 4 16.5 2t14.5 -6l6 -4l13 12q27 25 61 27q-10 2 -16 9t-9 11v6q-8 37 -10 45q-20 129 -16 213l2 33l27 6q4 12 4 25q0 4 1 13t1 14l6 28l26 4l2 2h5q29 55 106 86v9 l2 16l10 8q68 61 176 62q100 0 208 -45t180 -109l14 -12l-2 -21q0 -6 22 -45q27 -39 35 -74q14 -51 -18 -108l-15 -23l-26 7q-12 2 -22.5 7t-21.5 12t-18.5 11t-18.5 15.5t-14.5 14.5t-15.5 16.5t-14 15.5q-49 57 -72 57q-6 0 -10 -2l-16 -4l-15 10q-53 29 -104 29 q-78 0 -103 -72l-10 -26h-22q-10 0 -25 -27q-23 -47 -4 -76q8 -12 49 -48t84 -60q20 -14 49 -21q45 -12 68 -27q2 -2 59 -49q8 -6 23.5 -21.5t28 -25.5t20.5 -14l20 6l17 -20q20 -23 33 -46q25 -49 61 -69l10 -4l6 -10q10 -20 31 -66q94 -172 78 -277q-6 -41 -62 -108 q-4 -4 -12 -15.5t-10 -13.5q20 -12 27 -22q8 -25 6 -33q6 -12 18 -33q39 -68 33 -139q-4 -47 -43 -86q-27 -37 -27 -51v-33l-28 -4q-31 -8 -50 -47l-8 -21l-22 -4q-47 -8 -129 -67q-141 -98 -238 -99q-31 0 -41 4q-38 -22 -69 -22q-14 0 -66 18q-49 20 -68 23l-18 2l-10 14 q-16 25 -56 68q-68 76 -71 129v4l2 6q0 8 6 14l-14 15l16 24q10 23 31 33q-2 6 -2 27l2 10l8 10q8 8 10 12q8 12 8 13l11 33l36 -7q2 0 5.5 -1t5.5 -1q8 0 14 -2l8 17l25 -6q16 10 33 10q6 0 18 -4l18 -4l9 -15l4 -8q8 -6 22 0q14 -27 0 -68q20 -4 27 -22 q-20 -6 -29.5 -27.5t0.5 -50.5q227 43 363 211q-18 18 -29 27q-41 -10 -76 -11q-92 0 -135 56l-2 4l-2 4q-16 51 -57 75.5t-136 55.5q-121 39 -174 72l-12 8l-4 14q-14 45 -74 88l-12 8l-4 15q-6 20 -12 63q-2 6 -4.5 16.5t-3.5 17.5t-3 9l-4 4l-6 9q-31 43 -14 161z M297 557q88 -88 172 -127t190 -63q82 -20 140 -48q37 88 37 150q0 4 -2 6l-11 10q-2 2 -4 5.5t-4 5.5t-5 6t-7 8q-125 135 -187 166q-29 -31 -69 -31q-20 0 -84 25q-6 2 -19.5 7t-19.5 7q-6 -8 -18 -12q-57 -8 -82 -56q-12 -29 -27 -43v-16z" />
<glyph unicode="&#xa8;" horiz-adv-x="681" d="M-33 1397q0 10 5 19t12 14l4 4q10 10 28 59q4 35 19 43q6 4 17 -1t20 -13l8 -9q10 -6 14 -6t10.5 1t8.5 1q16 4 24 4q10 0 23 -4q8 6 24 7q8 0 15 -3q16 10 32 -8q-4 -6 -4 -14t2 -12v-6q2 -2 7 -11l30 -6q2 0 5 -2t6.5 -4t5.5 -2q12 -10 34 -10q6 -14 6.5 -26.5 t-4.5 -20.5l-4 -9q-16 -35 -30 -69q-43 -119 -119 -150l-12 -6l-15 6q-45 16 -86 62q-29 33 -47 41q-25 6 -26 14l2 31l2 4q4 25 6 39v18q-2 16 -23 25zM367 1290l20 37q2 2 6 31q0 39 15 59q14 25 45 35v2q0 27 6 45l8 25l25 4h12q16 0 33 -8h8q96 0 143 -84 q47 -86 -6 -172l-12 -21h-11q-14 -39 -69 -80q-2 -2 -7 -6t-8 -6q-18 -16 -28 -16q-4 0 -11.5 4t-11.5 8l-4 6l-6 6q-18 23 -41 25q-14 4 -33 4l-4 29l-16 12q-16 12 -23 39q-31 12 -30 22z" />
<glyph unicode="&#xa9;" horiz-adv-x="1509" d="M-12 698l2 2q0 111 47 269q2 8 2 24q0 39 8 53.5t31 26.5v8q0 39 12 58q6 8 16 18v6l-4 27l23 14q141 90 174 154l14 31q8 -8 21 -9q8 0 16 4h2l19 13q59 57 137 57h6q-6 27 6 35q6 -8 17.5 -11t19.5 -3h6q2 0 4 2h11q6 16 -5 28l35 8q4 2 15 3q23 0 34 -13q10 18 29 25 l29 -27q16 -12 33 -12q8 0 24 3t21 3q37 8 57 8q47 0 74 -26q49 0 129 -54q57 -37 80 -37h6q27 2 45 5l2 -31q16 -4 22 -10q10 -10 15 -19h12h27l12 -24q14 -31 37 -41l28 -9v-30q0 -12 39 -45q27 -20 49 -54l15 -24l-17 -21q0 -2 4.5 -7t6.5 -7q25 -35 30 -55q16 2 29 -8 q-8 -20 2 -54q4 -18 0 -39q10 -14 10 -16q2 -2 3 -5t3.5 -6t2.5 -5l14 -17l-6 -22q-10 -25 -2 -82q4 -74 0 -103l-2 -16l-13 -10q-2 -2 -4 -2q4 -68 -17.5 -131.5t-43 -96t-66.5 -92.5q-53 -66 -73 -104l-9 -17l-18 -4l-8 -32l-33 2h-2q-14 0 -70 -43q-82 -70 -139 -70 q-4 0 -6 2q-43 -43 -113 -43h-10q-23 -25 -70 -39q-20 -6 -100 -10q-76 0 -109 -14l-26 -9q-4 0 -9.5 5.5t-7.5 9.5l-4 6q-14 20 -65 20q-25 0 -45 -4l-13 -2l-12 6q-190 90 -308 280.5t-136 446.5zM246 745q2 -10 8 -53q4 -45 14 -61l11 -19l-11 -20q-14 -27 4.5 -86.5 t59.5 -122.5q57 -82 80 -98q20 -15 26 -33q8 0 21 -4q18 -10 30 -19q12 -8 17 -12q57 -23 127 -22q51 0 94 12q-31 4 -63 33q-12 12 -17 12q-2 0 -10 -4q-2 -2 -5 -4t-11.5 -6.5t-12.5 0.5l-22 18q-2 2 -25 8q-41 10 -61 25q-100 74 -125 151q-6 18 -2 43q0 2 1 7.5t1 7.5 q-4 14 -17 43q-20 49 -22 69q0 35 14 58q-20 45 10 131q12 25 13 39l-27 26l27 27q14 16 16 31q16 63 55 88q12 -6 25 4q4 4 6 13t2 15v7l15 2h2q12 4 14 6l2 4l4 8q35 43 43 49q23 23 51 23h13l4 4t4 2q51 47 106 47q20 12 47 12q33 0 60 -22q131 -23 176 -105 q25 -6 37 -28q2 -2 2 -6.5t2 -6.5q37 -14 57 -34q43 -43 45 -109v-4v-2q-2 -18 0 -37q0 -68 -28 -98l-17 -19l-20 4q-37 6 -45 9q-20 -16 -41 -17h-15l-12 8q0 4 -6 4q-47 33 -41 80l2 23l-14 16q-12 12 -33 43q-14 20 -20.5 27.5t-21.5 13.5t-40 6q-14 0 -23 -2 q-51 -29 -112 -114l-2 -7q-8 -8 -25 -16v-8q0 -25 -4 -35q-6 -27 -29 -37q-4 -16 -8 -37q-4 -10 -8 -26q10 -37 12 -52q4 -33 -2 -43q35 -115 144 -114q72 0 204 43q29 25 39 35q55 55 131 79q57 18 68 23q4 -2 6 -5t2 -5v-4q18 0 33 -15q6 -6 8 -14q2 4 10.5 17.5 t12.5 17.5q16 31 30 47q10 106 -16 211q-18 8 -29 20q0 2 -1 8.5t-1 8.5q-8 0 -14 10l-2 18q0 43 -35 95q-29 37 -51 36h-2q-20 -8 -35 7l-12 28q-14 39 -90 72q-25 12 -54 29q-4 -2 -14 -2h-14q-10 2 -19 6l-10 16h-6q-4 0 -15.5 -1t-17.5 -1q-16 -4 -20 -4h-9l-28 2 q0 10 -13 12q-20 4 -28 13h-17h-10q-14 0 -22 -7l-15 -12l-20 6q-16 4 -27 4q-37 0 -110 -47q-37 -27 -74 -41q4 -25 -12 -41q-12 -14 -35 -18h-2h-4q-8 -18 -35 -41q-4 -4 -6 -4q0 -10 -2 -14q-2 -12 -11 -23q0 -2 -2 -6q-8 -29 2 -37q-4 -2 -17 -12t-38 -15q-2 -4 -5 -15 t-5 -15q-14 -55 -35 -76l2 -4q8 -70 -14 -101z" />
<glyph unicode="&#xaa;" horiz-adv-x="757" d="M-20 1022v8q4 27 6 31q14 94 18 147l2 23q2 2 6 4t8.5 7t-0.5 11q-4 4 -2 10.5t7 10.5l4 4q2 2 8 6t8 6q0 25 6 33q4 6 12 14q0 6 3 9q6 18 32 28q4 4 6 4l2 2q2 4 4.5 9.5t3.5 12.5t1 19.5t-2 24.5q6 2 13 1t13 -5l4 -2q8 8 15 10q2 0 6 2t9 11.5t1 21.5q14 4 24.5 2 t14.5 -6l6 -4q6 8 6 10q10 16 11 33q4 -6 9 -7.5t9 -1.5l4 2q2 0 9 1.5t12 1.5h12l10 10h18q25 0 41 -8q18 6 37 6q45 0 99 -37q33 -23 47 -57q51 -10 82 -46q12 -16 24 -22l21 -8v-19q-2 -45 -15 -145q-16 -121 -12 -182q14 12 21 16l18 4q14 -2 20 -12l11 12q2 2 10 2 q14 0 27 -12q0 -2 4 -6l12 -6l4 -5l4 -4q18 -27 14 -63q-2 -16 0 -27l7 -22l-17 -13q-20 -12 -41 -61q-10 -29 -18 -44t-32.5 -36.5t-61.5 -28.5l-21 -6l-18 23q-68 84 -97 110l-6 7l-6 18v16q-63 -82 -82 -94q-82 -57 -151 -57q-53 0 -105 29l-8 4l-6 8q-4 6 -16.5 20.5 t-18.5 24.5q-84 133 -108 209zM188 963q16 -4 41 -33q14 14 25 22q68 27 111 86q31 102 86 162q0 6 1 17.5t3 17.5q6 33 8 53q-27 14 -27 25q-10 14 -22 18q-2 0 -21 6q-2 2 -6 2h-2q-31 0 -39 -4t-14 -20q-2 -2 -7.5 -6t-9.5 -9l-5 -5t-11 -6t-14 -1q-4 -4 -9.5 -10 t-13.5 -24.5t-8 -32.5v-27l-16 -10q-16 -12 -25.5 -57.5t-3.5 -84.5q2 -31 10 -41q-6 -4 -14 -5t-12 -1l-5 2v-14v-20z" />
<glyph unicode="&#xab;" d="M104 524v8l2 9q41 141 140 227q8 57 67 113q41 57 43 84l2 24l27 8q18 4 27 43q8 29 26 47l13 15h18q4 2 14 2q70 0 129 -55q12 -8 41 -25l33 -18l-16 -33q-57 -121 -162 -264q-94 -135 -141 -238q63 -98 258 -301l8 -6l2 -12q10 -47 0 -152l-2 -16l-17 -9 q-14 -10 -30 -10h-6q8 -18 -9 -24l-39 8q-88 31 -141 125q-66 70 -78 80l-20 16l4 12q-16 12 -16 37q-2 2 -8.5 8t-8.5 11q-45 49 -66.5 75.5t-53 88t-40.5 122.5zM514 571l4 2l6 7q12 10 23 12q12 86 112 219q82 84 105 162l6 16l18 6q8 4 31 37q29 51 55 66l9 4h8h2 q47 0 94 -53q18 -18 29 -21l16 -6l4 -23q14 -45 -39 -165q-63 -131 -104 -172q-8 -12 -23 -17q-4 -23 -14 -35q-8 -18 -33 -35l-4 -2q-4 -2 -6 -2q-4 0 -12 -28.5t-17 -44.5q-6 -6 -22 -19l-4 -2q-4 -2 -4 -4q31 -31 63 -59q4 -4 6 -4q12 -12 17 -19q53 -37 75 -88 q39 -16 50 -51q72 -35 82 -98q12 -70 -29 -121l-10 -8l-13 -2q-4 -2 -10 -2.5t-8 -2.5q-27 0 -33 -8q-12 -16 -20 -16l-29 16q-147 143 -211 203q-23 31 -74 80t-71 74l-7 4l-4 4q-51 123 -14 196z" />
<glyph unicode="&#xac;" horiz-adv-x="1196" d="M33 920q18 49 78.5 79.5t124.5 30.5q39 0 63 -8v4q14 33 39 33q14 0 31 -12q35 0 88 8q8 0 44 3t52 3q57 0 102 -17q2 2 2 5q12 16 25 18q6 2 14.5 -2t12.5 -8l4 -4q6 -6 18 -6q16 0 41 6q37 8 57 8h17q23 -2 35 -23q12 6 34 6h3q14 0 20 -2h27q25 0 34 9q18 14 25 14 l23 -12q57 -41 77 -86q23 -55 11 -129q-4 -31 -5 -160q4 -190 -34 -266l-4 -6l-7 -7q-25 -18 -63 -18h-12h-11h-8q-23 -33 -30 -35q-6 0 -14.5 8t-14.5 17l-6 8q-41 61 -47.5 187t8.5 225q0 2 1 7t1 7q-37 14 -90 14q-33 0 -82 -4q-33 -4 -49 -4h-6q-18 0 -52 8q-29 8 -39 8 q-4 0 -4 -2q-8 0 -211 -12q-152 -4 -264 -16l-18 -4l-15 14q-49 51 -26 113z" />
<glyph unicode="&#xad;" horiz-adv-x="681" d="M43 578q8 18 10 34l4 25l23 6q63 33 153 33q80 0 164 -25q18 6 23 8q51 18 67 19q25 0 43 -16q2 4 9 10l20 16l23 -14q37 -33 61 -103q8 -31 23 -49l10 -18l-6 -27q-39 -102 -142 -102q-14 0 -37.5 3t-29.5 3q-41 4 -60 8q-6 -2 -9 -7t-3 -9v-4l-24 8h-3q-2 2 -4 2 q-27 10 -63 10h-39q-8 0 -24.5 -2t-24.5 -2q-72 0 -125 25l-10 2l-9 6q-51 59 -20 160z" />
<glyph unicode="&#xae;" horiz-adv-x="1509" d="M-43 637l10 37q18 51 23 155q12 174 69 265q10 12 33 35.5t27 27.5q47 43 51 49q2 2 6 15q4 27 21 43q18 18 59 41q49 29 53 51l6 28l29 2q41 4 84 37q8 4 16.5 8.5t18.5 10.5t16 10l13 4l10 -2q4 0 13 -1t15 -1q25 0 37 10l21 15l20 -11q8 -8 41 -8q51 0 58 12l18 23 l29 -14q63 -29 235 -80q109 -31 119 -35l4 -2l6 -6q6 -4 15 -13q121 -100 176 -122l12 -7l6 -16q14 -33 82 -133q45 -61 55 -78l31 -47q-8 -2 -8 -12q0 -18 14 -37l12 -12v-19q-4 -18 5 -55l12 -33q12 -18 24 -22l-6 -29q-8 -27 -4 -84q4 -137 -45 -182q-6 -66 -55 -123 q-31 -39 -105 -105q-27 -20 -41 -37q-154 -145 -507 -225l-23 -6l-16 16q-4 2 -15 2h-8q-61 -12 -98 -12q-66 0 -131 27q-10 -6 -27 -6h-2h-4q-209 33 -346 204q-109 145 -148 383l-2 7l4 10q6 18 -2 33zM225 784q-74 -342 127 -473l21 -12v-16q0 -4 4 -9v-2q2 -2 2 -4 q14 -4 29 -14q12 -10 26 -12q-29 66 -43 157q-12 88 4 215q-14 10 -20 37v6l2 7q8 25 18 65q45 195 45 232v16l15 12q35 29 65 66q47 47 70.5 68.5t72 46t97.5 24.5q47 0 110 -27l15 -6l6 -14q6 -10 47 -27q37 -16 52.5 -23t43 -31t39.5 -54q18 -39 14 -107q0 -35 5 -49 l2 -16l-9 -15q-78 -113 -137 -151q-61 -45 -141 -60q-10 -29 -39 -47q-4 -4 -6 -4q27 -14 96 -74q6 -4 18.5 -15t18.5 -15t15.5 -10.5t17.5 -9.5t16 -3q16 0 37 10q4 4 10 5q16 14 23 14q4 -10 10 -17.5t10 -9.5l4 -2q2 0 14.5 -6t20.5 -8q14 -8 35 -19q2 2 12 11 q49 37 51 39q51 47 92.5 149.5t30.5 202.5q-37 41 -37 78q-18 18 -30 55q-14 35 -27 35l-33 -2l-8 30q-4 16 -43 43q-53 41 -65 66q-6 2 -15 6l-16 -10l-16 12q-4 2 -39 23q-72 45 -105 57q-70 25 -160 25q-31 0 -43 -4q-4 -2 -11 -4.5t-11 -2.5q-106 -23 -143 -49 q-12 -6 -29 -6h-10q-18 -20 -45 -82q-37 -94 -84 -121q-4 0 -17 -14q-4 -4 -24 -20q-6 -33 -31 -72q-25 -49 -27 -64zM639 420q0 -86 4 -107q2 -18 11.5 -47.5t9.5 -36.5q25 14 45 15q2 0 39 -6l24 4q-23 20 -61 73q-17 39 -72 105zM649 764l6 2q8 4 16.5 6t19 2t14.5 -4 q37 8 70.5 45t37.5 66q4 37 -82 67q-25 -29 -55 -98q-12 -29 -27 -86z" />
<glyph unicode="&#xaf;" horiz-adv-x="681" d="M12 1386q6 16 11 31l4 25l22 6q78 27 174 27q80 0 183 -19q6 2 22 6q53 14 72 15q29 0 49 -13q4 4 8 6l21 17l24 -14q47 -27 70 -93q10 -29 22 -45l13 -18l-9 -23q-39 -92 -151 -92q-10 0 -23.5 1t-30 3t-24.5 2q-18 2 -59 6l-21 -18l-24 8h-3q-2 2 -4 2q-23 8 -69 8h-43 q-8 0 -24.5 -1t-26.5 -1q-82 0 -144 19l-10 2l-8 8q-51 51 -21 145z" />
<glyph unicode="&#xb0;" horiz-adv-x="819" d="M115 1221v20l16 12q27 20 47 86q2 8 7 22.5t8 18.5l8 19l18 2q2 2 33 6q61 10 76 33l8 20l22 2q16 4 39 4q39 0 125 -28q8 -2 22.5 -8.5t27 -10.5t24.5 -6l25 -4l6 -14q4 -14 22 -47q20 -43 27 -76q12 -12 18 -35q0 -4 1 -10t1 -10l2 -5q25 -35 2 -94q-14 -18 -12 -53 q4 -29 0 -37l-24 -6l-7 -2l-2 -2v-4v-10l-10 -11q-16 -14 -32.5 -27.5t-35 -24.5t-26.5 -17q-12 -4 -19 -9q-29 -10 -61 -43q-6 -12 -12 -14l-25 8h-8q-2 0 -12.5 2t-16.5 4q-45 -10 -67 -10q-76 0 -137 56q-84 94 -78 303zM314 1139.5q5 -27.5 32 -64.5q78 0 121 37 q37 25 41 66q2 27 -19.5 50t-58.5 34q-18 -27 -59 -27q-2 0 -4 1t-5 1h-8l-2 -2q-25 -33 -34 -50.5t-4 -45z" />
<glyph unicode="&#xb1;" horiz-adv-x="1196" d="M23 55q-43 78 4 148l12 22l24 -2q35 -4 109 -4q117 0 346 21q233 23 320 22h6h16h27q92 0 139 8h14l11 -6q43 -20 59 -51q25 -2 41 -23q20 10 29 0l10 -34q8 -49 -25 -82q-10 -10 -51 -31q-23 -4 -27 -12v-4q-4 -35 -14 -41h-45q-2 0 -10 -1t-12 -1q-12 0 -17 2 q-25 -12 -69 -13q-16 0 -27 2h-23q-25 0 -32 -4l-15 -16l-22 6q-47 10 -94 10q-16 0 -34 -1t-38.5 -3t-32.5 -2q-49 -4 -72 -6h-26q-31 0 -84 4q-25 2 -76 2q-57 0 -102 -12h-2h-4q-2 0 -7 -2h-2q-20 0 -43 16h-16q-43 0 -84 24.5t-61 63.5zM39 905l2 17l14 10q2 0 6 4 q37 27 68 27q20 0 37 -9q6 2 24 2q49 0 123 -20q-4 14 15 18l51 -18q14 -6 29 -6q10 0 14 4q14 20 16 67q2 27 -2 132q-8 145 8 194l13 27l30 2q78 -8 127 -60q41 -39 64 -110q25 -84 16 -242q16 -8 45 -8q43 0 105 16q4 2 39 9q23 6 30 6q4 0 6.5 -4.5t2.5 -8.5v-2 q12 4 26 4q10 0 31 -4q14 -6 55 -41l10 -10q18 0 21 21q10 -2 20.5 -10.5t14.5 -14.5l4 -8q8 -14 12 -29q16 8 27 -2l4 -43q-4 -41 -49 -70q-4 -2 -11 -8q4 -18 -2 -26l-26 -11q-94 -33 -275 -41q-29 0 -73 -4q0 -41 -9 -73q37 -41 17 -95q-6 -37 -6 -61q-4 -59 -19 -84 q-20 -39 -82 -72l-14 -6l-16 4q-61 18 -95 80q-31 45 -43 119q-18 96 -8 207q-31 8 -69 8q-10 0 -30 -1t-30 -1t-31.5 -1t-31.5 -1q-131 0 -181 59q-49 57 -24 168z" />
<glyph unicode="&#xb2;" horiz-adv-x="681" d="M-8 877q4 25 8 30l27 2q2 0 6 2l9 4.5t7 2.5q29 10 35 12q10 12 23.5 24.5t32 25.5t26.5 21q70 59 103.5 94t71.5 97.5t60 142.5q-12 12 -12 19l-8 -4t-8 -2l-13 -7l-4 -4q-20 -27 -32 -34q-2 -2 -35 -13q0 -20 -17 -26q-29 -12 -41 -17h-4q6 -16 -4 -28l-28 -11 q-10 -4 -33 -4h-15h-8l-45 -8q-6 2 -6 23q0 6 -6 8t-12 2l-7 -2l7 37q4 16 -2 43q-2 6 -5.5 19t-5.5 20l-2 12l8 8q88 145 345 186l14 2l14 -6q66 -37 109 -82q53 -53 53 -135q0 -20 -12 -69q-6 -31 -6 -41v-27l-25 -10l-4 -23l2 -18l-14 -13q-14 -16 -35 -61 q-2 -4 -12.5 -25.5t-20.5 -36t-29 -26.5v-6l-2 -2v-4l-8 -23q-2 -12 -12 -16q-4 -2 -11.5 -4t-9.5 -2h-10q-6 -10 -22 -23q6 0 21 3t26 5q61 12 92 13q115 0 178 -99l8 -16l-2 -16q-8 -35 -16 -56.5t-30.5 -39t-55.5 -17.5q-18 0 -60 6q-4 2 -12 2q-37 4 -61 4q-14 0 -41 -1 t-37 -1q-14 0 -40 -1t-36 -1h-6q-27 0 -72 4q-41 4 -45 4q-31 0 -53 -8l-19 -6l-12 8q-59 37 -82 72q-31 43 -20 117z" />
<glyph unicode="&#xb3;" horiz-adv-x="681" d="M16 1421l4 27l31 4q18 2 62 10q154 23 219 23q57 0 112 -12q23 6 37 6q20 0 38 -5.5t36 -19.5t25.5 -20.5t28 -29t22.5 -24.5q16 -20 22 -26l9 -8v-11q8 -39 -21 -63l6 -29l-37 -10q-39 -8 -78 -72q-8 -10 -14 -24q-2 6 -9 7t-13 -1h-7q-4 0 -10 -8q70 -31 103 -101 q4 -4 19 -22.5t28 -28.5l16 -12l-2 -21q0 -49 -51 -104q-18 -23 -23 -41l-16 -31q0 -8 -4 -12t-8 -4h-2h-31q-53 -8 -64 -19l-8 -18l-24 -2q-2 -2 -9 -2q-18 0 -18 10q-66 -31 -98 -31q-6 0 -13 2q-28 -12 -67 -12q-43 0 -74 19q-4 -10 -22 -11q-6 0 -13.5 6.5t-11.5 12.5 l-2 6q-6 16 -29 26l-24 9l2 22v23q-4 68 22 94q18 18 41 18h13q12 10 30 11l17 2l10 -11q29 -23 63 -22q76 0 172 57q-2 4 -6 13.5t-4 11.5q-8 6 -37 16q-57 25 -82 25q-39 0 -79 -25l-17 -14l-22 16q-12 12 -35 0l-15 45v11q-6 63 11 116l4 17l16 8q14 8 35 8q10 0 23 -4h4 q4 -2 6 -2q16 14 30 18q0 -6 5.5 -8t11.5 0h4q31 12 31 14v3v2q10 6 34.5 17t38.5 19q8 4 16.5 9.5t17.5 12.5t16 11q-39 14 -86 15q-63 0 -99 -33l-16 -15l-17 7h-10q-20 0 -28 -5q-14 -8 -15 -24l-33 2q-104 37 -88 186z" />
<glyph unicode="&#xb4;" horiz-adv-x="681" d="M193 1255q2 2 2 9v16l12 12q43 43 47 62q0 6 -4 16q-10 31 -6 49q2 31 37 62l20 18l8 -4q27 20 45 23q8 12 15 18l12 12h18h11h14h8h10h29l2 -2h10h6q8 -2 20.5 -5t19 -3t10.5 4q4 0 11 2t13 3t12 1h11l16 -4l8 -10q12 -16 13 -47v-8l6 -6v-17q-12 -143 -146 -237 q-12 -8 -30 -9q-14 -37 -66 -47q-8 0 -16 -4l-4 -2q-60 -18 -93 -18q-20 0 -34 2q-23 4 -35 20q-20 23 -12 94z" />
<glyph unicode="&#xb5;" horiz-adv-x="1251" d="M115 582l8 24v2q2 2 2 4q-6 14 -4 29q0 12 8 31q0 4 2 6l-4 16q-6 31 12 58q-18 18 -20 36q8 6 10 11.5t2 7.5l-2 4q-4 8 -6 14q-4 33 14 54q-2 14 10 30q0 2 -2 2q0 4 -2 11l-8 22l15 14v3q-8 25 20 61l6 6h2q-14 12 -20 33q-10 27 1 58.5t40 54.5l14 10l16 -4h2 q6 6 27 14l6 2l10 -6l9 12l14 2h12q41 0 90 -33q4 -2 9 -6q18 -10 20 -20l-4 -27q-4 -16 10 -51q23 -59 4 -96q-12 -25 -8 -99q4 -70 -16 -92q-12 -98 -13 -174q0 -35 -2 -59q0 -33 -4 -103q-10 -70 -5 -144.5t40 -133.5q4 -2 12.5 -5t10.5 -3l4 -2q27 20 98 39 q43 8 60.5 14t33 25.5t19.5 54.5l4 41q20 4 30 -6q2 8 3 10q0 27 4 39q8 25 26 35q0 2 2 4q0 6 2 10q10 23 41 31l2 4l9 10q4 10 14 43q8 29 14 41v2q-10 10 -10 37l2 6l2 8q23 47 14 207q0 6 -1 22.5t-1 24.5v31q-6 12 -8 22q-6 43 43 97l4 4q2 2 2 6v20l19 11 q18 14 38.5 14t22.5 -10l2 14l27 6q16 4 22 4q37 0 45 -22l9 10l20 -8q29 -6 45 -35q18 -35 -8 -117q-2 -4 -8 -22q-2 -12 4 -29q6 -33 4 -43q-4 -68 -29 -190l-2 -11q0 -2 4 -10q12 -25 13 -45v-63q4 -82 -2 -125q14 -59 14 -195q0 -96 4 -147l4 -39q-18 0 -22 -4l-2 -13 l-37 -8q-4 -2 -12.5 -5t-10.5 -3q-25 -12 -53 -12h-10q-20 -8 -29 -9q-23 0 -35 17q-10 12 -14 37q-8 4 -12 8q-27 25 -21 141v8q-18 -23 -46 -53.5t-30 -32.5l-12 -12h-18h-5l-4 -4q-10 -16 -28 -27q-12 -6 -17 -10q-2 -2 -4 -6t-5 -14.5t-3 -20.5q-10 2 -19.5 1t-13.5 -3 l-6 -2l-2 2q-4 0 -25 -12q-37 -20 -57 -21h-4q-37 -25 -98 -24q-23 0 -33 2q23 -164 -2 -355l-6 -34l-37 2q-123 4 -201 141l-12 23l14 20l2 6q2 4 2 6q8 8 -6 19l17 24l-15 11l11 26q4 10 10 15q-14 14 -21 47q0 4 -4 20l-6 27q16 6 21 14l-15 16l2 5l5 5t3 5q-8 10 -8 33 q4 14 6 16q-12 20 -12 37l-2 26l12 17q-25 18 -30 49l-2 10l2 10l2 3v4t-2 4l-4 4l-11 18l8 19l5 8q-8 2 -15 8l2 10l-10 4v27q-6 33 6 39l-14 14l10 17v6v4l-2 6v4q-2 29 12 43q-2 10 -2 21q0 6 -6 12l-10 14l2 25l6 18l-4 10l2 15q2 14 10 28q0 2 -2 5.5t-4 5.5l-6 12 l4 12q-10 2 -16 15z" />
<glyph unicode="&#xb6;" d="M-43 688q-12 113 20 211q-18 23 -10 51v6l4 7l2 2q2 2 2 4q8 12 17 28l-15 19l19 24q27 33 39 60q59 84 89 123t95.5 94t130.5 72q2 2 39 20q2 0 7 2t7 2l9 21l18 2q39 6 174 32q123 25 156 27q27 18 61 18q31 0 97 -34l4 -2h12q111 0 194 -68q45 -27 66 -94 q18 -61 -2 -111l-12 -24l-31 2q-27 4 -47 22q-29 20 -74 23q-6 2 -20.5 3t-20.5 1q-45 4 -63 4h-4q-20 -4 -25 -70q-4 -59 8 -186q4 -45 6 -66q2 -35 6 -108q0 -39 3 -60q4 -166 34 -409q53 -432 43 -682l-2 -41h-41q-4 2 -8 2l-8 -2q-4 -2 -10 -10l-8 -11h-15h-6 q-16 0 -23 5q-10 -14 -30 -21l-23 -12l-18 20q-18 18 -31 39q-12 18 -35 39l-10 12l-2 15q-2 147 -6 256q-6 229 -27 389q-4 -2 -10 -2t-10 -2q-66 -10 -115 -29q14 -66 -6 -106q8 -14 27 -17q2 -6 1 -13t-6 -13l-2 -9q-20 -63 -20 -184q0 -86 -10 -125q-16 -72 -66 -108 l-14 -13l-19 4q-39 8 -62.5 16.5t-57 35t-48.5 67.5l-2 10l2 11q37 207 17 413q-162 27 -258 185q-63 102 -76 233zM180 711q0 -90 56 -156q12 2 32 2h6l37 2q10 74 -6 154q-8 35 2 102q10 55 -2 84l-14 35l26 12q-2 2 -3 8.5t-1 8.5l-16 38q-117 -150 -117 -290zM553 549 q4 0 14.5 1t16.5 1q8 2 31.5 5t33.5 5q35 41 17 152q-10 70 -2 207q0 35 2 51q2 31 -13 119q-6 29 -14 86q-14 4 -29 26q-25 -6 -30 -8q-18 -14 -9 -68q14 -77 -6 -122q23 -96 -2 -283q-16 -123 -10 -172z" />
<glyph unicode="&#xb7;" horiz-adv-x="569" d="M123 793v8l4 8q10 18 35 37q14 10 14 14q-2 18 6 35h39q178 -14 219 -80q29 -45 -6 -137q-2 -4 -9 -25.5t-9 -34.5q-4 -27 -6 -34q-10 -6 -20.5 -6t-16.5 2l-8 2q-29 -35 -70 -39h-8l-8 4q-90 33 -127 88q-41 61 -29 158z" />
<glyph unicode="&#xb8;" horiz-adv-x="681" d="M35 -287l2 17l12 10q33 23 84 22q45 0 70 -22q2 -2 5 -6t6 -8.5t5 -10.5q10 -2 31 -2q35 0 78 33q2 0 16 10v6q-6 6 -37 7h-4q-16 0 -47 12q-4 4 -8 4h-2q-12 -6 -25 -6q-35 0 -45 33q-2 2 -3 6t-1 6l-2 2v18q4 96 47 146q0 2 2 4q4 4 4 6q12 25 33 35q8 6 41 10h6 q20 4 33 4q43 0 96 -26l23 -11l-2 -22q0 -37 -27 -68q16 0 31 -6q96 -47 96 -139q20 -33 18 -64q-6 -55 -67 -104q-12 -12 -19 -17q-55 -55 -108 -55q-10 0 -39 4q-2 0 -6 -4q-14 -14 -33 -16q-33 -6 -66 -6q-96 0 -167 30q-18 10 -23 17v26q8 23 -2 56q-10 43 -6 69z" />
<glyph unicode="&#xb9;" horiz-adv-x="681" d="M139 1303l19 26q45 37 86 92q76 88 108 113l21 14l16 -8l10 -6q47 -18 72 -36.5t41 -51.5q18 -41 -10 -109q-12 -37 -13 -53l3 -12l-9 -10q-4 -8 -7 -37t5 -56q2 -2 4 -6l6.5 -13t0.5 -15l-23 -21q2 0 2 -4q0 -23 -10 -43q2 -2 -2 -18q-4 -20 -21 -43q-4 -4 -4 -9 q8 -63 -4 -143q-20 -129 -86 -164q-24 -10 -47 -10q-6 0 -13.5 1t-16.5 3t-13 2l-25 6l-26 2l-6 25q-33 127 12 315q14 51 18 78q0 14 9 23q0 2 6 14q4 8 14 18v2v5q-2 0 -9 -1.5t-11 -1.5q-20 0 -39 9l-13 4l-6 16q-8 18 -14 55q-6 10 -8 13z" />
<glyph unicode="&#xba;" horiz-adv-x="747" d="M14 1137l15 32q12 37 20 56q47 78 47 116q-2 14 2 19l25 10q12 8 22 12q2 0 7 2h2q82 135 239 136q86 0 162 -41l6 -2l6 -7q23 -18 27 -28h10q8 0 10 -2l17 -2l10 -17q2 -4 5 -14t7 -16q18 -53 39 -62l19 -14l-2 -29q-2 -23 6 -47q0 -2 2 -6v-2l4 -14l-4 -13 q-4 -18 -4 -69q0 -59 -6 -74q-6 -43 -25 -62q-16 -59 -76 -129q-39 -39 -53 -71l-8 -17l-21 -2q-4 0 -18 -8t-25 -12q-90 -49 -123 -51h-4q-33 0 -37 12q-14 6 -24 6q-4 0 -6 -2l-19 -6l-16 8q-82 37 -138.5 100.5t-78.5 116.5l-4 10v9q2 20 -2 77q-4 53 -2 74q-12 2 -13 23 zM242 1010q23 -70 75 -92q2 2 9.5 6t13.5 8t8 6q8 6 33 18q37 12 43 21q35 39 57.5 100.5t14.5 114.5q-10 59 -43 72q-14 6 -23 18q6 6 8 15.5t2 17.5v6v2q-18 -4 -22 -14q-4 -2 -19.5 -9.5t-25.5 -11.5q-8 -39 -54 -69q-2 -33 -22 -45l-4 -3l-4 -2h-2l-4 -2q-7 -2 -11 -2 q-57 -68 -30 -155z" />
<glyph unicode="&#xbb;" d="M43 59q2 20 0 28.5t7 26t12.5 21.5t15.5 19.5t14 19.5q18 25 19 33l2 12l10 8q55 45 153 183q51 74 78 100q-8 57 -65 104l-6 9v12q-12 53 -101 192q-88 125 -106 213l-2 33l24 12q25 6 43 7q37 0 60 -21q2 0 8 1t10 1q59 0 105 -51q45 -35 61 -86q82 -80 104 -203l3 -2 q90 -80 102 -172l24 10l15 -43q14 -33 -12 -88q-10 -23 -9 -26l4 -23l-24 -14q-55 -45 -62 -78l-2 -14l-12 -11q-6 -6 -22 -14q-10 -35 -45 -70q-31 -31 -41 -51l-7 -14l-14 -4q-6 -2 -35 -39q-47 -59 -84 -68v-12q-4 0 -26 -12q-41 -23 -58 -25l-12 -2l-12 6q-25 16 -43 39 q-23 23 -37 23l-31 4zM432 1130q23 -8 33 3q6 6 7 13t-1 13v4l47 -8q84 -18 156 -80q18 -18 34.5 -36.5t35 -46t26.5 -38.5q6 -10 20.5 -29.5t22.5 -30.5t20.5 -26.5t25.5 -28t28 -22.5q25 -14 28 -24l-6 -17v-10q6 -10 37 -82q20 -66 39 -70l25 -4v-26q0 -14 22 -56 q49 -80 33 -116q-14 -29 -37 -45q-4 -16 -4 -19l-2 -2v-29l-29 -4q-16 -2 -25.5 -11t-25.5 -38q-4 -10 -10 -20l-19 -35l-22 18q-2 -2 -11.5 -9t-13.5 -13q-23 -31 -22 -47q0 -31 -6 -37l-33 4h-6q-2 0 -8 -4q-8 -8 -19 -33q-27 -59 -51 -72v-36l-33 -9q-10 -2 -22 -6 q-18 -8 -52 -8h-41l-8 20h-2q-14 0 -22 3l-11 4v12q-35 41 -36.5 102.5t36.5 118.5q2 10 33 21q2 0 4 1t4 1q14 23 37 49q4 6 19.5 28.5t29 37t31.5 24.5q8 4 19 14q-6 12 -2 21q0 18 43 69l22 23v4q-6 12 8 35q-37 102 -149 219q-86 74 -134.5 144.5t-60.5 176.5z" />
<glyph unicode="&#xbc;" horiz-adv-x="1708" d="M131 1317q0 8 23.5 32.5t53.5 53.5t40 41q39 57 110 117l17 16l22 -10q8 -4 13 -4q94 -41 116 -95q16 -37 -10 -116q-14 -39 -12 -49v-13l-6 -10q-10 -14 -13.5 -43t9.5 -53q0 -2 1 -7.5t3 -17.5t-2 -18l-19 -19v-6q2 -25 -10 -37q4 -18 -2 -28q-2 -23 -16 -43 q-4 -4 -5 -9q8 -66 -4 -151q-23 -135 -90 -168q-24 -10 -46.5 -10t-47.5 8l-25 6l-26 4l-6 21q-37 119 12 327q14 51 18 82q2 12 9 25q4 8 8 14q8 14 12 27v4q-4 -2 -20.5 -2t-38.5 6l-17 4l-8 14q-10 29 -14 56q-2 10 -6 20q-12 27 -23 31zM213 74l12 14q27 31 58 109 q37 88 73 127v2q47 147 123 178q80 188 180 264q6 35 28 67.5t36 47t45 43.5q2 2 7 6t7 6q39 102 129 154l11 20q0 4 4 4v6q27 61 59 76q31 37 70 92q74 104 116 146l23 22l29 -16q4 -4 30 -15q41 -16 52 -41q20 -41 -11 -88q8 -4 11 -16q-4 -8 -12.5 -14t-14.5 -11l-6 -2 q-55 -41 -58 -96q-2 -2 -4 -5t-6 -12t2 -14l-28 -10h-7h-4q-2 -23 -8 -31l-29 -2q-2 -4 -2 -6q-12 -29 -22 -43q-10 -16 -29 -26q-25 -53 -73 -107q-55 -55 -58 -98v-45l-35 8l-6 -12l4 -6l-2 -11q-4 -31 -35 -41h-4q0 -4 -2 -6l6 -18l-16 -17q-66 -57 -151 -213l-15 -24 l-20 2q-10 -16 -17 -21q-20 -55 -61 -112q-41 -66 -55 -123q0 -12 -5 -25l-2 -16q-2 -27 -30 -37q-37 -80 -56 -104q-57 -78 -141 -78h-14q-35 4 -47 22q6 8 9 20.5t3 18.5l-2 8q0 6 -6 19q-25 31 -29 59zM973 477l10 17q57 92 61 139l7 47q8 -6 12 0q4 2 4 10l-2 21l22 12 q12 10 29 51q23 45 29 53q27 39 69 39h3q2 23 20 25l31 -31l18 -18l2 -2q6 -6 31 -17l20 -10l2 -22q2 -37 -6 -69t-18 -48.5t-33 -44.5q-20 -31 -24 -39q0 -4 1 -16.5t1 -20.5q0 -10 -5 -43q10 -10 35 -16q23 -6 60 -15q8 8 24 51q12 35 19 43q10 16 18 19q6 113 39 266 l8 33l35 -2q59 -6 154 -53l12 -7l27 -14l-7 -27q-8 -39 -28 -102q-25 -76 -27 -106v-21l-18 -12q0 -29 -9 -58q-8 -49 -2 -55l19 -20l-12 -23q-14 -20 -35 -29q-27 -78 -53 -202q-25 -106 -39 -152l-9 -20l-18 -2q-20 -6 -33 -27l-22 -33l-35 21l-27 26h-4q-31 0 -59 29 q-2 2 -8 6l-5 4l-36 4l2 39v15q6 68 8 77q0 2 1 6.5t1 8.5l-12 12l32 41q27 33 15 59q-6 14 -19 15q-8 0 -18 -6l-21 -11l-20 11q-20 14 -27 24q-55 6 -104 49q-49 53 -76 101z" />
<glyph unicode="&#xbd;" horiz-adv-x="1708" d="M164 1292q0 8 4 16.5t8 12.5l4 4q55 49 90 96q35 49 109 115l16 16l23 -10q8 -4 12 -4q33 -16 49.5 -24.5t36 -27t29.5 -40.5q16 -37 -10 -115q-14 -39 -13 -47v-12l-6 -10q-10 -14 -13 -43t9 -52l4 -32l-20 -29v-6q2 -23 -11 -35q4 -16 0 -29q-6 -20 -16 -43 q-4 -4 -4 -8q8 -63 -4 -147q-23 -135 -90 -164q-20 -10 -45 -10q-23 0 -47 8q-4 0 -11.5 2t-11.5 4l-27 4l-6 18q-37 117 13 322q14 51 18 80q2 12 8 24q4 8 6 15q8 14 13 26v4q-4 -2 -19 -2q-18 0 -39 7l-16 4l-8 12q-10 29 -15 55q-2 16 -6 21q-6 25 -14 24zM238 80l12 12 q31 37 55 107q37 86 72 125q0 2 2 2q43 143 119 174q41 96 79.5 155.5t96.5 104.5q6 35 27.5 66.5t35 46t43.5 40.5q2 2 7.5 6.5t7.5 6.5q39 98 127 151q2 4 5 9.5t5 9.5q0 4 4 4v6q27 61 57 76q31 33 70 90q70 100 113 141l22 23l29 -17q6 -4 30 -14q37 -16 50 -39 q23 -43 -11 -86l-2 -23l-20 -20q-53 -45 -55 -94l-2 -27l-35 -14h-6h-5l-4 -27l-30 -4q-2 -4 -2 -6q-12 -29 -23 -43q-10 -16 -29 -27q-16 -45 -71 -104q-53 -49 -56 -96l-8 -25l-26 -10l-7 -12l5 -7l-2 -10q-4 -31 -35 -41h-4q0 -4 -2 -6l6 -16l-15 -17q-61 -53 -149 -209 l-14 -24l-21 2l-14 -21q-20 -55 -62 -110q-37 -57 -53 -119q0 -12 -4 -25l-2 -16q-2 -27 -31 -37q-47 -92 -53 -102q-57 -76 -139 -76h-15q-35 4 -45 20q0 12 4 21.5t9 13.5l2 4q0 2 -13 27q-23 35 -26 59zM946 199q2 25 8 28l27 4q2 0 11 4.5t14 4.5q14 8 34 12 q14 14 86 76q74 66 110 100.5t77 101t63 150.5q-14 8 -18 12q-8 -4 -15 -8q-4 -2 -14 -2q-2 0 -2 -2q-18 -23 -35 -35q-6 -4 -32 -12q-10 -23 -23 -33q-18 -12 -41 -16h-4q6 -23 -2 -29l-27 -8q-18 -4 -41 -4h-14h-8l-45 2v16q-35 -10 -37 8l10 33q4 20 -4 45q0 4 -4 16.5 t-4 18.5l-4 16l8 15q57 90 146 129t216 59l15 2l12 -6q57 -25 115 -82q57 -61 57 -141q-2 -33 -14 -74q-6 -25 -8 -41v-29l-25 -8q-6 -6 -4 -33l2 -12l-14 -12q-20 -23 -37 -64q-33 -70 -66 -92q0 -6 -2 -8v-4q6 -27 -4 -37l-25 -10q-4 -2 -10 -2q-10 0 -14 2q-6 -8 -25 -27 q8 0 24.5 3t26.5 5q66 12 99 13q119 0 186 -103l8 -16l-4 -16q-16 -63 -30 -84q-25 -33 -74 -33q-23 0 -64 6q-4 2 -12 2q-29 6 -65 6q-33 0 -82 -4q-14 0 -40 -1t-36 -1h-6q-10 0 -78 6q-18 2 -47 2q-39 0 -58 -8l-14 -6l-14 8q-59 31 -84 72q-35 47 -25 125z" />
<glyph unicode="&#xbe;" horiz-adv-x="1708" d="M55 1446l4 29l31 4q10 2 28.5 5t26.5 5q131 23 201 22q59 0 100 -10q16 6 35 6q70 0 140 -104q4 -4 11 -13.5t9 -11.5l6 -8l2 -10q8 -37 -20 -66q-12 -14 6 -24l-31 -15q-41 -14 -72 -69l-12 -21q-6 10 -22 0q-4 -2 -17 -10q55 -27 101 -100q31 -47 36 -54l15 -12v-18 q-2 -45 -41 -109q-20 -16 -27 -41l-8 -33l-20 3q-4 -2 -6.5 -6.5t-2.5 -6.5l2 -4l-22 -4q-43 -4 -55 -16l-9 -21l-24 -4h-8q-12 0 -23 8q-49 -29 -82 -28q-10 0 -14 2q-27 -13 -60 -13q-31 0 -57 17q-6 -14 -16 -16.5t-17 1.5l-8 5q-31 45 -45 53l-20 12v23v22q-4 70 22 96 q14 18 39 19h12q16 12 25 12q10 0 16 -2l11 -8q18 -20 59 -21q74 0 152 58q0 2 -2.5 10t-4.5 12q-2 2 -39 17q-49 23 -69 22q-29 0 -68 -22q0 -2 -2 -3t-8 -3.5t-12 2.5q-4 2 -12.5 6t-14.5 6h-29l-10 43v10q-6 66 8 115l4 18l17 8q20 8 32.5 8.5t24.5 -4.5q4 0 6 -2 q16 0 29 21q4 -6 10 -8t10 0l5 2l16 8l2 2l2 2q6 6 15.5 12t23.5 14.5t22 14.5q16 8 50 31q-41 12 -76 12q-53 0 -82 -31l-18 -16l-21 6q0 2 -10 2q-12 0 -23 -10q-4 -4 -12 -19l-31 5q-100 29 -84 186zM195 63l10 13q29 35 59 110q33 82 70 129q0 2 2 2q16 47 27.5 72 t37 57.5t60.5 49.5q76 186 178 260q4 16 8 30.5t13.5 29.5t14.5 23.5t19.5 23t17.5 18.5t21 20l17 17q2 2 7 6t7 6q39 98 129 151q0 4 10 23l2 4v6q18 55 62 76q18 20 65 90q88 117 121 147l23 21l26 -14q4 -4 29 -15q43 -14 55 -43q20 -41 -10 -86q2 0 4 -2t6 -8t0 -14 l-33 -21q-18 -10 -36.5 -36.5t-20.5 -59.5q-2 0 -4 -2t-5 -8t1 -15l-29 -14h-6h-4q-2 -27 -12 -37q-4 -6 -11.5 -5t-11.5 5l-6 2q0 -2 -1 -4t-1 -4q-8 -25 -19 -39q-10 -16 -28 -27q-12 -29 -74 -106q-4 -4 -13 -14.5t-12.5 -13.5t-9.5 -11l-9 -12t-7 -10.5t-5 -11.5t-3 -12 t-2 -13q-4 -29 -13 -43q-4 -6 -8 -5t-6 5l-4 2q-4 -4 -6 -8l4 -7l-2 -10q-4 -31 -35 -41h-4q0 -4 -2 -6v-18l-14 -17q-76 -72 -148 -213l-14 -24l-21 2q-8 -14 -20 -21q-23 -61 -58 -117q-47 -66 -59 -120q0 -10 -4 -23v-16q-4 -29 -29 -39q-41 -82 -59 -107 q-51 -73 -137 -73h-15q-29 0 -45 22l13 35q-2 4 -7.5 14.5t-7.5 14.5q-20 37 -24 61zM954 465l11 20q51 84 57 140l4 37l23 8v8l-2 24l22 13q8 6 29 47q12 41 24 57q29 35 74 35h2q2 16 16 18q8 0 16.5 -5t14.5 -11l4 -4l19 -18l2 -3q4 -4 28 -16l19 -10l2 -25 q6 -88 -53 -159q-23 -33 -27 -41q4 -20 4 -35q0 -18 -6 -43q12 -10 37 -19q27 -12 57 -16q8 6 27 55q12 33 18 39q10 16 19 23q4 125 37 266l8 33l37 -4q72 -10 151 -52q8 -4 14 -6l27 -14l-6 -31q-8 -39 -31 -102q-25 -55 -26 -107v-16l-17 -12q0 -25 -8 -62q-8 -45 -2 -51 l16 -20l-10 -25q-12 -20 -35 -29q-33 -86 -55 -200q-18 -90 -37 -152l-8 -23l-23 -4q-18 -6 -30 -22l-21 -33l-35 21q-14 8 -30 24h-4q-27 0 -56 29q-12 12 -14 12l-37 4l2 39v12q0 2 2 34t4 46q0 2 1 6.5t1 6.5q4 14 -4 18q0 6 6.5 15.5t12.5 15.5l6 6q33 33 18 55 q-8 14 -22 14q-10 0 -19 -6l-16 -10l-21 10q-18 12 -26 29q-55 6 -105 49q-33 27 -75 101z" />
<glyph unicode="&#xbf;" horiz-adv-x="1251" d="M131 113q27 131 70 166l8 14l10 -8q2 18 23 39q27 27 55 26q2 0 6 -1t6 -1q16 8 49 29.5t52 32.5q78 47 84 49q23 16 61 16h2q18 0 23 2q14 6 16 16.5t-2 45.5q0 14 -4 18t-11.5 6t-9.5 4l2 33q2 8 2 16q-2 8 -2 33v10l11 13q6 6 14 10l2 16h35q61 0 108 -47 q33 -16 35 -16l25 -12v-27q0 -18 24 -53q23 -55 27 -80q8 -35 -23 -80q-18 -37 -84 -86q-4 -6 -18 -20.5t-20 -22.5l-11 -6l-16 -2q-248 -53 -305 -240q-4 -41 10 -78t27.5 -53t48.5 -55q4 -4 11 -12.5t13.5 -14.5t12.5 -10h8q117 0 202 86t97 194q-33 -2 -39 15 q-2 16 4 30.5t12 22.5l9 10q6 35 34 54l17 18l24 -18q25 -20 92 -27l37 -2v-16q2 -2 6.5 -2.5t6.5 -2.5l14 -8l4 -18q0 -4 1 -8.5t1 -6.5l2 -2h4l19 -16q6 -12 0 -25q-2 -4 -7.5 -8t-5.5 -6h19l4 -37q4 -29 -6 -57q-6 -20 -2 -49q6 -29 0 -35l-21 -6l-6 -6q0 -20 -10 -47 q-14 -23 -43 -37q-27 -61 -64 -95q12 -2 13 -14q0 -6 -18.5 -17.5t-37.5 -19.5l-18 -8q-25 -20 -111 -39q-76 -12 -100 -39q-14 -16 -45 -22q0 8 -4 16t-8 12l-7 4l-6 3q-6 0 -8 -3q-2 -4 -7 -8t-14.5 -10t-15.5 -4t-10 8t-6 10v4h-19h-6h-6q-31 0 -39 29l-12 6l-2 2 q-6 -2 -16 -2q-8 0 -15 2l-28 6l-3 29v6q-10 8 -26.5 23.5t-20.5 19.5q-35 31 -53 37q-20 10 -29 25l7 20q-6 6 -17.5 10.5t-21.5 6.5l-8 2l2 24q0 4 -25 47q-20 29 -29 56q-10 37 -4 59q-18 45 -6 154zM500 893l4 27q2 2 11 23.5t18.5 37.5t22.5 38.5t31.5 39t39.5 26.5 l4 2l4 3q4 0 8 2q20 0 35 -15q2 0 7 1t9 1q53 0 96.5 -45t47.5 -98q10 -84 -64 -111q-43 -78 -110 -84l-23 -2l-8 17q-16 16 -43 16h-4q-37 -4 -41 4l-2 41q-8 43 -25 57q-16 8 -18 19z" />
<glyph unicode="&#xc0;" horiz-adv-x="1478" d="M6 125l17 12q0 20 10 39q4 2 6 4q0 2 -3 8.5t-5 10.5q0 27 20 47l6 6q-6 53 31 92q2 29 25 55q4 6 18 21q-12 29 2 88q10 37 4 72l-6 24l19 17q8 6 16 6q4 16 -6 35q8 4 22.5 5t24.5 1l10 -2l2 2q4 14 21 32l-2 5q-4 14 -21 22q-2 8 3 15.5t13 11.5l7 2l4 10q4 10 8 12 l-8 37l26 2q2 25 19 68q8 16 21.5 27.5t21.5 13.5l10 4v4q0 27 2 39q8 20 18 28q-8 57 37 93l9 6h16q-10 27 0 35l18 -2q0 2 3.5 4t3.5 4q-8 23 0 37q6 -2 11 -2t7 2l4 2v32l4 19l21 10q59 29 77.5 47.5t42.5 75.5l9 22l14 3q-6 14 0 26l27 12q35 10 63 11q68 0 174 -64 q16 -18 21 -24l-2 -29l-2 -6q0 -2 4 -10q12 -31 10 -52q49 -74 98 -200q47 -125 98 -193q6 4 33 8q10 0 17 2l28 -4l15 -20q0 -6 37 -10l38 -5l5 -24l16 -4l10 -37q18 -70 -59 -127q-25 -20 -27 -27q-12 -51 68 -143l10 -10v-17q2 -27 39 -104q47 -76 49 -141q0 -8 3 -16.5 t9 -19.5t9 -20q55 -94 -5 -172l-8 -14l-18 -4q-2 0 -4 4l-4 2q-2 -2 -4.5 -9t-6.5 -9h-4h-4q-16 -4 -20 -4.5t-12.5 3t-10.5 3.5t-6 -5.5t-6 -5.5l-19 -14q-92 92 -174 309q-4 12 -18 46t-23 53q-20 18 -55 102q-41 86 -55 100q-68 -16 -131 -43q-162 -57 -254 -69 q-18 -18 -19 -23q0 -14 -8 -14l-24 2h-7q-72 0 -110 -27l-2 -22l-47 -49q0 -2 -4 -7l-5 -4q-4 -6 -14 -16q-4 -4 -6 -8q-12 -27 -25 -84q-10 -47 -18 -75t-25.5 -66.5t-44 -60t-63.5 -30.5l-39 -4l-14 33q-4 10 -37 43q-51 51 -66 90zM442 1870l13 12q12 16 37 29 q14 8 18 14l6 23l31 6q6 0 13 1t9 1q10 0 15 -2h6q23 -2 35 -19q6 2 16 2h12q80 0 101 -43q8 -14 8 -32l14 4l19 -19q49 -51 41 -110q-2 -18 2 -35q8 -27 53 -74l10 -12v-17q0 -25 -10 -47q-21 -47 -64 -47q-57 0 -127 29l-4 2q-109 51 -176 136t-76 181zM494 670l8 -8h2 q229 78 319 77q18 0 25 -4q27 25 65 31q-10 29 -67 125q-59 100 -72 151q-10 6 -20 21q-8 20 -11 29q-29 -57 -67 -62q-51 -70 -98 -172q-43 -86 -68 -131q-8 -18 -10 -37q0 -4 -2 -10t-4 -10z" />
<glyph unicode="&#xc1;" horiz-adv-x="1478" d="M6 125l17 12q0 20 10 39q4 2 6 4q0 2 -3 8.5t-5 10.5q0 27 20 47l6 6q-6 53 31 92q2 29 25 55q4 6 18 21q-12 29 2 88q10 37 4 72l-6 24l19 17q8 6 16 6q4 16 -6 35q8 4 22.5 5t24.5 1l10 -2l2 2q4 14 21 32l-2 5q-4 14 -21 22q-2 8 3 15.5t13 11.5l7 2l4 10q4 10 8 12 l-8 37l26 2q2 25 19 68q8 16 21.5 27.5t21.5 13.5l10 4v4q0 27 2 39q8 20 18 28q-8 57 37 93l9 6h16q-10 27 0 35l18 -2q0 2 3.5 4t3.5 4q-8 23 0 37q6 -2 11 -2t7 2l4 2v32l4 19l21 10q59 29 77.5 47.5t42.5 75.5l9 22l14 3q-6 14 0 26l27 12q35 10 63 11q68 0 174 -64 q16 -18 21 -24l-2 -29l-2 -6q0 -2 4 -10q12 -31 10 -52q49 -74 98 -200q47 -125 98 -193q6 4 33 8q10 0 17 2l28 -4l15 -20q0 -6 37 -10l38 -5l5 -24l16 -4l10 -37q18 -70 -59 -127q-25 -20 -27 -27q-12 -51 68 -143l10 -10v-17q2 -27 39 -104q47 -76 49 -141q0 -8 3 -16.5 t9 -19.5t9 -20q55 -94 -5 -172l-8 -14l-18 -4q-2 0 -4 4l-4 2q-2 -2 -4.5 -9t-6.5 -9h-4h-4q-16 -4 -20 -4.5t-12.5 3t-10.5 3.5t-6 -5.5t-6 -5.5l-19 -14q-92 92 -174 309q-4 12 -18 46t-23 53q-20 18 -55 102q-41 86 -55 100q-68 -16 -131 -43q-162 -57 -254 -69 q-18 -18 -19 -23q0 -14 -8 -14l-24 2h-7q-72 0 -110 -27l-2 -22l-47 -49q0 -2 -4 -7l-5 -4q-4 -6 -14 -16q-4 -4 -6 -8q-12 -27 -25 -84q-10 -47 -18 -75t-25.5 -66.5t-44 -60t-63.5 -30.5l-39 -4l-14 33q-4 10 -37 43q-51 51 -66 90zM494 670l8 -8h2q229 78 319 77 q18 0 25 -4q27 25 65 31q-10 29 -67 125q-59 100 -72 151q-10 6 -20 21q-8 20 -11 29q-29 -57 -67 -62q-51 -70 -98 -172q-43 -86 -68 -131q-8 -18 -10 -37q0 -4 -2 -10t-4 -10zM592 1626q2 2 2 8v17l12 12q43 43 47 61q0 6 -4 17q-10 31 -6 49q4 31 37 61l20 19l9 -4 q27 20 45 22q8 12 14 19l12 12h19h10h14h8h11h28l2 -2h11h6q8 -2 20.5 -5t18.5 -3t10 4q4 0 11 2t13.5 3t12.5 1h10l16 -4l9 -10q12 -16 12 -47v-9l6 -6v-16q-12 -143 -145 -238q-12 -8 -31 -8q-14 -37 -66 -47q-8 0 -16 -4l-4 -2q-59 -19 -92 -19q-20 0 -35 2q-23 4 -35 21 q-20 23 -12 94z" />
<glyph unicode="&#xc2;" horiz-adv-x="1478" d="M6 125l17 12q0 20 10 39q4 2 6 4q0 2 -3 8.5t-5 10.5q0 27 20 47l6 6q-6 53 31 92q2 29 25 55q4 6 18 21q-12 29 2 88q10 37 4 72l-6 24l19 17q8 6 16 6q4 16 -6 35q8 4 22.5 5t24.5 1l10 -2l2 2q4 14 21 32l-2 5q-4 14 -21 22q-2 8 3 15.5t13 11.5l7 2l4 10q4 10 8 12 l-8 37l26 2q2 25 19 68q8 16 21.5 27.5t21.5 13.5l10 4v4q0 27 2 39q8 20 18 28q-8 57 37 93l9 6h16q-10 27 0 35l18 -2q0 2 3.5 4t3.5 4q-8 23 0 37q6 -2 11 -2t7 2l4 2v32l4 19l21 10q59 29 77.5 47.5t42.5 75.5l9 22l14 3q-6 14 0 26l27 12q35 10 63 11q68 0 174 -64 q16 -18 21 -24l-2 -29l-2 -6q0 -2 4 -10q12 -31 10 -52q49 -74 98 -200q47 -125 98 -193q6 4 33 8q10 0 17 2l28 -4l15 -20q0 -6 37 -10l38 -5l5 -24l16 -4l10 -37q18 -70 -59 -127q-25 -20 -27 -27q-12 -51 68 -143l10 -10v-17q2 -27 39 -104q47 -76 49 -141q0 -8 3 -16.5 t9 -19.5t9 -20q55 -94 -5 -172l-8 -14l-18 -4q-2 0 -4 4l-4 2q-2 -2 -4.5 -9t-6.5 -9h-4h-4q-16 -4 -20 -4.5t-12.5 3t-10.5 3.5t-6 -5.5t-6 -5.5l-19 -14q-92 92 -174 309q-4 12 -18 46t-23 53q-20 18 -55 102q-41 86 -55 100q-68 -16 -131 -43q-162 -57 -254 -69 q-18 -18 -19 -23q0 -14 -8 -14l-24 2h-7q-72 0 -110 -27l-2 -22l-47 -49q0 -2 -4 -7l-5 -4q-4 -6 -14 -16q-4 -4 -6 -8q-12 -27 -25 -84q-10 -47 -18 -75t-25.5 -66.5t-44 -60t-63.5 -30.5l-39 -4l-14 33q-4 10 -37 43q-51 51 -66 90zM391 1538q-4 29 12 55v13q-2 18 27 47 q4 4 4 6l4 20l29 11q2 6 14 28q18 35 25 68l2 24l16 15q4 0 12.5 -1t12.5 -1h2l8 24l-2 23l23 12q18 12 44.5 12t57.5 -10q20 -10 53 -10q35 0 64 14q12 6 22 6q33 0 68 -49q6 -12 8 -14l8 -6l4 -6q23 -47 103 -95q43 -27 45 -28l4 -4l4 -2q12 -16 16 -66v-10l15 -2l-4 -39 q-2 -39 -43 -51l-2 -2h-5q-2 -2 -4 -4.5t-5 -9.5t-1 -15l-37 12q-55 18 -104 60q-27 29 -47 34l-23 9l-6 18q-6 25 -13 31t-21.5 6t-43.5 -4q-12 0 -32 -4q-23 -31 -29 -56q-10 -31 -27 -43l-8 -6l-8 -2q-20 -4 -37 -35l-12 -36l-31 2q-6 -4 -9 -9.5t-3 -9.5l2 -2l-41 12 q-102 31 -111 70zM494 670l8 -8h2q229 78 319 77q18 0 25 -4q27 25 65 31q-10 29 -67 125q-59 100 -72 151q-10 6 -20 21q-8 20 -11 29q-29 -57 -67 -62q-51 -70 -98 -172q-43 -86 -68 -131q-8 -18 -10 -37q0 -4 -2 -10t-4 -10z" />
<glyph unicode="&#xc3;" horiz-adv-x="1478" d="M6 125l17 12q0 20 10 39q4 2 6 4q0 2 -3 8.5t-5 10.5q0 27 20 47l6 6q-6 53 31 92q2 29 25 55q4 6 18 21q-12 29 2 88q10 37 4 72l-6 24l19 17q8 6 16 6q4 16 -6 35q8 4 22.5 5t24.5 1l10 -2l2 2q4 14 21 32l-2 5q-4 14 -21 22q-2 8 3 15.5t13 11.5l7 2l4 10q4 10 8 12 l-8 37l26 2q2 25 19 68q8 16 21.5 27.5t21.5 13.5l10 4v4q0 27 2 39q8 20 18 28q-8 57 37 93l9 6h16q-10 27 0 35l18 -2q0 2 3.5 4t3.5 4q-8 23 0 37q6 -2 11 -2t7 2l4 2v32l4 19l21 10q59 29 77.5 47.5t42.5 75.5l9 22l14 3q-6 14 0 26l27 12q35 10 63 11q68 0 174 -64 q16 -18 21 -24l-2 -29l-2 -6q0 -2 4 -10q12 -31 10 -52q49 -74 98 -200q47 -125 98 -193q6 4 33 8q10 0 17 2l28 -4l15 -20q0 -6 37 -10l38 -5l5 -24l16 -4l10 -37q18 -70 -59 -127q-25 -20 -27 -27q-12 -51 68 -143l10 -10v-17q2 -27 39 -104q47 -76 49 -141q0 -8 3 -16.5 t9 -19.5t9 -20q55 -94 -5 -172l-8 -14l-18 -4q-2 0 -4 4l-4 2q-2 -2 -4.5 -9t-6.5 -9h-4h-4q-16 -4 -20 -4.5t-12.5 3t-10.5 3.5t-6 -5.5t-6 -5.5l-19 -14q-92 92 -174 309q-4 12 -18 46t-23 53q-20 18 -55 102q-41 86 -55 100q-68 -16 -131 -43q-162 -57 -254 -69 q-18 -18 -19 -23q0 -14 -8 -14l-24 2h-7q-72 0 -110 -27l-2 -22l-47 -49q0 -2 -4 -7l-5 -4q-4 -6 -14 -16q-4 -4 -6 -8q-12 -27 -25 -84q-10 -47 -18 -75t-25.5 -66.5t-44 -60t-63.5 -30.5l-39 -4l-14 33q-4 10 -37 43q-51 51 -66 90zM381 1694v2q8 41 29 65q4 16 14 27 q14 16 33 20q14 18 37 25l14 6q4 4 27 10q12 2 20 9l14 10l17 -2q20 -2 43 -11q33 -10 47 -22q4 2 10 2q12 0 19 -2l12 -6l2 -4q4 0 8 -4q61 -31 78 -52h4h4q27 0 43 -6q6 2 23 6q25 2 32 15v6q8 27 2 57l-2 19l13 10q27 37 63 37q33 0 74 -37q8 -8 14 -8l25 -6v-31 q2 -10 -8 -31q14 -37 0 -76q-6 -31 -19 -45q0 -16 -14 -39q-10 -16 -33 -39l-4 -4v-18l-31 -8h-14q-4 0 -10 -1t-9 -1l-6 -2q-20 -14 -47 -19q-2 0 -6 -1t-7 -1t-6 -1t-5 -3t-6.5 -4t-19.5 -6t-32 2l-12 16q-2 2 -4 2h-4q-20 -4 -25 -4q-63 0 -102 51q-41 41 -84 45 q-18 -14 -35 -20q-4 0 -6 -2q-4 -6 -16 -18q-2 -2 -7.5 -9.5t-7.5 -9.5l-4 -10l-10 -6q-14 -12 -41 -13q-39 0 -72 29q-27 45 -12 111zM494 670l8 -8h2q229 78 319 77q18 0 25 -4q27 25 65 31q-10 29 -67 125q-59 100 -72 151q-10 6 -20 21q-8 20 -11 29q-29 -57 -67 -62 q-51 -70 -98 -172q-43 -86 -68 -131q-8 -18 -10 -37q0 -4 -2 -10t-4 -10z" />
<glyph unicode="&#xc4;" horiz-adv-x="1478" d="M6 125l17 12q0 20 10 39q4 2 6 4q0 2 -3 8.5t-5 10.5q0 27 20 47l6 6q-6 53 31 92q2 29 25 55q4 6 18 21q-12 29 2 88q10 37 4 72l-6 24l19 17q8 6 16 6q4 16 -6 35q8 4 22.5 5t24.5 1l10 -2l2 2q4 14 21 32l-2 5q-4 14 -21 22q-2 8 3 15.5t13 11.5l7 2l4 10q4 10 8 12 l-8 37l26 2q2 25 19 68q8 16 21.5 27.5t21.5 13.5l10 4v4q0 27 2 39q8 20 18 28q-8 57 37 93l9 6h16q-10 27 0 35l18 -2q0 2 3.5 4t3.5 4q-8 23 0 37q6 -2 11 -2t7 2l4 2v32l4 19l21 10q59 29 77.5 47.5t42.5 75.5l9 22l14 3q-6 14 0 26l27 12q35 10 63 11q68 0 174 -64 q16 -18 21 -24l-2 -29l-2 -6q0 -2 4 -10q12 -31 10 -52q49 -74 98 -200q47 -125 98 -193q6 4 33 8q10 0 17 2l28 -4l15 -20q0 -6 37 -10l38 -5l5 -24l16 -4l10 -37q18 -70 -59 -127q-25 -20 -27 -27q-12 -51 68 -143l10 -10v-17q2 -27 39 -104q47 -76 49 -141q0 -8 3 -16.5 t9 -19.5t9 -20q55 -94 -5 -172l-8 -14l-18 -4q-2 0 -4 4l-4 2q-2 -2 -4.5 -9t-6.5 -9h-4h-4q-16 -4 -20 -4.5t-12.5 3t-10.5 3.5t-6 -5.5t-6 -5.5l-19 -14q-92 92 -174 309q-4 12 -18 46t-23 53q-20 18 -55 102q-41 86 -55 100q-68 -16 -131 -43q-162 -57 -254 -69 q-18 -18 -19 -23q0 -14 -8 -14l-24 2h-7q-72 0 -110 -27l-2 -22l-47 -49q0 -2 -4 -7l-5 -4q-4 -6 -14 -16q-4 -4 -6 -8q-12 -27 -25 -84q-10 -47 -18 -75t-25.5 -66.5t-44 -60t-63.5 -30.5l-39 -4l-14 33q-4 10 -37 43q-51 51 -66 90zM367 1767q0 10 5 19.5t9 13.5l6 4 q10 10 29 60q4 35 18 43q6 4 17.5 -1t19.5 -14l8 -8q8 -6 15 -6q2 0 8 1t10 1q16 4 25 4q10 0 22 -4q10 6 25 6q8 0 14 -2q16 10 33 -8q-4 -6 -4 -14.5v-14.5l2 -4q2 -2 6 -10l31 -6q2 0 5 -2l6 -4t5 -2q12 -10 35 -11q6 -14 6 -26.5t-4 -20.5l-4 -8q-16 -35 -31 -70 q-43 -119 -119 -149l-12 -6l-14 6q-45 16 -86 61q-29 33 -47 41q-25 6 -27 15l2 30l2 5q4 25 6 38v19q-2 16 -22 24zM494 670l8 -8h2q229 78 319 77q18 0 25 -4q27 25 65 31q-10 29 -67 125q-59 100 -72 151q-10 6 -20 21q-8 20 -11 29q-29 -57 -67 -62q-51 -70 -98 -172 q-43 -86 -68 -131q-8 -18 -10 -37q0 -4 -2 -10t-4 -10zM766 1661l20 37q2 2 7 31q0 37 14 59q14 25 45 35v2q0 27 6 45l8 24l25 4h12q16 0 33 -8h8q96 0 143 -84q47 -86 -6 -172l-12 -20h-10q-14 -39 -70 -80q-2 -2 -7 -6t-7 -6q-18 -16 -29 -17q-4 0 -11 5.5t-11 9.5l-4 4 l-7 6q-18 23 -41 24q-14 4 -32 5l-4 28l-17 12q-16 12 -22 39q-31 12 -31 23z" />
<glyph unicode="&#xc5;" horiz-adv-x="1478" d="M6 125l17 12q0 20 10 39q4 2 6 4q0 2 -3 8.5t-5 10.5q0 27 20 47l6 6q-6 53 31 92q2 29 25 55q4 6 18 21q-12 29 2 88q10 37 4 72l-6 24l19 17q8 6 16 6q4 16 -6 35q8 4 22.5 5t24.5 1l10 -2l2 2q4 14 21 32l-2 5q-4 14 -21 22q-2 8 3 15.5t13 11.5l7 2l4 10q4 10 8 12 l-8 37l26 2q2 25 19 68q8 16 21.5 27.5t21.5 13.5l10 4v4q0 27 2 39q8 20 18 28q-8 57 37 93l9 6h16q-10 27 0 35l18 -2q0 2 3.5 4t3.5 4q-8 23 0 37q6 -2 11 -2t7 2l4 2v32l4 19l21 10q59 29 77.5 47.5t42.5 75.5l9 22l14 3q-6 14 0 26l27 12q35 10 63 11q68 0 174 -64 q16 -18 21 -24l-2 -29l-2 -6q0 -2 4 -10q12 -31 10 -52q49 -74 98 -200q47 -125 98 -193q6 4 33 8q10 0 17 2l28 -4l15 -20q0 -6 37 -10l38 -5l5 -24l16 -4l10 -37q18 -70 -59 -127q-25 -20 -27 -27q-12 -51 68 -143l10 -10v-17q2 -27 39 -104q47 -76 49 -141q0 -8 3 -16.5 t9 -19.5t9 -20q55 -94 -5 -172l-8 -14l-18 -4q-2 0 -4 4l-4 2q-2 -2 -4.5 -9t-6.5 -9h-4h-4q-16 -4 -20 -4.5t-12.5 3t-10.5 3.5t-6 -5.5t-6 -5.5l-19 -14q-92 92 -174 309q-4 12 -18 46t-23 53q-20 18 -55 102q-41 86 -55 100q-68 -16 -131 -43q-162 -57 -254 -69 q-18 -18 -19 -23q0 -14 -8 -14l-24 2h-7q-72 0 -110 -27l-2 -22l-47 -49q0 -2 -4 -7l-5 -4q-4 -6 -14 -16q-4 -4 -6 -8q-12 -27 -25 -84q-10 -47 -18 -75t-25.5 -66.5t-44 -60t-63.5 -30.5l-39 -4l-14 33q-4 10 -37 43q-51 51 -66 90zM494 670l8 -8h2q229 78 319 77 q18 0 25 -4q27 25 65 31q-10 29 -67 125q-59 100 -72 151q-10 6 -20 21q-8 20 -11 29q-29 -57 -67 -62q-51 -70 -98 -172q-43 -86 -68 -131q-8 -18 -10 -37q0 -4 -2 -10t-4 -10zM512 1694q-2 10 6 10q2 2 1 8t-1 8v6v39q6 10 8 13v6l2 6l2 6q8 16 25 25q10 10 10 12l4 16 l15 11q2 0 5 2t5 2q-6 4 0 10l18 2q14 2 25 8q29 29 59 29h6h5.5t9.5 6t6 18q12 2 23.5 -1t15.5 -7l6 -4h2h8h10q4 0 27 -10l10 -4l4 -6h7l10 4l10 -4q25 -6 31 -23q6 -6 10 -6l8 -2q27 0 35 -8q-4 -8 -5 -16.5t-1 -12.5l2 -4q2 -4 10 -8l27 -8l-2 -33l2 -6q6 -113 -15 -148 l-6 -8l-8 -4l-16 -16q-6 -4 -24.5 -21.5t-34 -30t-46 -22.5t-67.5 -10q-39 0 -62 6q-5 -11 -28 -11q-14 0 -39 11l-25 16v2q-41 33 -43 35l-12 8l2 4h-2l-2 2q-18 18 -23 35q-4 18 -4 47v4zM694 1714q0 -6 8 -18q10 -2 25 -2q12 0 29 6q12 8 37 12q2 4 2 10v13v12v2v6v4 q0 -2 -2 -2q-18 -6 -29 -6q-12 -12 -25 -14l-6 -2h-4q-29 0 -35 -15v-6z" />
<glyph unicode="&#xc6;" horiz-adv-x="2048" d="M-90 164l27 22q8 8 12 25q27 47 43 57q0 4 1 9.5t1 7.5q-2 23 4 32q2 6 10 6.5t15 -1.5l6 -3q6 33 24 60q20 29 56 37q10 29 41 86q33 55 40 98l3 25l12 4q0 8 2 12q14 27 53 31q-2 16 -10 35l-6 32l28 19q41 18 61.5 59t41.5 111q33 123 80 164q6 72 88 137l20 14 q14 18 0 41q4 6 11.5 10t13.5 6l6 3q27 6 59 59q2 0 2 2h-10l27 51q2 4 6 10.5t4 8.5q4 4 4 8t-2 8l-4 35q2 6 9 10t13 6l7 2q16 2 39 15q45 20 63 20q31 39 72 39q18 0 59 -18q29 -12 49 -19l8 -4l9 -10q18 -23 22 -68v-6q29 4 45 4q8 2 23 2l8 15l31 -7q16 -4 43 -26 q84 14 198 14h21h22q115 0 187 8l57 6l-4 -18q31 12 53 12q12 0 41 -4q33 -4 49 -4q61 -2 68 -2q4 -2 4 -8v-10l-2 -7q45 -14 65 -71q8 -18 13 -19l24 -10v-27l-8 -24l8 -16l-18 -25q-12 -29 -45 -47q-8 -4 -12 -8l-7 -6h-10q-49 -8 -112 -9q-51 0 -146 9q-86 8 -131 8 q-49 0 -106 -11l-17 -2l-16 15q-20 16 -45 16q-2 0 -31 -4q-8 -2 -14 -2q12 -12 -6 -25q-23 4 -46.5 4.5t-37.5 -2.5l-13 -2l-6 -2h-10q-37 -6 -45 -6q-29 0 -49 15l-2 -2q-2 -2 -4 -3q4 -16 8 -28q16 -37 18 -72q0 -27 -8 -72q-10 -66 -4 -79q8 -20 30.5 -20.5t49.5 5.5 q41 10 69 10q23 0 45 -6q59 12 93 13q18 0 100 -15h6q33 10 74 11q33 0 47 -3q16 -4 29 -4q4 0 11 1t9 1h27l26 -12q4 0 15 -10q10 8 32 8q18 0 39 -8h21l10 -21l18 -20l-6 -16l19 -7q25 -47 2 -102q-29 -61 -148 -90q-25 -4 -34 -4q-20 0 -62 10q-14 4 -43 8q-20 2 -63 2 q-25 0 -52.5 -1t-61.5 -3t-54 -2q-115 -8 -170 -8h-43v-4q29 -82 2 -123l-2 -6l-4 -4q-8 -8 -19 -11q-4 -51 23 -170q20 -63 24 -106q129 -14 281 -14q238 0 432 41l12 2l10 -2q51 -18 74 -93q8 -31 19 -34q29 -16 30 -33q0 -8 -5 -16.5t-11 -14.5l-4 -4 q-146 -121 -416 -121q-100 0 -297 21q-197 16 -215 18h-18l-13 12q-6 10 -22 17q-39 12 -62 37q-37 51 -59 217q-4 29 -6 39l-2 10l4 6q0 14 -4 39q-6 20 -6 43q-25 8 -66 8q-47 0 -96 -6q-61 -6 -123 -6q-88 0 -151 20l-7 -18q-16 -31 -49 -31h-6v-2l6 -6q12 -31 -4 -57 q-39 -68 -61 -80q-23 -37 -58 -72q-29 -29 -41 -88l-6 -20l-18 -9q-2 0 -10 -4q-23 -8 -27 -14q-10 -35 -16.5 -37t-16.5 2t-18 8l-6 4q-74 43 -146 156zM526 643h17q178 0 262 43q10 57 10 244q0 123 2 174l-6 12q-2 6 -4 8q0 2 -1 8.5t-1 10.5q-39 -37 -107 -172 q-49 -119 -104 -176q-4 -35 -55 -129q-9 -17 -13 -23z" />
<glyph unicode="&#xc7;" horiz-adv-x="1478" d="M80 694v2v4q2 12 24 97q29 86 23 98l-4 10l2 13q8 51 45 116q29 61 35 109l4 20l22 8q43 12 72 80q2 2 9 14.5t9.5 15.5t9.5 14.5t12 16.5t13.5 14t14.5 14.5t15 10.5t20 9q4 12 16 26l2 3l2 2q23 20 84 49q47 14 68 35l6 6l8 4q106 27 215 26q174 0 319 -67 q152 -74 230 -207l8 -16l-6 -19q-16 -41 -66 -63q-35 -23 -84 -23q-61 0 -100 39q-25 25 -29 70q-61 55 -252 55q-29 -31 -71 -31h-15h-12h-14q-96 -33 -157.5 -108.5t-121.5 -206.5l-10 -31l-20 -6q-6 -29 -15.5 -71t-13.5 -62q-16 -57 -25 -90q4 -66 17.5 -126.5t43 -127 t89 -110.5t143.5 -52q43 14 146 23q84 12 114 22q16 2 58.5 22.5t98.5 75t71 121.5q-8 47 2 82l4 23l22 8q37 10 62 10q37 0 73 -22q16 -8 35 -15l29 -8v-27v-18v-16q6 -8 20 -11l-8 -39q-82 -211 -170 -290q-90 -76 -303 -127q0 -16 -2 -25q10 -6 96 -49q41 -16 43 -16 q68 -4 97 -66q45 -23 41 -76q-4 -29 -13 -49l2 -35q0 -14 -5 -30.5t-15 -30.5t-18.5 -24.5t-17.5 -19.5l-11 -11q-49 -51 -201 -80q-8 -2 -32.5 -8.5t-37.5 -10.5l-6 -4h-8q-35 2 -63 8q-49 4 -66 4q-29 0 -41 -2q-4 -2 -11 -3t-24.5 -3t-21.5 4q0 16 2 26.5t4 14.5l2 2 q-2 0 -6 4q-55 41 -58 86l-2 7l2 2q14 84 99 84q31 0 55 -7q61 -6 63 -6q57 0 95 45q6 12 6 17q-14 12 -23 18q-8 4 -55 29q-86 31 -113 67l-10 13l2 16v19l-4 4q-2 4 -4 6q-25 18 -31 47q-27 2 -61 2q-66 2 -246 61l-18 9l-2 22q-4 25 6 41q-98 59 -158 215 q-49 141 -49 305z" />
<glyph unicode="&#xc8;" horiz-adv-x="1366" d="M59 1251q-23 70 4 105q16 27 50 26q14 0 26 -6q96 -35 172 -35q27 0 39 2q80 8 320 54q197 41 317 49h4h2q41 -2 66 -21q20 -6 26 -6h7l36 -4l7 -37q0 -4 10 -14q2 -2 8 -10t10 -15l11 -12l-7 -20q-14 -37 -55 -56q-20 -12 -20 -18l-5 -41l-38 2h-11q-12 0 -30 -6 q-12 -6 -21 -8l-22 -6l-13 14l-18 -10q-66 -2 -139 -35l-25 -10l-12 14q-2 0 -7.5 -2t-7.5 -4q-45 -10 -55 -13q-4 0 -17.5 -1t-21.5 -1q-10 0 -28.5 1t-26.5 1q-14 2 -45 2h-27q-8 -2 -51 -16q-53 -25 -94 -24q-12 0 -21 2h-10l-8 8q-4 4 -8 4q2 -6 8 -51q0 -18 2 -25l6 -6 l10 -10q8 -10 13 -19q6 -20 6 -59q0 -27 2 -37q6 -41 18 -76q2 -16 11.5 -60t13.5 -67q31 4 104 21q59 16 119 22q18 0 55 4q49 4 74 9q8 2 23.5 6t23.5 6q86 20 127 20q102 0 144 -90l6 -33l-25 -20q-2 0 -2 -2q-4 -2 -4 -49l-2 -23l-16 -12q-104 -61 -367 -90 q-115 -12 -170 -23q-51 -8 -72 -26q8 -20 4 -49l21 -23l-17 -47q-2 -2 -2 -4q0 -6 5 -15q12 -41 10 -53q25 -6 53 -6q61 -4 82 -18q119 29 285 37q127 8 213 23t163 58l9 5h10q35 -2 63 -35q10 -10 15 -11l32 -20l-4 -43q-8 -8 -2 -27q10 -33 -4 -53q-12 -23 -26 -29v-2 q-2 -8 -9 -24l-4 -8q-4 -8 -8 -19l-8 -16l-21 -4h-8q-8 0 -20 4q-8 -18 -15 -25l-16 -22l-25 10q-4 2 -14 2q-20 0 -57 -10q-49 -12 -78 -13q-23 0 -33 5q-45 -33 -133 -33h-37h-35h-4q-27 0 -75 -4q-53 -4 -74 -4t-29 2h-6q-6 0 -13.5 -1t-16.5 -3t-15 -2q-45 -9 -72 -9 h-18q-39 4 -109 21q-59 16 -100 22h-25l-8 27q-39 115 -39 369q4 162 -12 260q-2 4 -6 9t-6 7l-11 27q-6 176 -129 581zM385 1870l12 12q12 16 37 29q14 8 19 14l6 23l30 6q6 0 13.5 1t9.5 1q10 0 14 -2h6q23 -2 35 -19q6 2 17 2h12q80 0 100 -43q8 -14 9 -32l14 4l18 -19 q49 -51 41 -110q-2 -18 2 -35q8 -27 54 -74l10 -12v-17q0 -25 -10 -47q-21 -47 -64 -47q-57 0 -127 29l-4 2q-109 51 -176.5 136t-75.5 181z" />
<glyph unicode="&#xc9;" horiz-adv-x="1366" d="M59 1251q-23 70 4 105q16 27 50 26q14 0 26 -6q96 -35 172 -35q27 0 39 2q80 8 320 54q197 41 317 49h4h2q41 -2 66 -21q20 -6 26 -6h7l36 -4l7 -37q0 -4 10 -14q2 -2 8 -10t10 -15l11 -12l-7 -20q-14 -37 -55 -56q-20 -12 -20 -18l-5 -41l-38 2h-11q-12 0 -30 -6 q-12 -6 -21 -8l-22 -6l-13 14l-18 -10q-66 -2 -139 -35l-25 -10l-12 14q-2 0 -7.5 -2t-7.5 -4q-45 -10 -55 -13q-4 0 -17.5 -1t-21.5 -1q-10 0 -28.5 1t-26.5 1q-14 2 -45 2h-27q-8 -2 -51 -16q-53 -25 -94 -24q-12 0 -21 2h-10l-8 8q-4 4 -8 4q2 -6 8 -51q0 -18 2 -25l6 -6 l10 -10q8 -10 13 -19q6 -20 6 -59q0 -27 2 -37q6 -41 18 -76q2 -16 11.5 -60t13.5 -67q31 4 104 21q59 16 119 22q18 0 55 4q49 4 74 9q8 2 23.5 6t23.5 6q86 20 127 20q102 0 144 -90l6 -33l-25 -20q-2 0 -2 -2q-4 -2 -4 -49l-2 -23l-16 -12q-104 -61 -367 -90 q-115 -12 -170 -23q-51 -8 -72 -26q8 -20 4 -49l21 -23l-17 -47q-2 -2 -2 -4q0 -6 5 -15q12 -41 10 -53q25 -6 53 -6q61 -4 82 -18q119 29 285 37q127 8 213 23t163 58l9 5h10q35 -2 63 -35q10 -10 15 -11l32 -20l-4 -43q-8 -8 -2 -27q10 -33 -4 -53q-12 -23 -26 -29v-2 q-2 -8 -9 -24l-4 -8q-4 -8 -8 -19l-8 -16l-21 -4h-8q-8 0 -20 4q-8 -18 -15 -25l-16 -22l-25 10q-4 2 -14 2q-20 0 -57 -10q-49 -12 -78 -13q-23 0 -33 5q-45 -33 -133 -33h-37h-35h-4q-27 0 -75 -4q-53 -4 -74 -4t-29 2h-6q-6 0 -13.5 -1t-16.5 -3t-15 -2q-45 -9 -72 -9 h-18q-39 4 -109 21q-59 16 -100 22h-25l-8 27q-39 115 -39 369q4 162 -12 260q-2 4 -6 9t-6 7l-11 27q-6 176 -129 581zM535 1626q2 2 2 8v17l12 12q43 43 47 61q0 6 -4 17q-10 31 -6 49q4 31 37 61l20 19l8 -4q27 20 45 22q8 12 15 19l12 12h18h11h14h8h10h29l2 -2h10h6 q8 -2 20.5 -5t19 -3t10.5 4l37 6h10l16 -4l8 -10q12 -16 13 -47v-9l6 -6v-16q-12 -143 -146 -238q-12 -8 -30 -8q-14 -37 -66 -47q-8 0 -16 -4l-4 -2q-60 -19 -93 -19q-20 0 -34 2q-23 4 -35 21q-20 23 -12 94z" />
<glyph unicode="&#xca;" horiz-adv-x="1366" d="M59 1251q-23 70 4 105q16 27 50 26q14 0 26 -6q96 -35 172 -35q27 0 39 2q80 8 320 54q197 41 317 49h4h2q41 -2 66 -21q20 -6 26 -6h7l36 -4l7 -37q0 -4 10 -14q2 -2 8 -10t10 -15l11 -12l-7 -20q-14 -37 -55 -56q-20 -12 -20 -18l-5 -41l-38 2h-11q-12 0 -30 -6 q-12 -6 -21 -8l-22 -6l-13 14l-18 -10q-66 -2 -139 -35l-25 -10l-12 14q-2 0 -7.5 -2t-7.5 -4q-45 -10 -55 -13q-4 0 -17.5 -1t-21.5 -1q-10 0 -28.5 1t-26.5 1q-14 2 -45 2h-27q-8 -2 -51 -16q-53 -25 -94 -24q-12 0 -21 2h-10l-8 8q-4 4 -8 4q2 -6 8 -51q0 -18 2 -25l6 -6 l10 -10q8 -10 13 -19q6 -20 6 -59q0 -27 2 -37q6 -41 18 -76q2 -16 11.5 -60t13.5 -67q31 4 104 21q59 16 119 22q18 0 55 4q49 4 74 9q8 2 23.5 6t23.5 6q86 20 127 20q102 0 144 -90l6 -33l-25 -20q-2 0 -2 -2q-4 -2 -4 -49l-2 -23l-16 -12q-104 -61 -367 -90 q-115 -12 -170 -23q-51 -8 -72 -26q8 -20 4 -49l21 -23l-17 -47q-2 -2 -2 -4q0 -6 5 -15q12 -41 10 -53q25 -6 53 -6q61 -4 82 -18q119 29 285 37q127 8 213 23t163 58l9 5h10q35 -2 63 -35q10 -10 15 -11l32 -20l-4 -43q-8 -8 -2 -27q10 -33 -4 -53q-12 -23 -26 -29v-2 q-2 -8 -9 -24l-4 -8q-4 -8 -8 -19l-8 -16l-21 -4h-8q-8 0 -20 4q-8 -18 -15 -25l-16 -22l-25 10q-4 2 -14 2q-20 0 -57 -10q-49 -12 -78 -13q-23 0 -33 5q-45 -33 -133 -33h-37h-35h-4q-27 0 -75 -4q-53 -4 -74 -4t-29 2h-6q-6 0 -13.5 -1t-16.5 -3t-15 -2q-45 -9 -72 -9 h-18q-39 4 -109 21q-59 16 -100 22h-25l-8 27q-39 115 -39 369q4 162 -12 260q-2 4 -6 9t-6 7l-11 27q-6 176 -129 581zM334 1538q-4 29 12 55v13q-2 18 27 47q4 4 4 6l4 20l29 11q2 6 14 28q18 35 25 68l2 24l16 15q4 0 12 -1t13 -1h2l8 24l-2 23l22 12q18 12 45 12t58 -10 q20 -10 53 -10q35 0 63 14q12 6 23 6q33 0 67 -49q6 -12 9 -14l8 -6l4 -6q23 -47 102 -95q43 -27 45 -28l5 -4l4 -2q12 -16 16 -66v-10l14 -2l-4 -39q-2 -39 -43 -51l-2 -2h-4q-2 -2 -4 -4.5t-5 -9.5t-1 -15l-37 12q-55 18 -104 60q-27 29 -48 34l-22 9l-6 18 q-6 25 -13.5 31t-21.5 6t-43 -4q-12 0 -33 -4q-23 -31 -29 -56q-10 -31 -26 -43l-8 -6l-9 -2q-20 -4 -36 -35l-13 -36l-30 2q-6 -4 -9.5 -9.5t-3.5 -9.5l2 -2l-41 12q-102 31 -110 70z" />
<glyph unicode="&#xcb;" horiz-adv-x="1366" d="M59 1251q-23 70 4 105q16 27 50 26q14 0 26 -6q96 -35 172 -35q27 0 39 2q80 8 320 54q197 41 317 49h4h2q41 -2 66 -21q20 -6 26 -6h7l36 -4l7 -37q0 -4 10 -14q2 -2 8 -10t10 -15l11 -12l-7 -20q-14 -37 -55 -56q-20 -12 -20 -18l-5 -41l-38 2h-11q-12 0 -30 -6 q-12 -6 -21 -8l-22 -6l-13 14l-18 -10q-66 -2 -139 -35l-25 -10l-12 14q-2 0 -7.5 -2t-7.5 -4q-45 -10 -55 -13q-4 0 -17.5 -1t-21.5 -1q-10 0 -28.5 1t-26.5 1q-14 2 -45 2h-27q-8 -2 -51 -16q-53 -25 -94 -24q-12 0 -21 2h-10l-8 8q-4 4 -8 4q2 -6 8 -51q0 -18 2 -25l6 -6 l10 -10q8 -10 13 -19q6 -20 6 -59q0 -27 2 -37q6 -41 18 -76q2 -16 11.5 -60t13.5 -67q31 4 104 21q59 16 119 22q18 0 55 4q49 4 74 9q8 2 23.5 6t23.5 6q86 20 127 20q102 0 144 -90l6 -33l-25 -20q-2 0 -2 -2q-4 -2 -4 -49l-2 -23l-16 -12q-104 -61 -367 -90 q-115 -12 -170 -23q-51 -8 -72 -26q8 -20 4 -49l21 -23l-17 -47q-2 -2 -2 -4q0 -6 5 -15q12 -41 10 -53q25 -6 53 -6q61 -4 82 -18q119 29 285 37q127 8 213 23t163 58l9 5h10q35 -2 63 -35q10 -10 15 -11l32 -20l-4 -43q-8 -8 -2 -27q10 -33 -4 -53q-12 -23 -26 -29v-2 q-2 -8 -9 -24l-4 -8q-4 -8 -8 -19l-8 -16l-21 -4h-8q-8 0 -20 4q-8 -18 -15 -25l-16 -22l-25 10q-4 2 -14 2q-20 0 -57 -10q-49 -12 -78 -13q-23 0 -33 5q-45 -33 -133 -33h-37h-35h-4q-27 0 -75 -4q-53 -4 -74 -4t-29 2h-6q-6 0 -13.5 -1t-16.5 -3t-15 -2q-45 -9 -72 -9 h-18q-39 4 -109 21q-59 16 -100 22h-25l-8 27q-39 115 -39 369q4 162 -12 260q-2 4 -6 9t-6 7l-11 27q-6 176 -129 581zM309 1767q0 10 5 19.5t10 13.5l6 4q10 10 28 60q4 35 19 43q6 4 17.5 -1t19.5 -14l8 -8q8 -6 14 -6q2 0 8.5 1t10.5 1q16 4 24 4q10 0 23 -4q10 6 24 6 q8 0 15 -2q16 10 32 -8q-4 -6 -4 -14.5v-14.5l2 -4q2 -2 7 -10l30 -6q2 0 5 -2t6.5 -4t5.5 -2q12 -10 34 -11q6 -14 6.5 -26.5t-3.5 -20.5l-5 -8q-16 -35 -30 -70q-43 -119 -119 -149l-12 -6l-15 6q-45 16 -86 61q-29 33 -47 41q-25 6 -26 15l2 30l2 5q4 25 6 38v19 q-2 16 -23 24zM709 1661l20 37q2 2 6 31q0 37 15 59q14 25 45 35v2q0 27 6 45l8 24l25 4h12q16 0 33 -8h8q96 0 143 -84q47 -86 -6 -172l-12 -20h-11q-14 -39 -69 -80q-2 -2 -7 -6t-7 -6q-18 -16 -29 -17q-4 0 -11.5 5.5t-11.5 9.5l-4 4l-6 6q-18 23 -41 24q-14 4 -33 5 l-4 28l-16 12q-16 12 -23 39q-31 12 -30 23z" />
<glyph unicode="&#xcc;" horiz-adv-x="569" d="M-12 1870l12 12q12 16 37 29q14 8 18 14l6 23l31 6q6 0 13.5 1t9.5 1q10 0 14 -2h6q23 -2 35 -19q6 2 16 2h13q80 0 100 -43q8 -14 8 -32l15 4l18 -19q49 -51 41 -110q-2 -18 2 -35q8 -27 53 -74l10 -12v-17q0 -25 -10 -47q-20 -47 -63 -47q-57 0 -127 29l-4 2 q-109 51 -176.5 136t-75.5 181zM141 45q-6 14 4 55q4 12 5 19v16l8 6q0 4 4 9q4 12 -6 43l-6 18l-3 10v8q29 186 11 363q-2 25 -6 70q-2 16 2 51q12 53 -7 114v7v2q-2 127 13 276q-27 39 -13 102q2 14 3 52q-2 27 0 51q10 59 20 76q23 41 70 41h16l10 -9q10 -8 19 -8 q33 -4 47 -26q39 -16 51 -82q6 -35 2 -70q0 -2 -2 -6t-2 -6q10 -10 10 -25q2 -20 -14 -39q0 -4 4 -8q12 -39 12 -49l21 -8l-13 -37q-10 -25 0 -78q12 -78 -10 -123q2 -6 4 -15t2 -11q0 -12 2 -17l15 -12l-2 -21q-12 -94 -2 -172q8 -90 2 -174q16 -14 16 -45q-4 -29 -16 -49 q-2 0 -2 -2t-2 -4q14 -43 -2 -80v-2q2 -12 -3 -25l11 -4l2 -20q25 -133 22 -164q-2 -61 -43 -86l-8 -6l-10 -2l-2 -2h-4l-9 -2h-10q-10 2 -28.5 4t-20.5 2q-33 0 -67 8q-33 4 -59.5 30.5t-35.5 55.5z" />
<glyph unicode="&#xcd;" horiz-adv-x="569" d="M137 1626q2 2 2 8v17l13 12q43 43 47 61q0 6 -4 17q-10 31 -7 49q4 31 37 61l21 19l8 -4q27 20 45 22q8 12 14 19l13 12h18h10h15h8h10h29l2 -2h10h6q8 -2 20.5 -5t18.5 -3t10 4q4 0 11.5 2t13.5 3t12 1h10l17 -4l8 -10q12 -16 12 -47v-9l6 -6v-16q-12 -143 -145 -238 q-12 -8 -31 -8q-14 -37 -65 -47q-8 0 -17 -4l-4 -2q-59 -19 -92 -19q-20 0 -35 2q-23 4 -34 21q-20 23 -13 94zM141 45q-6 14 4 55q4 12 5 19v16l8 6q0 4 4 9q4 12 -6 43l-6 18l-3 10v8q29 186 11 363q-2 25 -6 70q-2 16 2 51q12 53 -7 114v7v2q-2 127 13 276 q-27 39 -13 102q2 14 3 52q-2 27 0 51q10 59 20 76q23 41 70 41h16l10 -9q10 -8 19 -8q33 -4 47 -26q39 -16 51 -82q6 -35 2 -70q0 -2 -2 -6t-2 -6q10 -10 10 -25q2 -20 -14 -39q0 -4 4 -8q12 -39 12 -49l21 -8l-13 -37q-10 -25 0 -78q12 -78 -10 -123q2 -6 4 -15t2 -11 q0 -12 2 -17l15 -12l-2 -21q-12 -94 -2 -172q8 -90 2 -174q16 -14 16 -45q-4 -29 -16 -49q-2 0 -2 -2t-2 -4q14 -43 -2 -80v-2q2 -12 -3 -25l11 -4l2 -20q25 -133 22 -164q-2 -61 -43 -86l-8 -6l-10 -2l-2 -2h-4l-9 -2h-10q-10 2 -28.5 4t-20.5 2q-33 0 -67 8 q-33 4 -59.5 30.5t-35.5 55.5z" />
<glyph unicode="&#xce;" horiz-adv-x="569" d="M-63 1538q-4 29 12 55v13q-2 18 26 47q4 4 5 6l4 20l28 11q2 6 15 28q18 35 24 68l2 24l17 15q4 0 13 -1t11 -1h2l8 24l-2 23l23 12q18 12 45 12t57 -10q20 -10 54 -10q35 0 63 14q12 6 23 6q33 0 67 -49q6 -12 8 -14l9 -6l4 -6q23 -47 102 -95q43 -27 45 -28l4 -4l4 -2 q12 -16 17 -66v-10l14 -2l-4 -39q-2 -39 -43 -51l-2 -2h-4q-2 -2 -4 -4.5t-5.5 -9.5t-0.5 -15l-37 12q-55 18 -105 60q-27 29 -47 34l-22 9l-7 18q-6 25 -13 31t-21.5 6t-42.5 -4q-12 0 -33 -4q-23 -31 -29 -56q-10 -31 -26 -43l-9 -6l-8 -2q-20 -4 -37 -35l-12 -36l-31 2 q-6 -4 -9 -9.5t-3 -9.5l2 -2l-41 12q-102 31 -110 70zM141 45q-6 14 4 55q4 12 5 19v16l8 6q0 4 4 9q4 12 -6 43l-6 18l-3 10v8q29 186 11 363q-2 25 -6 70q-2 16 2 51q12 53 -7 114v7v2q-2 127 13 276q-27 39 -13 102q2 14 3 52q-2 27 0 51q10 59 20 76q23 41 70 41h16 l10 -9q10 -8 19 -8q33 -4 47 -26q39 -16 51 -82q6 -35 2 -70q0 -2 -2 -6t-2 -6q10 -10 10 -25q2 -20 -14 -39q0 -4 4 -8q12 -39 12 -49l21 -8l-13 -37q-10 -25 0 -78q12 -78 -10 -123q2 -6 4 -15t2 -11q0 -12 2 -17l15 -12l-2 -21q-12 -94 -2 -172q8 -90 2 -174 q16 -14 16 -45q-4 -29 -16 -49q-2 0 -2 -2t-2 -4q14 -43 -2 -80v-2q2 -12 -3 -25l11 -4l2 -20q25 -133 22 -164q-2 -61 -43 -86l-8 -6l-10 -2l-2 -2h-4l-9 -2h-10q-10 2 -28.5 4t-20.5 2q-33 0 -67 8q-33 4 -59.5 30.5t-35.5 55.5z" />
<glyph unicode="&#xcf;" horiz-adv-x="569" d="M-88 1767q0 10 5 19.5t9 13.5l6 4q10 10 29 60q4 35 19 43q6 4 17 -1t19 -14l9 -8q8 -6 14 -6q2 0 8 1t10 1q16 4 25 4q10 0 22 -4q10 6 25 6q8 0 14 -2q16 10 33 -8q-4 -6 -4 -14.5v-14.5l2 -4q2 -2 6 -10l31 -6q2 0 5 -2l6 -4t5 -2q12 -10 35 -11q6 -14 6 -26.5 t-4 -20.5l-4 -8q-16 -35 -31 -70q-43 -119 -118 -149l-13 -6l-14 6q-45 16 -86 61q-29 33 -47 41q-25 6 -27 15l2 30l2 5q4 25 6 38v19q-2 16 -22 24zM141 45q-6 14 4 55q4 12 5 19v16l8 6q0 4 4 9q4 12 -6 43l-6 18l-3 10v8q29 186 11 363q-2 25 -6 70q-2 16 2 51 q12 53 -7 114v7v2q-2 127 13 276q-27 39 -13 102q2 14 3 52q-2 27 0 51q10 59 20 76q23 41 70 41h16l10 -9q10 -8 19 -8q33 -4 47 -26q39 -16 51 -82q6 -35 2 -70q0 -2 -2 -6t-2 -6q10 -10 10 -25q2 -20 -14 -39q0 -4 4 -8q12 -39 12 -49l21 -8l-13 -37q-10 -25 0 -78 q12 -78 -10 -123q2 -6 4 -15t2 -11q0 -12 2 -17l15 -12l-2 -21q-12 -94 -2 -172q8 -90 2 -174q16 -14 16 -45q-4 -29 -16 -49q-2 0 -2 -2t-2 -4q14 -43 -2 -80v-2q2 -12 -3 -25l11 -4l2 -20q25 -133 22 -164q-2 -61 -43 -86l-8 -6l-10 -2l-2 -2h-4l-9 -2h-10q-10 2 -28.5 4 t-20.5 2q-33 0 -67 8q-33 4 -59.5 30.5t-35.5 55.5zM311 1661l21 37q2 2 6 31q0 37 14 59q14 25 45 35v2q0 27 6 45l9 24l24 4h13q16 0 32 -8h8q96 0 144 -84q47 -86 -6 -172l-13 -20h-10q-14 -39 -69 -80q-2 -2 -7.5 -6t-7.5 -6q-18 -16 -28 -17q-4 0 -11.5 5.5t-11.5 9.5 l-4 4l-6 6q-18 23 -41 24q-14 4 -33 5l-4 28l-16 12q-16 12 -23 39q-31 12 -31 23z" />
<glyph unicode="&#xd0;" horiz-adv-x="1478" d="M-27 590l15 26q4 10 0 33q-12 119 110 176l8 4h11q27 0 49 -8q6 4 20 4q12 0 19 -2l6 19l14 -4q14 18 35 18q-6 43 -14 152q-8 156 -29 221l-4 2l-4 2q-8 0 -27 6q-2 2 -4 2l-18 -4l-17 12q-70 61 -49 133q-39 45 -4 101l10 16l19 2q39 8 78 8q23 0 79 -8q4 -2 11.5 -3 t11.5 -1q10 12 29 12h4h6q59 -10 135 -10h43h43q170 0 264 -55q12 4 21 4h8l12 -2l8 -8q61 -51 183 -82l14 -4l8 -11q25 -31 56 -59q63 -63 94 -111l14 -18l-14 -25l-4 -4q45 -39 84 -82q51 -63 55 -118q12 -16 14 -27q6 -18 6 -39q0 -27 7 -33l24 -16l-8 -29 q-8 -20 -12 -24q6 -29 2 -58q0 -4 -1 -12t-1 -10l10 -8l2 -17q4 -59 -33 -114q-20 -39 -8 -70q2 -4 4 -9t6 -20.5t-2 -19.5q-4 -6 -13 -8t-16 0l-8 2q-16 -16 -24 -21q-29 -80 -142 -151q-66 -43 -90 -76l-10 -12l-18 -2q-25 -2 -78 -39q-82 -59 -148 -60h-2 q-18 -18 -65 -33q-23 -6 -27 -10l-16 -24l-29 8h-2q-41 -35 -92 -35q-18 0 -43 4q-8 2 -25 2q-14 0 -22 -22q-10 -33 -27 -35q-8 -2 -16 2t-13 8l-6 4q-4 4 -10 6l-4 4h-4l-4 -2q-23 -8 -58 -10q-35 -16 -41 -16q-4 0 -6 4t-2 8l-2 4q-2 -2 -6 -3t-15.5 -3t-15.5 2 q-6 2 -9 9t-3 16v6q-6 0 -18 4l-17 4l-8 16q-6 14 -27 41q-16 18 -23 30.5t-13.5 41.5t2.5 65q2 25 8 31l33 2q6 0 14 10q23 33 55 33q12 0 29 -6q4 4 16 12q0 14 -3 43t-3 33q-10 76 -6 117q-8 20 -8 84v45q-2 4 -2 10h-2q-14 0 -46 -3t-44 -3q-66 -10 -111 -10 q-61 0 -90 24zM461 1247q8 -217 37 -383h4q2 0 6 4l16 9l19 -7q0 -2 4 -2q2 0 4 -2q45 23 123 23q12 0 26.5 -1t23.5 -2t17.5 -1h12.5l6 -2h6l6 -4q41 -18 55 -78q4 -16 7 -21l10 -18l-8 -14q-16 -43 -45 -69t-49.5 -33t-71.5 -19q-20 -6 -52 -15q-24 -24 -75 -32 q0 -55 12 -68l14 -14l-4 -21q-6 -27 8 -160q4 -23 9 -63q16 6 49 14q131 41 190 74q68 35 162 100q29 16 41 25q53 33 90 100.5t27 120.5l-2 12l4 13q20 53 -37 178q-37 78 -45 108q-12 14 -26.5 28.5t-27 26t-31 27t-29.5 24.5t-34.5 25.5t-33 22.5t-36 23.5t-33.5 21.5 t-36 22.5t-35 22.5q-61 6 -127 6q-39 0 -61 -2h-66h-24z" />
<glyph unicode="&#xd1;" horiz-adv-x="1478" d="M115 1300l4 15q2 8 24 31q18 12 13 30l-4 39l49 2q39 -6 125 -43q4 -2 26 -14l15 -6l4 -8q115 -209 286 -404l15 -10l-4 -21q-8 -27 63 -90q4 -4 17.5 -18.5t18.5 -20.5t16.5 -19t17.5 -21.5t14 -21.5t12 -24.5t7.5 -25t3.5 -27.5q43 -37 88 -96q14 -14 44.5 -49 t47.5 -52q2 20 2 66q0 113 22 147q4 68 29 261q47 313 10 495l-6 29l29 12q35 12 65 12q18 0 74 -16q43 -12 57 -14l13 -2l10 -9q20 -18 20 -51q14 8 17 -8l-2 -37l-2 -4v-4q0 -2 -1 -6t-1 -6q12 -12 14 -29v-8v-4q-10 -57 -18 -137q-16 -193 -52 -275q2 -143 -4 -311 q-12 -315 11 -477l2 -39l-7 -8q-29 0 -32 -5l-2 -16l-25 -10q-37 -18 -70 -19q-31 0 -59.5 16.5t-37.5 28t-32 37.5q-14 31 -36 41l-27 13l-8 26q-14 20 -23 31q-20 29 -67 72q-119 115 -160 178q-31 49 -152 196q-51 53 -102 125l-2 4l-2 2q-2 4 -5 10.5t-5 10.5 q-8 25 -13.5 32t-25.5 15l-4 2q2 -10 5 -25.5t3 -23.5q2 -6 5 -15.5t3 -11.5v-10l-2 -8q-2 -4 -5 -13.5t-5 -13.5q-8 -29 -11 -33q-4 -23 9 -98q14 -76 14 -112q0 -12 -14 -56q-12 -45 0 -63l10 -17l-6 -18q-31 -94 -2 -156l12 -24l-16 -17q-12 -14 -13 -63q-4 -68 -10 -86 l-6 -17l-12 -6q-20 -8 -33 -8q-4 0 -29 6q-12 4 -14 4l-2 -2l-35 -6l-16 19q-6 8 -27 18q-45 23 -68 63l-4 7v8q-6 70 -2 162q0 16 1 47.5t1 48.5q0 49 6 92q6 61 3 111q0 2 -1.5 9t-1.5 11q-8 37 -6 53q2 14 19 37q4 4 4 6q0 4 -2 13q-4 4 -4 8q-16 20 -17 51q0 20 19 49 l2 4q2 4 4 6q0 10 -12 52q-14 59 -13 77q0 25 13 58l4 12l-8 8l-3 17q-6 53 5 131q16 119 -29 188zM381 1694v2q8 41 29 65q4 16 14 27q14 16 33 20q14 18 37 25l14 6q4 4 27 10q12 2 20 9l14 10l17 -2q20 -2 43 -11q33 -10 47 -22q4 2 10 2q12 0 19 -2l12 -6l2 -4q4 0 8 -4 q61 -31 78 -52h4h4q27 0 43 -6q6 2 23 6q25 2 32 15v6q8 27 2 57l-2 19l13 10q27 37 63 37q33 0 74 -37q8 -8 14 -8l25 -6v-31q2 -10 -8 -31q14 -37 0 -76q-6 -31 -19 -45q0 -16 -14 -39q-10 -16 -33 -39l-4 -4v-18l-31 -8h-14q-4 0 -10 -1t-9 -1l-6 -2q-20 -14 -47 -19 q-2 0 -6 -1t-7 -1t-6 -1t-5 -3t-6.5 -4t-19.5 -6t-32 2l-12 16q-2 2 -4 2h-4q-20 -4 -25 -4q-63 0 -102 51q-41 41 -84 45q-18 -14 -35 -20q-4 0 -6 -2q-4 -6 -16 -18q-2 -2 -7.5 -9.5t-7.5 -9.5l-4 -10l-10 -6q-14 -12 -41 -13q-39 0 -72 29q-27 45 -12 111z" />
<glyph unicode="&#xd2;" horiz-adv-x="1593" d="M88 424l2 6q2 14 10 23q-12 23 -2 73q6 14 6 33q0 10 -6 23q-10 33 -8 45q2 18 21 55q10 27 10 29q4 10 0 22q0 57 26 82q-6 37 27 121q20 37 23 63l2 23l20 10q4 2 13.5 5t13.5 5q-6 18 0 39q10 31 35 45q18 12 16 29q-4 37 -4 43h20l25 37q57 74 104 90v2q6 16 29 25 q2 2 4 5t4 5q23 16 76 45l20 8q2 2 3 4l14 17l22 -2q31 -4 64 -19q6 6 22 10l9 5l49 2l8 -19q6 -12 16 -18q6 -8 23 -21q29 14 47 15h8h2h2q12 -4 19 -5q2 0 26 7q37 12 72 14h25l8 -14q2 -2 11 -5.5t11 -3.5q4 -2 18.5 -6t20.5 -8h2q4 2 6 2q16 0 47 -20l3 -2q16 -6 20 10 q8 -4 15.5 -11.5t11.5 -13.5l4 -6q31 -43 73 -78q92 -84 95 -135l12 -18q8 -12 12 -17l31 -16l2 -23v-12v-2q27 -10 39 -22q-6 -6 -9 -13.5t-1 -11.5v-2q12 -10 22 -35l4 -4l13 -53q8 -31 10 -39q33 -111 22 -170q10 0 13 -12l-2 -21q0 -10 -2 -16q-8 -49 -17 -78 q16 -53 -43 -113q-8 -8 -16 -49q-6 -33 -25 -61q-27 -53 -114 -123q-20 -14 -64 -53q-96 -92 -168 -101q-2 -2 -5 -6t-5 -6l-10 -17h-21h-22q-39 0 -43 -4l-9 -32h-30q-47 0 -109 -13q-25 -8 -90 -18q-29 -4 -53 -6q-8 0 -12.5 4t-2.5 8v4q-10 -2 -23 -3t-20 -1h-34h-50 l3 18q-6 0 -14.5 -1t-12.5 -1q-10 0 -27 5l-26 6v10q-25 8 -47 31q-4 2 -11 8q-18 12 -26 12q0 -2 -2 -4t-6.5 -7t-8.5 1l-22 14q-102 74 -149.5 149.5t-92.5 215.5zM385 416q20 -49 45 -78q4 -10 21.5 -42t23.5 -46q70 -57 232 -57q102 0 192 26l16 17q57 39 99 49 q35 51 84 86l24.5 24.5t24.5 25.5t19.5 23.5t18.5 26.5t10 27.5t7 33.5v15l15 8q2 2 5 4t5 2q2 2 4 2q8 158 -47.5 315.5t-145.5 237.5q-74 25 -116 25q-41 0 -95 -39q-47 -41 -94 -53l-51 -5v17q-14 -6 -31 -6q-33 0 -49 30l-2 7v8q-4 14 0 20h-6q-4 -4 -14.5 -12 t-12.5 -10q0 -2 -1 -5t-3 -6q-8 -35 -20 -47q-10 -10 -33 -16q-82 -123 -116 -288t-9 -320zM500 1870l12 12q12 16 37 29q14 8 18 14l6 23l31 6q6 0 13.5 1t9.5 1q10 0 14 -2h6q23 -2 35 -19q6 2 16 2h13q80 0 100 -43q8 -14 8 -32l15 4l18 -19q49 -51 41 -110q-2 -18 2 -35 q8 -27 53 -74l10 -12v-17q0 -25 -10 -47q-20 -47 -63 -47q-57 0 -127 29l-4 2q-109 51 -176.5 136t-75.5 181z" />
<glyph unicode="&#xd3;" horiz-adv-x="1593" d="M88 424l2 6q2 14 10 23q-12 23 -2 73q6 14 6 33q0 10 -6 23q-10 33 -8 45q2 18 21 55q10 27 10 29q4 10 0 22q0 57 26 82q-6 37 27 121q20 37 23 63l2 23l20 10q4 2 13.5 5t13.5 5q-6 18 0 39q10 31 35 45q18 12 16 29q-4 37 -4 43h20l25 37q57 74 104 90v2q6 16 29 25 q2 2 4 5t4 5q23 16 76 45l20 8q2 2 3 4l14 17l22 -2q31 -4 64 -19q6 6 22 10l9 5l49 2l8 -19q6 -12 16 -18q6 -8 23 -21q29 14 47 15h8h2h2q12 -4 19 -5q2 0 26 7q37 12 72 14h25l8 -14q2 -2 11 -5.5t11 -3.5q4 -2 18.5 -6t20.5 -8h2q4 2 6 2q16 0 47 -20l3 -2q16 -6 20 10 q8 -4 15.5 -11.5t11.5 -13.5l4 -6q31 -43 73 -78q92 -84 95 -135l12 -18q8 -12 12 -17l31 -16l2 -23v-12v-2q27 -10 39 -22q-6 -6 -9 -13.5t-1 -11.5v-2q12 -10 22 -35l4 -4l13 -53q8 -31 10 -39q33 -111 22 -170q10 0 13 -12l-2 -21q0 -10 -2 -16q-8 -49 -17 -78 q16 -53 -43 -113q-8 -8 -16 -49q-6 -33 -25 -61q-27 -53 -114 -123q-20 -14 -64 -53q-96 -92 -168 -101q-2 -2 -5 -6t-5 -6l-10 -17h-21h-22q-39 0 -43 -4l-9 -32h-30q-47 0 -109 -13q-25 -8 -90 -18q-29 -4 -53 -6q-8 0 -12.5 4t-2.5 8v4q-10 -2 -23 -3t-20 -1h-34h-50 l3 18q-6 0 -14.5 -1t-12.5 -1q-10 0 -27 5l-26 6v10q-25 8 -47 31q-4 2 -11 8q-18 12 -26 12q0 -2 -2 -4t-6.5 -7t-8.5 1l-22 14q-102 74 -149.5 149.5t-92.5 215.5zM385 416q20 -49 45 -78q4 -10 21.5 -42t23.5 -46q70 -57 232 -57q102 0 192 26l16 17q57 39 99 49 q35 51 84 86l24.5 24.5t24.5 25.5t19.5 23.5t18.5 26.5t10 27.5t7 33.5v15l15 8q2 2 5 4t5 2q2 2 4 2q8 158 -47.5 315.5t-145.5 237.5q-74 25 -116 25q-41 0 -95 -39q-47 -41 -94 -53l-51 -5v17q-14 -6 -31 -6q-33 0 -49 30l-2 7v8q-4 14 0 20h-6q-4 -4 -14.5 -12 t-12.5 -10q0 -2 -1 -5t-3 -6q-8 -35 -20 -47q-10 -10 -33 -16q-82 -123 -116 -288t-9 -320zM649 1626q2 2 2 8v17l13 12q43 43 47 61q0 6 -4 17q-10 31 -7 49q4 31 37 61l21 19l8 -4q27 20 45 22q8 12 14 19l13 12h18h10h15h8h10h29l2 -2h10h6q8 -2 20.5 -5t18.5 -3t10 4 l37 6h10l17 -4l8 -10q12 -16 12 -47v-9l6 -6v-16q-12 -143 -145 -238q-12 -8 -31 -8q-14 -37 -65 -47q-8 0 -17 -4l-4 -2q-59 -19 -92 -19q-20 0 -35 2q-23 4 -34 21q-20 23 -13 94z" />
<glyph unicode="&#xd4;" horiz-adv-x="1593" d="M88 424l2 6q2 14 10 23q-12 23 -2 73q6 14 6 33q0 10 -6 23q-10 33 -8 45q2 18 21 55q10 27 10 29q4 10 0 22q0 57 26 82q-6 37 27 121q20 37 23 63l2 23l20 10q4 2 13.5 5t13.5 5q-6 18 0 39q10 31 35 45q18 12 16 29q-4 37 -4 43h20l25 37q57 74 104 90v2q6 16 29 25 q2 2 4 5t4 5q23 16 76 45l20 8q2 2 3 4l14 17l22 -2q31 -4 64 -19q6 6 22 10l9 5l49 2l8 -19q6 -12 16 -18q6 -8 23 -21q29 14 47 15h8h2h2q12 -4 19 -5q2 0 26 7q37 12 72 14h25l8 -14q2 -2 11 -5.5t11 -3.5q4 -2 18.5 -6t20.5 -8h2q4 2 6 2q16 0 47 -20l3 -2q16 -6 20 10 q8 -4 15.5 -11.5t11.5 -13.5l4 -6q31 -43 73 -78q92 -84 95 -135l12 -18q8 -12 12 -17l31 -16l2 -23v-12v-2q27 -10 39 -22q-6 -6 -9 -13.5t-1 -11.5v-2q12 -10 22 -35l4 -4l13 -53q8 -31 10 -39q33 -111 22 -170q10 0 13 -12l-2 -21q0 -10 -2 -16q-8 -49 -17 -78 q16 -53 -43 -113q-8 -8 -16 -49q-6 -33 -25 -61q-27 -53 -114 -123q-20 -14 -64 -53q-96 -92 -168 -101q-2 -2 -5 -6t-5 -6l-10 -17h-21h-22q-39 0 -43 -4l-9 -32h-30q-47 0 -109 -13q-25 -8 -90 -18q-29 -4 -53 -6q-8 0 -12.5 4t-2.5 8v4q-10 -2 -23 -3t-20 -1h-34h-50 l3 18q-6 0 -14.5 -1t-12.5 -1q-10 0 -27 5l-26 6v10q-25 8 -47 31q-4 2 -11 8q-18 12 -26 12q0 -2 -2 -4t-6.5 -7t-8.5 1l-22 14q-102 74 -149.5 149.5t-92.5 215.5zM385 416q20 -49 45 -78q4 -10 21.5 -42t23.5 -46q70 -57 232 -57q102 0 192 26l16 17q57 39 99 49 q35 51 84 86l24.5 24.5t24.5 25.5t19.5 23.5t18.5 26.5t10 27.5t7 33.5v15l15 8q2 2 5 4t5 2q2 2 4 2q8 158 -47.5 315.5t-145.5 237.5q-74 25 -116 25q-41 0 -95 -39q-47 -41 -94 -53l-51 -5v17q-14 -6 -31 -6q-33 0 -49 30l-2 7v8q-4 14 0 20h-6q-4 -4 -14.5 -12 t-12.5 -10q0 -2 -1 -5t-3 -6q-8 -35 -20 -47q-10 -10 -33 -16q-82 -123 -116 -288t-9 -320zM449 1538q-4 29 12 55v13q-2 18 26 47q4 4 5 6l4 20l28 11q2 6 15 28q18 35 24 68l2 24l17 15q4 0 12 -1t12 -1h2l8 24l-2 23l23 12q18 12 45 12t57 -10q20 -10 54 -10q35 0 63 14 q12 6 23 6q33 0 67 -49q6 -12 8 -14l9 -6l4 -6q23 -47 102 -95q43 -27 45 -28l4 -4l4 -2q12 -16 17 -66v-10l14 -2l-4 -39q-2 -39 -43 -51l-2 -2h-4q-2 -2 -4 -4.5t-5.5 -9.5t-0.5 -15l-37 12q-55 18 -105 60q-27 29 -47 34l-22 9l-7 18q-6 25 -13 31t-21.5 6t-42.5 -4 q-12 0 -33 -4q-23 -31 -29 -56q-10 -31 -26 -43l-9 -6l-8 -2q-20 -4 -37 -35l-12 -36l-31 2q-6 -4 -9 -9.5t-3 -9.5l2 -2l-41 12q-102 31 -110 70z" />
<glyph unicode="&#xd5;" horiz-adv-x="1593" d="M88 424l2 6q2 14 10 23q-12 23 -2 73q6 14 6 33q0 10 -6 23q-10 33 -8 45q2 18 21 55q10 27 10 29q4 10 0 22q0 57 26 82q-6 37 27 121q20 37 23 63l2 23l20 10q4 2 13.5 5t13.5 5q-6 18 0 39q10 31 35 45q18 12 16 29q-4 37 -4 43h20l25 37q57 74 104 90v2q6 16 29 25 q2 2 4 5t4 5q23 16 76 45l20 8q2 2 3 4l14 17l22 -2q31 -4 64 -19q6 6 22 10l9 5l49 2l8 -19q6 -12 16 -18q6 -8 23 -21q29 14 47 15h8h2h2q12 -4 19 -5q2 0 26 7q37 12 72 14h25l8 -14q2 -2 11 -5.5t11 -3.5q4 -2 18.5 -6t20.5 -8h2q4 2 6 2q16 0 47 -20l3 -2q16 -6 20 10 q8 -4 15.5 -11.5t11.5 -13.5l4 -6q31 -43 73 -78q92 -84 95 -135l12 -18q8 -12 12 -17l31 -16l2 -23v-12v-2q27 -10 39 -22q-6 -6 -9 -13.5t-1 -11.5v-2q12 -10 22 -35l4 -4l13 -53q8 -31 10 -39q33 -111 22 -170q10 0 13 -12l-2 -21q0 -10 -2 -16q-8 -49 -17 -78 q16 -53 -43 -113q-8 -8 -16 -49q-6 -33 -25 -61q-27 -53 -114 -123q-20 -14 -64 -53q-96 -92 -168 -101q-2 -2 -5 -6t-5 -6l-10 -17h-21h-22q-39 0 -43 -4l-9 -32h-30q-47 0 -109 -13q-25 -8 -90 -18q-29 -4 -53 -6q-8 0 -12.5 4t-2.5 8v4q-10 -2 -23 -3t-20 -1h-34h-50 l3 18q-6 0 -14.5 -1t-12.5 -1q-10 0 -27 5l-26 6v10q-25 8 -47 31q-4 2 -11 8q-18 12 -26 12q0 -2 -2 -4t-6.5 -7t-8.5 1l-22 14q-102 74 -149.5 149.5t-92.5 215.5zM385 416q20 -49 45 -78q4 -10 21.5 -42t23.5 -46q70 -57 232 -57q102 0 192 26l16 17q57 39 99 49 q35 51 84 86l24.5 24.5t24.5 25.5t19.5 23.5t18.5 26.5t10 27.5t7 33.5v15l15 8q2 2 5 4t5 2q2 2 4 2q8 158 -47.5 315.5t-145.5 237.5q-74 25 -116 25q-41 0 -95 -39q-47 -41 -94 -53l-51 -5v17q-14 -6 -31 -6q-33 0 -49 30l-2 7v8q-4 14 0 20h-6q-4 -4 -14.5 -12 t-12.5 -10q0 -2 -1 -5t-3 -6q-8 -35 -20 -47q-10 -10 -33 -16q-82 -123 -116 -288t-9 -320zM438 1694v2q8 41 29 65q4 16 14 27q14 16 33 20q14 18 37 25l14 6q6 4 27 10q12 2 20 9l15 10l16 -2q20 -2 43 -11q33 -10 47 -22q4 2 10 2q12 0 19 -2l12 -6l2 -4q4 0 8 -4 q61 -31 78 -52h4h4q27 0 43 -6q6 2 23 6q25 2 33 15v6q8 27 2 57l-2 19l12 10q27 37 63 37q33 0 74 -37q8 -8 15 -8l24 -6v-31q2 -10 -8 -31q14 -37 0 -76q-6 -31 -19 -45q0 -16 -14 -39q-10 -16 -33 -39l-4 -4v-18l-30 -8h-15q-4 0 -10 -1t-8 -1l-6 -2q-20 -14 -47 -19 q-2 0 -6.5 -1t-7.5 -1t-6 -1t-5 -3t-6 -4t-19.5 -6t-31.5 2l-13 16q-2 2 -4 2h-4q-20 -4 -24 -4q-63 0 -103 51q-41 41 -84 45q-18 -14 -35 -20q-4 0 -6 -2q-4 -6 -16 -18q-2 -2 -7 -9.5t-7 -9.5l-5 -10l-10 -6q-14 -12 -41 -13q-39 0 -71 29q-27 45 -13 111z" />
<glyph unicode="&#xd6;" horiz-adv-x="1593" d="M88 424l2 6q2 14 10 23q-12 23 -2 73q6 14 6 33q0 10 -6 23q-10 33 -8 45q2 18 21 55q10 27 10 29q4 10 0 22q0 57 26 82q-6 37 27 121q20 37 23 63l2 23l20 10q4 2 13.5 5t13.5 5q-6 18 0 39q10 31 35 45q18 12 16 29q-4 37 -4 43h20l25 37q57 74 104 90v2q6 16 29 25 q2 2 4 5t4 5q23 16 76 45l20 8q2 2 3 4l14 17l22 -2q31 -4 64 -19q6 6 22 10l9 5l49 2l8 -19q6 -12 16 -18q6 -8 23 -21q29 14 47 15h8h2h2q12 -4 19 -5q2 0 26 7q37 12 72 14h25l8 -14q2 -2 11 -5.5t11 -3.5q4 -2 18.5 -6t20.5 -8h2q4 2 6 2q16 0 47 -20l3 -2q16 -6 20 10 q8 -4 15.5 -11.5t11.5 -13.5l4 -6q31 -43 73 -78q92 -84 95 -135l12 -18q8 -12 12 -17l31 -16l2 -23v-12v-2q27 -10 39 -22q-6 -6 -9 -13.5t-1 -11.5v-2q12 -10 22 -35l4 -4l13 -53q8 -31 10 -39q33 -111 22 -170q10 0 13 -12l-2 -21q0 -10 -2 -16q-8 -49 -17 -78 q16 -53 -43 -113q-8 -8 -16 -49q-6 -33 -25 -61q-27 -53 -114 -123q-20 -14 -64 -53q-96 -92 -168 -101q-2 -2 -5 -6t-5 -6l-10 -17h-21h-22q-39 0 -43 -4l-9 -32h-30q-47 0 -109 -13q-25 -8 -90 -18q-29 -4 -53 -6q-8 0 -12.5 4t-2.5 8v4q-10 -2 -23 -3t-20 -1h-34h-50 l3 18q-6 0 -14.5 -1t-12.5 -1q-10 0 -27 5l-26 6v10q-25 8 -47 31q-4 2 -11 8q-18 12 -26 12q0 -2 -2 -4t-6.5 -7t-8.5 1l-22 14q-102 74 -149.5 149.5t-92.5 215.5zM385 416q20 -49 45 -78q4 -10 21.5 -42t23.5 -46q70 -57 232 -57q102 0 192 26l16 17q57 39 99 49 q35 51 84 86l24.5 24.5t24.5 25.5t19.5 23.5t18.5 26.5t10 27.5t7 33.5v15l15 8q2 2 5 4t5 2q2 2 4 2q8 158 -47.5 315.5t-145.5 237.5q-74 25 -116 25q-41 0 -95 -39q-47 -41 -94 -53l-51 -5v17q-14 -6 -31 -6q-33 0 -49 30l-2 7v8q-4 14 0 20h-6q-4 -4 -14.5 -12 t-12.5 -10q0 -2 -1 -5t-3 -6q-8 -35 -20 -47q-10 -10 -33 -16q-82 -123 -116 -288t-9 -320zM424 1767q0 10 5 19.5t9 13.5l6 4q10 10 29 60q4 35 19 43q6 4 17 -1t19 -14l9 -8q10 -6 14 -6q2 0 8 1t10 1q16 4 25 4q10 0 22 -4q10 6 25 6q8 0 14 -2q16 10 33 -8 q-4 -6 -4 -14.5v-14.5l2 -4q2 -2 6 -10l31 -6l16 -8q12 -10 35 -11q6 -14 6 -26.5t-4 -20.5l-4 -8q-16 -35 -31 -70q-43 -119 -118 -149l-13 -6l-14 6q-45 16 -86 61q-29 33 -47 41q-25 6 -27 15l2 30l2 5q4 25 6 38v19q-2 16 -22 24zM823 1661l21 37q2 2 6 31q0 37 14 59 q14 25 45 35v2q0 27 6 45l9 24l24 4h13q16 0 32 -8h8q96 0 144 -84q47 -86 -6 -172l-13 -20h-10q-14 -39 -69 -80q-2 -2 -7.5 -6t-7.5 -6q-18 -16 -28 -17q-4 0 -11.5 5.5t-11.5 9.5l-4 4l-6 6q-18 23 -41 24q-14 4 -33 5l-4 28l-16 12q-16 12 -23 39q-31 12 -31 23z" />
<glyph unicode="&#xd7;" horiz-adv-x="1196" d="M70.5 1081q-11.5 47 3.5 84l4 23l26 6q6 2 23 2q41 0 93 -23.5t73 -62.5q47 -14 106 -49q39 -29 64 -76q12 4 20 4q35 0 58 -35l8 -20l-2 -4q4 -4 6 -4q4 -4 10 -4q186 199 352 317l15 10l12 -4q49 -8 92 -65q10 -18 19 -19h6q4 2 9 3t18.5 4t15.5 -1q4 -4 6 -34 q2 -8 7 -14.5t11 -8.5h4l-22 -37q-121 -145 -193 -192q-25 -47 -98 -101q-41 -23 -57.5 -42t-14.5 -48q8 -8 15 -8h26l13 -18q4 -10 11 -25.5t9 -20.5q25 -70 43 -69l29 2l12 -27q18 -45 74 -84q51 -43 70 -65l6 -6l2 -13q4 -35 -13 -86q0 -2 -2 -6v-4l-6 -22l-18 -7 q-18 -6 -33 -6h-6q-23 -23 -53 -22q-20 0 -29 2q-4 0 -9 1t-7 1l-2 -2l-29 -8l-12 24q-12 18 -95 101q-102 98 -127 159q-16 10 -39 33q-18 -23 -57 -57q-6 -6 -20.5 -19.5t-22.5 -19.5q4 -33 -10 -56q-20 -31 -41 -43q-23 -18 -27 -26q-10 -25 -14 -29q-12 -4 -20.5 -3 t-10.5 5l-4 4q-2 0 -26 -18q-61 -43 -93 -43h-8l-8 4q-27 10 -29 45v2q-4 -2 -12 -2t-12 2l-27 -2l-2 14l-25 -2l-4 31q-4 39 15 72l-25 10l12 35q14 35 39 65.5t43.5 45t57.5 42.5q12 4 20 11q14 57 84 98q47 33 47 49q-8 23 -98 90q-78 61 -119 68l-20 2l-11 20 q-4 6 -11 21.5t-11 21.5q-23 39 -33 60.5t-21.5 68.5z" />
<glyph unicode="&#xd8;" horiz-adv-x="1593" d="M41 102q10 57 63 123l13 15l20 -2v22l15 8q37 23 36 33q2 8 -14 47q-31 59 -41 101v4v6q-2 49 -24 143q-29 145 -13 217l-6 19q-14 39 10 98q10 16 11 29q2 25 -11 45q8 6 17.5 6t13.5 -4l6 -2q8 39 29 73q4 10 12 27q-8 20 -8 35v16l8 10q12 16 37 58q61 94 96 129 l13 10l10 -2q20 31 41 37q10 33 45 53l26 8l19 -10q6 4 22 12q12 16 29 27q25 10 53 10q18 0 31 -2q8 20 23 33l16 14l20 -6h11h14q6 2 25 2q20 0 36 -6q18 14 35 14q2 0 5 -1t6 -1l18 -2l4 -8h4l25 -12q6 0 18 1t17 1q141 0 225 -96q10 -6 16 -17q6 -12 6 -24l21 2l14 -15 q14 -14 51 -55q41 -49 58 -63q45 45 88 45q2 6 8 20q2 6 6 7t8 -1l4 -2h2l5 2q16 14 30 25l13 6l8 8h12h14q31 0 56 -12q16 -6 18 -6h2q25 2 31 -2l6 -31q2 -4 2 -10q23 0 33 -11l4 -34q-10 -63 -82 -111q-39 -27 -47 -43l-10 -20h-23q-49 -4 -82 -52q0 -2 2 -4t7.5 -5 t15.5 1v-45q-4 -16 12 -47q14 -29 19 -47q4 -20 -9 -37q16 -25 17 -49q-6 -172 0 -305v-6l-2 -7q-10 -41 -41 -67l-2 -19q-6 -88 -97 -178q-51 -55 -67 -86l-4 -8l-11 -6q-6 -6 -21 -15.5t-22 -15.5q-61 -27 -75 -49l-11 -14l-14 -4h-10q-4 0 -11.5 1t-9.5 1 q-43 -39 -129 -52q-63 -12 -86 -26l-22 -17l-25 15l-2 4q-14 6 -16 6q-33 -8 -53 -8q-57 0 -101 33q-2 0 -6 -1t-6 -1q-18 0 -51 18q-6 2 -15 6h-12q-8 -2 -20 -2q-14 0 -19 4q-23 8 -49 27q-25 14 -29 14q-12 0 -30 -16q-10 -6 -58 -49q-76 -72 -125 -86q-18 -6 -39 -7 q-43 -2 -49 5q4 4 4 10v10l-2 4h-4q-23 0 -37 15.5t-16 37.5q0 14 6 31q-20 53 -8 98zM377 492q8 -6 20 -19q29 23 82 96q61 100 131 133v29l17 12q27 18 51 27q6 20 31 45q10 10 14 19l6 12l12 6q27 14 64 55q45 51 80 66q4 18 12 31q10 14 25 16q12 16 43 20q2 18 16 37 q0 14 -16 15q2 8 12 18t18 16l9 7l18 12q-8 8 -14 12q-45 29 -60 72q-61 49 -145 49q-94 0 -195.5 -56.5t-167.5 -131.5l-12 -13l-16 -2q-4 -4 -10.5 -13t-8.5 -13q-18 -35 -12 -50l6 -16l-6 -16q-96 -196 -4 -475zM592 203q27 -16 43 -17h6l18 15l19 -8q18 -8 70 -9 q27 0 36 -2q104 80 185 115q31 16 98 121q18 37 57 88q0 6 6 24q8 20 14.5 32.5t12.5 31.5q20 76 6 229q0 12 -4 45q-18 -18 -31 -32q-45 -55 -81 -66q-12 -20 -60 -61l-26 -27q4 -35 -23 -55q-18 -18 -64 -31q-6 -8 -16 -20.5t-12 -14.5q-43 -51 -45 -76l-2 -18l-19 -10 q-10 -10 -35 -11q-27 -43 -73 -77q-4 -2 -17 -11v-2q2 0 6.5 -3t7.5 -4t9 -2t10 1q4 -10 3 -16t-3 -8l-2 -5q12 -23 -18 -51q-8 -8 -29 -20q-4 -2 -11 -8.5t-10 -8.5v-10l-16 -12q-8 -4 -10 -6z" />
<glyph unicode="&#xd9;" horiz-adv-x="1478" d="M113 1116l4 8q23 43 30 142q8 78 19 127l8 34l35 -4q2 0 4 2q6 2 22.5 2t24.5 -6q14 6 43 6q20 0 62 -10q18 -6 26 -6h2q33 2 41 -6l2 -31q10 -100 -16 -309q-27 -231 -21 -336q6 -129 37 -276q41 -195 129 -291q4 -4 10 -4q45 8 103 108q14 27 39 68q23 18 51 39l41 41 q86 168 152 452q29 139 53 480q0 10 1 26.5t1 26.5l2 16l12 8q33 29 86 29q23 0 94 -14q20 -4 50 -8l22 -3l8 -18q31 -70 27 -195q0 -94 4 -120l2 -11l-2 -6q-6 -18 -27 -39q-12 -8 -16 -12q0 -29 20 -270q6 -49 15 -168q4 -41 4 -56q8 -119 18 -147q8 -33 0 -104 q-14 -70 17 -93l12 -6l2 -16q12 -70 2 -111t-49 -80l-14 -16l-23 4q-16 2 -35 10q-25 10 -41 11q-8 0 -10 -2l-12 -7l-13 5q-72 14 -100 73q-14 31 -22 107q-4 53 -13 92v16l4 17q10 16 15 53q-8 -14 -21 -43q-31 -70 -50 -106.5t-57 -84t-79 -67.5q-4 -20 -14 -31l-7 -8 l-8 -2q-66 -29 -170 -47q-45 -12 -65 -17q-6 -2 -27 -4q-6 2 -11 11.5t-9.5 11.5t-14.5 4t-14 2q-55 8 -70 33q-41 10 -83 40.5t-59 51t-52 65.5q-27 39 -33 48l-10 12v16q2 23 -17 82q-18 96 -18 105q-6 8 -10 16q-10 16 -17 20l-14 13l2 20q4 29 18 64q12 29 15 32 q-53 127 -45 388v143zM442 1870l13 12q12 16 37 29q14 8 18 14l6 23l31 6q6 0 13 1t9 1q10 0 15 -2h6q23 -2 35 -19q6 2 16 2h12q80 0 101 -43q8 -14 8 -32l14 4l19 -19q49 -51 41 -110q-2 -18 2 -35q8 -27 53 -74l10 -12v-17q0 -25 -10 -47q-21 -47 -64 -47q-57 0 -127 29 l-4 2q-109 51 -176 136t-76 181z" />
<glyph unicode="&#xda;" horiz-adv-x="1478" d="M113 1116l4 8q23 43 30 142q8 78 19 127l8 34l35 -4q2 0 4 2q6 2 22.5 2t24.5 -6q14 6 43 6q20 0 62 -10q18 -6 26 -6h2q33 2 41 -6l2 -31q10 -100 -16 -309q-27 -231 -21 -336q6 -129 37 -276q41 -195 129 -291q4 -4 10 -4q45 8 103 108q14 27 39 68q23 18 51 39l41 41 q86 168 152 452q29 139 53 480q0 10 1 26.5t1 26.5l2 16l12 8q33 29 86 29q23 0 94 -14q20 -4 50 -8l22 -3l8 -18q31 -70 27 -195q0 -94 4 -120l2 -11l-2 -6q-6 -18 -27 -39q-12 -8 -16 -12q0 -29 20 -270q6 -49 15 -168q4 -41 4 -56q8 -119 18 -147q8 -33 0 -104 q-14 -70 17 -93l12 -6l2 -16q12 -70 2 -111t-49 -80l-14 -16l-23 4q-16 2 -35 10q-25 10 -41 11q-8 0 -10 -2l-12 -7l-13 5q-72 14 -100 73q-14 31 -22 107q-4 53 -13 92v16l4 17q10 16 15 53q-8 -14 -21 -43q-31 -70 -50 -106.5t-57 -84t-79 -67.5q-4 -20 -14 -31l-7 -8 l-8 -2q-66 -29 -170 -47q-45 -12 -65 -17q-6 -2 -27 -4q-6 2 -11 11.5t-9.5 11.5t-14.5 4t-14 2q-55 8 -70 33q-41 10 -83 40.5t-59 51t-52 65.5q-27 39 -33 48l-10 12v16q2 23 -17 82q-18 96 -18 105q-6 8 -10 16q-10 16 -17 20l-14 13l2 20q4 29 18 64q12 29 15 32 q-53 127 -45 388v143zM592 1626q2 2 2 8v17l12 12q43 43 47 61q0 6 -4 17q-10 31 -6 49q4 31 37 61l20 19l9 -4q27 20 45 22q8 12 14 19l12 12h19h10h14h8h11h28l2 -2h11h6q8 -2 20.5 -5t18.5 -3t10 4q4 0 11 2t13.5 3t12.5 1h10l16 -4l9 -10q12 -16 12 -47v-9l6 -6v-16 q-12 -143 -145 -238q-12 -8 -31 -8q-14 -37 -66 -47q-8 0 -16 -4l-4 -2q-59 -19 -92 -19q-20 0 -35 2q-23 4 -35 21q-20 23 -12 94z" />
<glyph unicode="&#xdb;" horiz-adv-x="1478" d="M113 1116l4 8q23 43 30 142q8 78 19 127l8 34l35 -4q2 0 4 2q6 2 22.5 2t24.5 -6q14 6 43 6q20 0 62 -10q18 -6 26 -6h2q33 2 41 -6l2 -31q10 -100 -16 -309q-27 -231 -21 -336q6 -129 37 -276q41 -195 129 -291q4 -4 10 -4q45 8 103 108q14 27 39 68q23 18 51 39l41 41 q86 168 152 452q29 139 53 480q0 10 1 26.5t1 26.5l2 16l12 8q33 29 86 29q23 0 94 -14q20 -4 50 -8l22 -3l8 -18q31 -70 27 -195q0 -94 4 -120l2 -11l-2 -6q-6 -18 -27 -39q-12 -8 -16 -12q0 -29 20 -270q6 -49 15 -168q4 -41 4 -56q8 -119 18 -147q8 -33 0 -104 q-14 -70 17 -93l12 -6l2 -16q12 -70 2 -111t-49 -80l-14 -16l-23 4q-16 2 -35 10q-25 10 -41 11q-8 0 -10 -2l-12 -7l-13 5q-72 14 -100 73q-14 31 -22 107q-4 53 -13 92v16l4 17q10 16 15 53q-8 -14 -21 -43q-31 -70 -50 -106.5t-57 -84t-79 -67.5q-4 -20 -14 -31l-7 -8 l-8 -2q-66 -29 -170 -47q-45 -12 -65 -17q-6 -2 -27 -4q-6 2 -11 11.5t-9.5 11.5t-14.5 4t-14 2q-55 8 -70 33q-41 10 -83 40.5t-59 51t-52 65.5q-27 39 -33 48l-10 12v16q2 23 -17 82q-18 96 -18 105q-6 8 -10 16q-10 16 -17 20l-14 13l2 20q4 29 18 64q12 29 15 32 q-53 127 -45 388v143zM391 1538q-4 29 12 55v13q-2 18 27 47q4 4 4 6l4 20l29 11q2 6 14 28q18 35 25 68l2 24l16 15q4 0 12.5 -1t12.5 -1h2l8 24l-2 23l23 12q18 12 44.5 12t57.5 -10q20 -10 53 -10q35 0 64 14q12 6 22 6q33 0 68 -49q6 -12 8 -14l8 -6l4 -6 q23 -47 103 -95q43 -27 45 -28l4 -4l4 -2q12 -16 16 -66v-10l15 -2l-4 -39q-2 -39 -43 -51l-2 -2h-5q-2 -2 -4 -4.5t-5 -9.5t-1 -15l-37 12q-55 18 -104 60q-27 29 -47 34l-23 9l-6 18q-6 25 -13 31t-21.5 6t-43.5 -4q-12 0 -32 -4q-23 -31 -29 -56q-10 -31 -27 -43l-8 -6 l-8 -2q-20 -4 -37 -35l-12 -36l-31 2q-6 -4 -9 -9.5t-3 -9.5l2 -2l-41 12q-102 31 -111 70z" />
<glyph unicode="&#xdc;" horiz-adv-x="1478" d="M113 1116l4 8q23 43 30 142q8 78 19 127l8 34l35 -4q2 0 4 2q6 2 22.5 2t24.5 -6q14 6 43 6q20 0 62 -10q18 -6 26 -6h2q33 2 41 -6l2 -31q10 -100 -16 -309q-27 -231 -21 -336q6 -129 37 -276q41 -195 129 -291q4 -4 10 -4q45 8 103 108q14 27 39 68q23 18 51 39l41 41 q86 168 152 452q29 139 53 480q0 10 1 26.5t1 26.5l2 16l12 8q33 29 86 29q23 0 94 -14q20 -4 50 -8l22 -3l8 -18q31 -70 27 -195q0 -94 4 -120l2 -11l-2 -6q-6 -18 -27 -39q-12 -8 -16 -12q0 -29 20 -270q6 -49 15 -168q4 -41 4 -56q8 -119 18 -147q8 -33 0 -104 q-14 -70 17 -93l12 -6l2 -16q12 -70 2 -111t-49 -80l-14 -16l-23 4q-16 2 -35 10q-25 10 -41 11q-8 0 -10 -2l-12 -7l-13 5q-72 14 -100 73q-14 31 -22 107q-4 53 -13 92v16l4 17q10 16 15 53q-8 -14 -21 -43q-31 -70 -50 -106.5t-57 -84t-79 -67.5q-4 -20 -14 -31l-7 -8 l-8 -2q-66 -29 -170 -47q-45 -12 -65 -17q-6 -2 -27 -4q-6 2 -11 11.5t-9.5 11.5t-14.5 4t-14 2q-55 8 -70 33q-41 10 -83 40.5t-59 51t-52 65.5q-27 39 -33 48l-10 12v16q2 23 -17 82q-18 96 -18 105q-6 8 -10 16q-10 16 -17 20l-14 13l2 20q4 29 18 64q12 29 15 32 q-53 127 -45 388v143zM367 1767q0 10 5 19.5t9 13.5l6 4q10 10 29 60q4 35 18 43q6 4 17.5 -1t19.5 -14l8 -8q8 -6 15 -6q2 0 8 1t10 1q16 4 25 4q10 0 22 -4q10 6 25 6q8 0 14 -2q16 10 33 -8q-4 -6 -4 -14.5v-14.5l2 -4q2 -2 6 -10l31 -6q2 0 5 -2l6 -4t5 -2 q12 -10 35 -11q6 -14 6 -26.5t-4 -20.5l-4 -8q-16 -35 -31 -70q-43 -119 -119 -149l-12 -6l-14 6q-45 16 -86 61q-29 33 -47 41q-25 6 -27 15l2 30l2 5q4 25 6 38v19q-2 16 -22 24zM766 1661l20 37q2 2 7 31q0 37 14 59q14 25 45 35v2q0 27 6 45l8 24l25 4h12q16 0 33 -8h8 q96 0 143 -84q47 -86 -6 -172l-12 -20h-10q-14 -39 -70 -80q-2 -2 -7 -6t-7 -6q-18 -16 -29 -17q-4 0 -11 5.5t-11 9.5l-4 4l-7 6q-18 23 -41 24q-14 4 -32 5l-4 28l-17 12q-16 12 -22 39q-31 12 -31 23z" />
<glyph unicode="&#xdd;" horiz-adv-x="1366" d="M29 1489q2 25 8 33l29 6q2 0 9 1t11 1q25 4 37 4q16 0 27 -6q8 0 20 1t16 1q90 0 140 -53q20 -25 53 -103q31 -86 70 -102l14 -6l6 -13q18 -39 104 -153q53 -59 95 -127q43 -27 98 -99q45 -55 61 -67q39 53 84 154q8 20 21 43l8 22h12q8 25 19 45q10 12 6 16q2 23 -12 29 q8 10 17 17.5t13 9.5l6 2l9 4q2 4 2 25v20q2 47 61 90q12 8 19 14q6 25 34 78q33 76 37 105l4 28l31 4q20 4 27 5q18 0 39 -11q2 0 18 -4h18l13 -14q43 -59 28 -201q-4 -16 -4 -26q-2 -29 -10 -55.5t-24.5 -59.5t-25.5 -50.5t-33.5 -58.5t-31.5 -51q-74 -100 -92 -162v-8 q4 -27 -2 -41q-16 -37 -61 -100q-8 -16 -28.5 -51t-34 -60.5t-21.5 -48.5v-2q6 -23 -4 -35q-4 -12 -33 -57q-18 -27 -21 -35q0 -2 -75 -145q-8 -16 -32 -60.5t-36 -70.5q-8 -18 -33 -37v-2q2 -18 0 -33l-32 -8q-14 0 -29 -27q-20 -31 -31 -41l-14 -16l-23 8q-6 2 -14 2 q-10 0 -25 -6l-36 -12l-31 -7l-15 29q-20 39 -51 55q-33 -4 -39 17l7 33q6 35 49 61q2 0 10 4q23 84 100 154q0 39 31 88q20 29 22 51l3 18l10 15q2 2 7 3t7 1q8 27 43 80q2 6 9.5 18t11.5 19q-8 4 -45 36q-137 123 -179 205l-18 23q-244 274 -369 473q-8 12 -14 20 q-61 86 -55 154zM535 1626q2 2 2 8v17l12 12q43 43 47 61q0 6 -4 17q-10 31 -6 49q4 31 37 61l20 19l8 -4q27 20 45 22q8 12 15 19l12 12h18h11h14h8h10h29l2 -2h10h6q8 -2 20.5 -5t19 -3t10.5 4l37 6h10l16 -4l8 -10q12 -16 13 -47v-9l6 -6v-16q-12 -143 -146 -238 q-12 -8 -30 -8q-14 -37 -66 -47q-8 0 -16 -4l-4 -2q-60 -19 -93 -19q-20 0 -34 2q-23 4 -35 21q-20 23 -12 94z" />
<glyph unicode="&#xde;" horiz-adv-x="1366" d="M113 614l8 15q76 143 6 262q-8 14 -10 31l16 20q16 16 4 66q-18 63 -4 98l2 4l4 4q25 41 4 127q-29 154 7 262l8 31h28q14 -2 41 -2q74 -4 103 -14q33 -14 61 -74l8 -17l-8 -16q0 -2 -1 -8t-1 -10q-4 -31 -14 -45q27 -41 26 -72v-2v-4l-6 -19l4 -4q18 -25 15 -61q2 2 6 2 t6 2q68 31 82 45l8 10l12 2q4 2 15 2q18 0 35 -16q92 12 167 12q178 0 316 -65q150 -63 235 -217l9 -15l-5 -16q-2 -10 0 -23q6 -31 7 -41q2 -27 2 -34l-13 -13q8 -25 4 -53q-4 -23 -24 -55q-14 -25 -19 -47l-4 -15l-14 -10q-61 -31 -78 -84l-8 -27l-27 -2h-4q-4 0 -9 1 t-7 1q-127 -125 -307 -194q-162 -68 -336 -80v-66q0 -113 26 -131q20 -20 25 -32q2 -6 -5 -14.5t-13 -12.5l-9 -6q-20 -14 -28 -29q-25 -31 -66 -51l-2 -2h-4q-39 -12 -82 -12q-84 0 -121 49q-29 37 -10 94q0 12 -12 80q-6 45 -6 51q-2 16 14 59q10 16 10 23q6 66 -14 84 l-14 10v19q-2 41 16 75q-31 51 -51 156zM410 586l16 -19q33 -20 33 -69q4 0 49 10q49 16 80 16h2q20 16 43 17q4 0 8 -1t6 -1q10 10 12 14q16 16 39 31q41 29 86 28h9q25 20 38 35q14 12 56 27q25 8 31 12q27 20 40 53q8 23 23 35q6 8 31 29l8 8l6 4q27 33 14 70 q-20 68 -100 90q-66 18 -145 18q-12 0 -32 -1t-30 -1q-18 0 -26 -2q-63 -2 -195 -41q-70 -23 -90 -28q-14 -31 -10 -91q12 -10 22 -30q2 -6 8 -13q12 -16 15 -24l-11 -23q-2 -4 -6 -10q-2 -4 -4 -4q8 -31 8 -35v-14l-6 -10q-29 -41 -28 -80z" />
<glyph unicode="&#xdf;" horiz-adv-x="1251" d="M82 1069l20 31q12 23 9 51l-2 8l2 6l8 25q4 12 6 22l8 31h4q14 35 35 51v2l2 2q8 35 39 43q8 29 41 68l8 8l8 2q4 8 13 13q72 53 106 53q12 0 23 -4q39 31 94 35q31 0 63 16l25 14l22 -18h13q6 2 22 2q23 0 31 -2l18 -4l9 -19q4 0 20 4q20 6 45 7h8l47 -5l-2 -10 q6 0 15 -4q18 -2 32 -10l13 -2q39 -8 55 -43q12 0 21 -2l10 -4l4 -4q72 -68 88 -125q4 -4 6 -4q33 -33 33 -54q0 -18 10 -49q0 -2 3 -9t5 -11l2 -6v-7q-2 -25 -20 -39q12 -106 -53 -170q-14 -45 -45 -78.5t-49.5 -46t-65.5 -36.5q-51 -31 -68 -39v-43q4 -2 21.5 -9.5 t27.5 -11.5q84 -33 111 -57q49 -8 104 -78q33 -41 76 -117l6 -26l-18 -23q-6 -6 -8 -24q-4 -18 4 -27q12 -16 12 -23l-10 -22q-8 -12 -16 -45q-18 -94 -72 -117q-6 -23 -19 -35q-10 -12 -43 -26q-18 -10 -20 -13l-8 -16l-21 -4q-10 0 -14 -2l-4 -21l-33 -2h-10h-8h-11 q-18 0 -65 -6l-10 -2l-9 4h-10q-98 0 -192 56l-19 12v20v4l-4 2q-53 12 -65 58l-7 18l-6 6q-37 41 -41 60l-6 16l13 15q6 6 14 18q23 41 55 51l19 8l14 -10q20 20 45 21q2 0 6 -1t6 -1h10l9 -7q2 0 2 2q2 0 6 1t6 1l41 7q-2 -4 2 -10.5t8 -10.5l6 -4q20 -12 25 -37l4 -26 l-10 -5v-6q25 -18 57 -18q39 0 76 33.5t45 87.5v2v2q4 12 -21 43q-20 23 -79 63l-4 4q-16 -4 -23 -4q-68 0 -111 56h-8h-6l-16 2l-13 12q-2 0 -23.5 15.5t-31.5 25.5q-35 25 -50 37t-35.5 45t-27.5 74l-2 8l5 2q6 23 28 45l4 4q-6 23 4 31q6 4 15.5 6t15.5 2h8q6 0 23 -4 q14 14 53 20q45 23 80 58q37 33 96 45q29 23 51 73q31 53 50 72q0 6 -1.5 15.5t-1.5 13.5q-12 43 -12 73q-12 35 -71 64q-61 33 -144 33q-121 0 -188 -62q-20 -12 -41 -51q-18 -33 -23 -47q2 -2 5 -4t8.5 -8t5.5 -13q-2 -6 -10.5 -13t-14.5 -11l-8 -4q-12 -8 -18.5 -31 t2.5 -43l12 -29l-17 -14v-4q0 -29 -6 -39q8 -70 17 -188q4 -133 14 -209q4 -25 25 -74q18 -33 18 -61q2 -18 -16 -44q-2 0 -6 -4q-2 -33 4 -94q6 -84 4 -104q0 -20 4 -74q8 -82 -2 -121q-16 -76 -97 -94l-18 -2l-14 10q-18 14 -21 19l-6 6h-8q-10 0 -16 -2q-25 -4 -37 2 q-4 2 -6.5 10t-2.5 16v9l-4 16q-6 0 -12 6l-4 4q-20 10 -23 17l3 22q8 33 -5 117q-8 88 -4 110q-8 25 -4 48q-4 16 0 43q-14 -4 -16 10l8 30q8 33 0 117q-8 96 -2 137q0 2 -2 2q0 2 -6 9l-23 16l8 21q8 29 0 79q-10 57 5 95q-6 8 -7 18v14l-6 27q-20 72 4 139q6 12 6 17z " />
</font>
</defs>
</svg>
